<svg version="1.1" id="Layer_1" xmlns="http://www.w3.org/2000/svg" xmlns:xlink="http://www.w3.org/1999/xlink" x="0px" y="0px"
	 width="100%" viewBox="0 0 912 496" enable-background="new 0 0 912 496" xml:space="preserve">
<path fill="#000000" opacity="1.000000" stroke="none" 
	d="
M281.887817,366.990479 
	C274.777222,352.479034 269.307678,337.818542 265.572693,322.393768 
	C261.216583,304.403839 260.952911,286.300690 262.108154,268.062805 
	C262.378235,263.799103 263.975525,259.690155 263.805817,255.270096 
	C263.582458,249.452515 261.569214,247.325989 256.257996,249.662277 
	C250.981903,251.983109 245.596970,251.737442 240.255432,252.675339 
	C235.025742,253.593597 230.380341,256.881439 225.007614,258.015747 
	C219.838943,259.107025 214.857819,261.070496 209.470474,261.107788 
	C203.620468,261.148254 198.551727,264.931732 192.444839,264.335175 
	C186.828156,263.786469 183.608673,261.903625 181.296326,256.051819 
	C186.534409,252.415009 192.913849,252.702881 198.756332,251.462463 
	C208.971848,249.293594 218.974442,246.559219 228.970840,243.553497 
	C235.218597,241.674896 242.023453,241.650726 248.416367,239.798416 
	C253.187119,238.416153 258.070190,237.426422 262.870087,236.138367 
	C266.893524,235.058685 267.879303,231.520401 268.638855,228.133636 
	C272.706421,209.997131 277.986938,192.149460 284.460236,174.810760 
	C290.315277,159.128128 298.123871,144.148941 305.481537,129.059738 
	C314.886017,109.772804 324.707275,90.689178 334.324615,71.505737 
	C334.762909,70.631485 334.962555,69.637558 335.468048,68.111641 
	C328.068298,71.353760 323.347778,77.221863 318.561096,82.466309 
	C293.836853,109.554970 266.730103,134.303452 241.755035,161.114777 
	C220.978180,183.419205 200.099228,205.630112 179.411545,228.010254 
	C170.086090,238.098602 162.991394,250.217346 154.503418,261.118073 
	C136.912048,283.709900 118.746468,305.845642 103.951065,330.499664 
	C93.760437,347.480591 82.941154,364.090424 74.087715,381.836761 
	C72.323357,385.373352 71.327568,389.296570 70.015335,393.054718 
	C68.154076,398.385437 65.595459,398.792633 61.231983,395.291138 
	C56.888390,391.805603 56.468475,388.253052 58.286335,383.173279 
	C63.427563,368.806732 71.196487,355.842987 79.118484,342.982819 
	C89.855545,325.552948 100.683945,308.160278 112.121300,291.188416 
	C118.242241,282.105621 125.696129,273.917572 132.595306,265.363495 
	C143.160965,252.263412 152.835358,238.495987 162.927582,225.041275 
	C172.451218,212.344559 184.655106,202.069809 195.035187,190.161270 
	C230.533875,149.435425 270.127350,112.641441 307.003265,73.236679 
	C315.840820,63.793091 326.359314,55.950359 336.639130,48.004185 
	C338.558868,46.520252 340.691254,46.399563 342.765869,47.363483 
	C348.348938,49.957516 352.347046,56.965816 350.800140,62.994236 
	C349.455353,68.234894 349.251556,73.787727 346.646881,78.722572 
	C334.786224,101.194077 324.776611,124.622978 312.342072,146.760635 
	C307.631775,155.146530 305.695435,164.437546 301.021271,172.692612 
	C296.334808,180.969498 294.082153,190.226730 291.000488,199.162048 
	C289.046143,204.828644 288.182770,210.853683 284.032318,216.008911 
	C281.498444,219.156204 283.397827,224.664185 283.173553,229.096436 
	C285.501129,230.250565 287.528076,229.665222 289.642090,229.126480 
	C294.460297,227.898575 299.305908,226.764847 304.172211,225.744659 
	C306.584961,225.238846 312.560272,230.296844 312.681976,232.999969 
	C312.854401,236.830444 309.679535,236.912247 307.145020,237.339569 
	C297.751709,238.923355 288.570557,241.299881 279.570953,244.397842 
	C277.083649,245.254059 275.011963,246.484802 275.141083,249.616196 
	C275.704987,263.295532 274.135468,276.873322 273.339691,290.496094 
	C272.311859,308.090363 275.770874,325.150818 280.456940,342.050781 
	C285.503540,360.251038 293.026794,377.376953 305.819153,391.198853 
	C317.532928,403.855255 330.838745,415.009216 345.758331,424.110870 
	C360.020569,432.811432 375.447998,435.977966 391.842529,435.872833 
	C396.215942,435.844788 400.401093,434.718933 404.634125,433.891510 
	C408.318604,433.171356 414.238190,436.747803 414.970886,440.318481 
	C415.320526,442.022369 414.679749,443.250183 413.162811,444.025757 
	C411.344604,444.955292 409.384369,445.242859 407.361298,445.332214 
	C392.337189,445.995636 377.267700,445.945312 363.155762,440.156067 
	C355.536102,437.030212 348.088745,432.848785 341.550964,427.851837 
	C327.266174,416.933716 313.771088,405.009094 300.813202,392.510406 
	C293.173645,385.141571 288.487488,375.584595 281.887817,366.990479 
z"/>
<path fill="#000000" opacity="1.000000" stroke="none" 
	d="
M682.154175,374.216919 
	C691.157410,353.251465 700.248718,332.732635 708.770447,311.979919 
	C723.672791,275.688660 739.335510,239.727692 755.017212,203.772308 
	C755.205383,203.340698 755.200989,202.825073 755.433289,201.531250 
	C752.595032,202.525223 750.184631,203.383911 747.764587,204.214401 
	C735.405457,208.455597 722.690186,211.025024 709.921509,213.764297 
	C698.924011,216.123596 688.235657,215.678253 677.390930,216.245102 
	C676.069641,216.314163 674.529175,216.521652 673.445190,215.968933 
	C670.482727,214.458420 666.897156,212.379791 667.271912,208.941605 
	C667.644226,205.526718 671.660156,206.700317 674.042664,206.844238 
	C685.681152,207.547333 696.658691,203.955246 707.941650,202.283127 
	C725.632080,199.661362 741.555542,192.166290 758.062256,186.194046 
	C761.629822,184.903275 763.696838,182.709015 765.330933,179.316055 
	C780.640747,147.526550 792.830017,114.526100 803.507507,80.956512 
	C807.220215,69.283905 812.090332,57.933918 813.799988,45.635357 
	C814.095276,43.510944 814.065979,39.512043 817.151733,39.763126 
	C820.701904,40.051998 823.870972,43.309216 823.949036,46.732399 
	C824.079346,52.445305 825.748352,58.233112 822.028503,64.056244 
	C819.750671,67.621994 821.278564,73.120422 819.278259,77.472244 
	C818.381226,79.423920 818.066528,81.651833 816.030518,82.896667 
	C814.935608,83.566132 814.485718,84.570213 814.427734,85.820290 
	C813.735107,100.755585 806.340515,113.752487 802.260986,127.708298 
	C800.866272,132.479767 799.651672,137.467087 797.271362,141.754242 
	C791.842590,151.531708 789.447449,162.565887 784.013977,172.298157 
	C783.811096,172.661484 783.879822,173.176468 783.764221,174.063858 
	C791.014771,171.099167 797.190308,166.910095 803.583069,163.172607 
	C830.141846,147.645279 853.289001,128.028503 873.303101,104.671410 
	C875.138367,102.529533 876.546326,98.491859 880.731689,101.702431 
	C885.243958,105.163765 887.182739,110.889397 884.074036,114.205223 
	C874.336426,124.591339 865.008911,135.264450 853.957031,144.537521 
	C843.339172,153.446365 832.252014,161.445694 820.680237,168.871506 
	C811.844055,174.541840 802.888550,180.132309 793.513428,184.811234 
	C788.903137,187.112137 784.492432,190.001129 779.448975,191.539337 
	C776.371887,192.477798 774.113220,194.380295 772.887573,197.785690 
	C770.697021,203.872070 768.211487,209.893494 765.323242,215.679489 
	C758.059082,230.231216 753.542969,246.027496 745.610474,260.208649 
	C738.586853,272.764984 735.428650,286.768524 729.357788,299.666504 
	C723.203735,312.740906 717.994202,326.259644 712.360718,339.579407 
	C709.964050,345.246002 708.357666,351.460358 704.949951,356.438446 
	C699.003418,365.125244 697.852173,375.550323 693.205444,384.689209 
	C688.399841,394.140594 684.274597,403.987579 681.058228,414.169830 
	C677.905212,424.151337 674.440979,434.034271 671.151123,443.972931 
	C670.366516,446.343323 669.825928,448.827942 667.598145,450.365173 
	C666.688416,450.992920 666.282959,451.832855 666.236755,452.886292 
	C665.692444,465.310791 659.133362,475.932922 655.772400,487.516663 
	C654.292053,492.619019 651.252441,492.949158 647.185364,489.476898 
	C643.369568,486.219177 642.197327,483.204407 644.195374,477.872406 
	C654.094971,451.454498 663.094666,424.710388 672.006836,397.937653 
	C674.674072,389.925110 678.623718,382.339447 682.154175,374.216919 
z"/>
<path fill="#000000" opacity="1.000000" stroke="none" 
	d="
M461.213501,260.436096 
	C450.766571,263.476959 441.585083,268.309906 432.442871,273.314301 
	C417.228699,281.642456 402.145782,290.297241 386.443359,297.601532 
	C380.639709,300.301178 377.137878,305.177826 371.883545,308.149231 
	C366.919189,310.956696 362.295898,314.145782 356.181763,313.450714 
	C354.621704,313.273346 353.340851,312.963928 352.158051,311.849792 
	C348.922241,308.801819 346.543213,306.657379 350.037476,301.269928 
	C360.984619,284.391479 372.064117,267.542389 381.221649,249.565567 
	C395.655182,221.231567 413.737457,194.940918 427.854828,166.436615 
	C440.565308,140.772995 455.893860,116.589684 469.828491,91.619370 
	C471.367828,88.860962 473.057861,86.195496 475.570129,84.152557 
	C477.510132,82.575020 478.964508,79.116455 482.074188,81.329819 
	C485.272278,83.606148 488.565674,86.268913 487.867126,91.061295 
	C487.666901,92.434692 487.162537,93.890442 485.970764,94.448257 
	C479.025726,97.699005 480.491119,107.434143 473.438507,110.531952 
	C473.264008,115.972931 470.076172,120.203995 467.579285,124.654655 
	C463.183655,132.489777 459.175598,140.669998 453.788391,147.784225 
	C448.699219,154.504807 446.035065,162.193695 442.325531,169.470688 
	C438.475189,177.023788 434.823578,184.702164 430.522491,191.993896 
	C427.120483,197.761322 425.341339,204.680878 419.215576,208.703445 
	C417.542297,209.802216 418.905090,212.337601 417.914307,213.851791 
	C413.678711,220.325272 411.317352,228.074966 404.894775,233.070938 
	C404.394104,233.460388 403.808411,233.978668 403.656250,234.543274 
	C399.218597,251.006271 388.748871,264.429230 381.138428,279.289276 
	C380.082458,281.351074 378.876373,283.336060 377.448242,285.874969 
	C381.558441,286.023651 384.255890,283.606445 387.052032,282.031128 
	C401.101776,274.115601 415.563873,266.966309 429.678772,259.163696 
	C442.192230,252.246368 455.957031,247.164917 470.355469,244.958664 
	C477.979340,243.790466 483.809601,247.528427 488.333588,253.442444 
	C488.809418,254.064499 489.201508,254.966141 489.176849,255.723221 
	C488.798676,267.334351 486.020386,278.008545 476.167267,285.363525 
	C474.002960,286.979095 474.365906,289.415344 472.769470,291.201935 
	C463.440063,301.642395 454.084473,312.105408 443.525146,321.267395 
	C437.239288,326.721466 432.072235,333.221497 425.559052,338.438965 
	C413.220917,348.322449 400.932678,358.274414 387.604980,366.779419 
	C384.638550,368.672424 381.517792,370.573639 378.316132,372.152832 
	C359.931702,381.220825 344.455078,377.118103 333.914276,359.871582 
	C333.291504,358.852631 332.615173,357.887238 333.805450,356.431061 
	C336.567017,356.280518 337.940765,358.655151 339.366272,360.415955 
	C345.340698,367.795837 352.707275,368.214905 360.939575,365.245453 
	C373.367096,360.762817 383.474945,352.490265 393.999298,344.940674 
	C420.009827,326.282104 441.892548,303.189636 463.386536,279.718323 
	C468.114624,274.555328 471.701874,268.495056 475.279907,262.474518 
	C476.333893,260.701080 477.116882,258.958313 476.698822,256.531677 
	C471.219604,255.982285 466.541046,258.734222 461.213501,260.436096 
z"/>
<path fill="#000000" opacity="1.000000" stroke="none" 
	d="
M553.302368,322.101868 
	C546.453369,329.172302 540.277527,336.528931 532.965698,342.492950 
	C526.468872,347.792236 520.655457,354.232330 512.122253,357.029114 
	C509.516113,357.883331 506.953888,360.356049 504.309998,362.027100 
	C499.472565,365.084503 494.255890,365.310791 488.901947,364.906403 
	C482.399780,364.415222 475.563110,353.703949 476.275940,347.197693 
	C477.998627,331.473724 487.054688,319.642090 495.915070,307.584625 
	C499.659119,302.489624 503.068146,297.141479 506.947662,292.156006 
	C508.774139,289.808807 508.875732,288.141937 506.686310,286.244324 
	C503.853546,283.789032 504.110535,281.505737 506.375580,278.531189 
	C512.343262,270.694336 520.720886,266.129639 529.143555,261.962952 
	C538.854492,257.158966 549.338440,254.463409 560.370667,254.755829 
	C567.932434,254.956268 578.308899,265.480316 578.346191,273.015686 
	C578.358582,275.513855 578.396973,278.012878 578.350220,280.510132 
	C578.237427,286.530884 576.093628,291.639648 571.493164,295.646393 
	C571.026855,296.052551 570.551270,296.652252 570.439819,297.231415 
	C568.569214,306.953369 562.552246,313.651978 554.751953,319.135162 
	C554.053406,319.626190 553.892212,320.881775 553.302368,322.101868 
M508.891083,343.410522 
	C530.445923,326.210327 550.675537,307.799042 563.918030,283.028290 
	C566.243225,278.678955 569.518982,274.672791 568.996216,269.250458 
	C568.833679,267.564850 568.864502,265.275360 566.666321,265.584564 
	C559.584412,266.580872 551.564331,263.886414 545.647766,270.697266 
	C548.402039,274.031525 546.638611,275.964478 543.707458,278.277863 
	C537.926453,282.840363 531.603638,286.526825 526.730103,292.544617 
	C521.418030,299.103943 515.220337,305.002380 510.799957,312.282135 
	C509.106293,315.071350 505.632904,316.130188 504.450806,318.971436 
	C501.117584,326.983124 495.587799,333.697205 491.297577,341.114563 
	C488.653137,345.686554 489.666168,349.066345 489.741821,353.721344 
	C496.737610,350.904846 502.677460,347.677551 508.891083,343.410522 
z"/>
<path fill="#000000" opacity="1.000000" stroke="none" 
	d="
M605.343201,341.420593 
	C599.315430,346.758179 593.637451,351.953430 587.729126,356.871948 
	C583.303894,360.555847 577.290771,361.117401 573.914429,358.606842 
	C566.834473,353.342438 564.171997,347.462738 566.419556,341.247864 
	C573.810181,320.811798 584.083740,301.890656 596.703613,284.221954 
	C597.608582,282.954956 598.604370,281.516968 600.302063,282.381409 
	C603.006592,283.758392 605.673035,285.710419 606.127136,288.808655 
	C606.772522,293.211517 607.388428,297.998047 601.902100,300.337494 
	C601.459412,300.526276 600.857483,300.803223 600.720703,301.180847 
	C595.463684,315.692078 585.605042,327.998840 580.636963,343.305267 
	C584.547058,341.701813 586.974609,338.803986 589.679321,336.389679 
	C602.254272,325.165039 612.367249,311.574432 624.511536,299.938995 
	C629.339050,295.313782 633.465820,290.137634 637.676147,284.994598 
	C638.958252,283.428589 640.316040,280.762360 642.766113,281.768311 
	C645.657104,282.955353 648.635681,285.169128 649.028992,288.372284 
	C649.612366,293.123840 649.232239,298.006378 649.083679,302.827667 
	C649.036926,304.342957 648.137695,305.830963 646.791748,306.529419 
	C644.637878,307.647125 644.290955,309.375458 644.303284,311.497314 
	C644.308899,312.462433 644.250244,313.788971 643.654724,314.341034 
	C637.111023,320.407501 639.183716,329.339508 636.151550,336.556610 
	C635.144958,338.952515 635.191956,341.843658 632.591614,343.412720 
	C630.996643,344.375214 630.951660,346.149353 631.407288,347.428833 
	C632.916504,351.666321 633.118469,356.076996 633.166443,360.722351 
	C637.172607,360.063171 640.230469,358.389984 643.419617,357.032471 
	C647.761780,355.184143 653.583313,358.682343 654.221863,363.352844 
	C654.797485,367.562744 651.583008,368.413971 648.736145,369.111359 
	C646.189819,369.735138 643.637573,370.192078 641.090759,370.957245 
	C637.762756,371.957031 634.203674,371.758362 631.576294,368.479370 
	C629.815186,366.281555 627.459656,364.557068 625.720520,362.345245 
	C621.237122,356.643402 619.070618,350.693970 620.981201,342.946625 
	C622.869995,335.287903 624.256226,327.478058 626.628784,318.733765 
	C619.364075,326.822205 612.834717,334.339630 605.343201,341.420593 
z"/>
</svg>