<svg version="1.1" id="Layer_1" xmlns="http://www.w3.org/2000/svg" xmlns:xlink="http://www.w3.org/1999/xlink" x="0px" y="0px"
	 width="100%" viewBox="0 0 992 496" enable-background="new 0 0 992 496" xml:space="preserve">
<path fill="#000000" opacity="1.000000" stroke="none" 
	d="
M993.000000,198.535370 
	C974.728699,208.576187 956.401794,218.048141 938.197266,227.749542 
	C896.608704,249.912537 855.100830,272.226135 813.983643,295.257538 
	C802.514709,301.681763 791.184875,308.375214 779.518555,314.418823 
	C771.032104,318.815155 763.357117,324.450897 755.042236,328.774597 
	C755.005981,331.371979 756.967896,331.661621 758.295593,332.433105 
	C766.388977,337.135925 773.450134,343.104095 780.533142,349.208527 
	C789.335999,356.795258 787.958984,366.606873 779.446167,373.075684 
	C767.123779,382.439331 755.396484,392.593231 741.317383,399.610962 
	C710.115173,415.163666 679.010620,430.838898 646.663513,443.994537 
	C620.738098,454.538513 595.458862,466.641907 569.431213,476.982056 
	C551.370544,484.157104 533.203552,491.020081 514.281128,496.780762 
	C502.645782,497.000000 491.291534,497.000000 479.468658,497.000000 
	C477.512054,492.254608 480.891174,489.988129 483.890289,487.641266 
	C504.887512,471.210205 526.865967,456.126373 548.619141,440.739868 
	C585.496338,414.655701 624.932983,392.618591 663.157959,368.664246 
	C684.890564,355.045197 707.048645,342.140503 729.211243,329.242340 
	C730.906128,328.255981 732.529846,327.147278 734.158569,326.113281 
	C733.428467,323.386017 731.239746,322.996155 729.530579,322.285400 
	C705.833191,312.430664 683.254761,300.253754 660.257263,288.951050 
	C652.001831,284.893677 645.091553,278.710205 637.405029,273.735229 
	C635.197510,272.306427 633.556885,271.988251 631.051453,272.795135 
	C610.121338,279.535889 588.964539,284.827850 566.633972,283.276489 
	C556.418091,282.566772 549.771484,276.537506 544.593445,268.854034 
	C541.832458,264.757019 545.579773,260.630157 548.312927,257.859711 
	C569.362488,236.522690 592.753845,218.129242 619.571899,204.586914 
	C626.521729,201.077484 633.861450,197.461258 642.126526,197.214935 
	C645.197754,197.123383 650.248840,200.197296 650.947083,203.139816 
	C651.516296,205.538864 650.216980,206.621841 648.064148,206.773453 
	C640.279358,207.321762 633.656189,211.481720 627.170593,214.853561 
	C615.254700,221.048660 604.087708,228.721100 592.790222,236.089157 
	C584.684448,241.375565 579.138489,249.318192 571.206543,254.593201 
	C565.903381,258.119995 561.885010,263.116333 556.878784,266.966400 
	C554.936646,268.460022 557.039734,270.515045 555.142944,272.065277 
	C562.332275,275.828064 569.355957,274.963654 576.211121,274.230011 
	C589.763611,272.779602 602.892578,269.172760 616.002197,265.594635 
	C619.136475,264.739136 622.317505,263.813995 625.424500,261.721649 
	C622.603149,257.529907 618.870850,254.373962 616.697327,250.014771 
	C613.919128,244.442841 615.691895,234.434357 620.673645,230.707718 
	C635.642517,219.510223 651.981445,211.517410 670.648987,208.399582 
	C676.839294,207.365662 682.740234,205.946457 689.201904,206.529800 
	C694.679565,207.024307 698.507141,209.518051 702.308716,212.796631 
	C704.477295,214.666885 705.181641,216.948639 705.318909,219.830093 
	C705.802368,229.980438 700.829041,237.136047 692.547546,241.728668 
	C689.569092,243.380432 687.566711,245.844559 684.791626,247.554596 
	C672.058899,255.400864 658.667908,261.848236 644.778259,267.330658 
	C643.453552,267.853516 641.789551,267.989227 640.732300,270.014679 
	C645.502136,274.230316 650.847778,277.789886 656.618225,280.637665 
	C679.731812,292.044586 702.477295,304.218353 726.368225,314.016479 
	C730.188721,315.583313 733.763916,317.864471 737.221130,320.163300 
	C739.856995,321.915985 742.058411,321.639648 744.579163,320.131104 
	C776.870789,300.805542 810.091980,283.122162 842.893005,264.698761 
	C866.983582,251.167770 891.495483,238.384399 915.871765,225.365341 
	C940.393738,212.268478 964.978943,199.289841 989.543274,186.272339 
	C990.423035,185.806107 991.375732,185.477493 992.647217,185.042389 
	C993.000000,189.356903 993.000000,193.713806 993.000000,198.535370 
M647.010132,393.598724 
	C633.540894,401.874420 619.995911,410.029877 606.623901,418.459900 
	C593.417236,426.785736 579.650818,434.209686 566.992920,443.425690 
	C551.516235,454.694000 535.882324,465.746307 520.316772,476.892487 
	C516.614197,479.543823 512.913086,482.197235 509.042053,484.970947 
	C510.407257,485.883850 511.147095,485.329651 511.917938,485.108429 
	C529.348145,480.107208 546.237305,473.528961 562.893982,466.497894 
	C608.221497,447.364410 653.803528,428.777130 698.080017,407.259552 
	C715.414673,398.835205 733.114075,390.983215 748.974854,379.811920 
	C757.138794,374.061737 765.180420,368.128387 772.689270,361.520355 
	C779.036987,355.934265 779.012329,352.032440 772.148621,347.375519 
	C765.818359,343.080475 759.120789,339.330231 752.716431,335.139282 
	C749.654846,333.135803 747.099854,333.350067 744.023254,335.196930 
	C726.568420,345.674713 708.970886,355.914703 691.514771,366.390259 
	C676.814270,375.212189 662.240234,384.244904 647.010132,393.598724 
M639.181213,232.478241 
	C636.041809,235.345520 633.471680,238.989746 628.836731,239.786133 
	C627.713257,239.979156 627.275452,241.029922 627.337280,242.093567 
	C627.516479,245.171814 626.347351,247.942856 625.600342,250.833435 
	C624.739258,254.165359 627.089355,256.542419 628.929077,258.779999 
	C630.585144,260.794312 632.611328,259.105896 634.375916,258.349579 
	C642.620422,254.816086 651.023743,251.596420 659.042664,247.606201 
	C671.731873,241.291977 683.887451,234.058640 693.229980,223.037720 
	C694.699097,221.304733 696.603882,219.133514 695.183411,216.823929 
	C693.771912,214.529007 690.879395,215.090195 688.736572,215.691330 
	C681.499390,217.721680 673.846985,217.537231 666.765076,220.795746 
	C661.247803,223.334335 655.138733,224.586746 649.747192,227.650101 
	C646.596924,229.440002 643.660339,231.763885 639.181213,232.478241 
z"/>
<path fill="#000000" opacity="1.000000" stroke="none" 
	d="
M160.669769,91.654480 
	C164.899765,94.413177 165.648117,98.410042 165.460251,103.367485 
	C173.411499,100.461555 180.827820,97.718880 188.266922,95.039436 
	C201.539078,90.259018 215.019135,86.160057 228.737976,82.863235 
	C239.667007,80.236847 250.495239,76.920822 261.570435,75.257423 
	C270.582001,73.903969 279.540009,72.277077 288.476593,70.604797 
	C296.148071,69.169266 303.793884,68.094444 311.583374,67.612961 
	C316.612854,67.302071 320.159485,69.184731 322.105194,73.466896 
	C324.131836,77.927185 321.213776,80.995186 318.076447,83.749451 
	C304.273834,95.866798 290.001770,107.411934 275.221741,118.304924 
	C269.381378,122.609283 262.715759,126.430595 257.643982,131.076614 
	C243.484283,144.047653 228.094238,155.314529 212.678314,166.517471 
	C204.480347,172.475067 197.379196,179.982651 188.042633,184.458237 
	C186.067093,185.405228 184.893677,188.025497 183.088547,190.188980 
	C187.651123,191.592560 191.471100,189.163940 195.358170,188.519363 
	C213.471786,185.515747 231.606964,182.454498 249.506851,178.407318 
	C264.649261,174.983627 279.938690,173.491669 295.310455,172.163437 
	C302.753235,171.520325 310.218018,169.748337 317.596893,170.096573 
	C327.020752,170.541336 337.133026,170.271652 345.013336,176.736267 
	C351.965759,182.439697 350.794037,191.354477 343.039398,196.192474 
	C340.357971,197.865387 337.543854,199.327225 334.776520,200.860550 
	C314.825928,211.914734 295.355499,223.823364 274.637726,233.505219 
	C262.372375,239.237106 250.563614,245.941422 238.507629,252.126740 
	C210.914017,266.283600 184.010727,281.655182 157.462830,297.679230 
	C134.760422,311.382172 112.649673,325.864349 91.950195,342.531311 
	C83.872925,349.035034 76.483124,356.288330 68.314720,362.654572 
	C58.983475,369.927063 50.667282,378.273834 42.933353,387.206757 
	C40.260162,390.294373 37.394142,390.738617 34.353844,387.870667 
	C31.564224,385.239197 28.531593,383.034241 32.404728,378.450867 
	C41.069500,368.197205 51.600361,360.018829 61.447281,351.074341 
	C86.316490,328.484375 113.517410,309.014252 142.221176,291.695526 
	C167.016388,276.735046 192.048462,262.148285 217.836014,248.915405 
	C243.158585,235.921112 268.538727,223.033401 293.699585,209.731873 
	C306.789520,202.811783 319.476044,195.126175 332.307037,187.720978 
	C334.597260,186.399200 336.792725,184.848587 338.101135,181.974274 
	C332.518799,179.987839 326.881683,178.381775 321.132782,179.717957 
	C314.203674,181.328445 307.258453,181.285828 300.273010,181.220428 
	C289.615936,181.120682 279.249725,183.886734 268.717987,184.947372 
	C260.695404,185.755280 252.395248,188.826508 244.182220,190.645218 
	C235.125626,192.650742 225.945999,194.073944 216.681610,195.100189 
	C209.498550,195.895859 202.560532,198.471130 195.376526,199.744339 
	C187.238693,201.186584 179.097687,200.997208 170.986267,200.348862 
	C167.093918,200.037750 164.802185,196.566101 163.222244,193.265839 
	C161.855911,190.411774 164.397720,188.689041 166.155777,186.988068 
	C178.172195,175.361786 192.147354,166.207733 205.296997,156.008163 
	C236.616745,131.714859 267.867676,107.332878 299.145142,82.985031 
	C300.181793,82.178062 301.289215,81.426559 301.846649,79.647110 
	C295.403900,79.481827 289.489624,81.707420 283.428528,82.647064 
	C266.058044,85.340004 249.029999,89.736450 231.888992,93.586716 
	C223.633347,95.441116 215.994415,98.747322 207.903412,100.860413 
	C191.554413,105.130211 176.277802,112.365044 160.868973,119.125992 
	C157.689880,120.520889 154.669785,122.538269 154.147079,127.382195 
	C153.734268,131.207703 150.634918,134.792267 148.548019,138.378708 
	C142.927902,148.037125 138.566971,158.319611 133.581955,168.291946 
	C132.255325,170.945816 131.534882,173.942383 128.654678,175.595612 
	C128.066864,175.933014 127.682098,176.946350 127.550041,177.708099 
	C124.688881,194.212158 116.527977,208.682281 108.922371,223.135544 
	C105.037842,230.517471 103.820305,238.465637 100.526100,245.884323 
	C93.995476,260.591614 89.249763,276.117432 82.317474,290.612000 
	C77.014755,301.699310 77.166878,314.390808 70.698135,324.904327 
	C68.056335,329.197998 65.882820,333.556335 65.361908,338.759003 
	C64.853088,343.840942 59.962070,346.712372 58.077374,351.207703 
	C57.887619,351.660278 57.013233,352.069977 56.448219,352.081268 
	C52.925648,352.151642 51.454655,349.141449 49.365391,347.120331 
	C47.830555,345.635590 48.105457,344.011017 49.123611,342.149261 
	C56.491707,328.676300 61.755676,314.265076 66.246071,299.695740 
	C71.795677,281.689728 79.980927,264.748688 86.103539,247.012497 
	C95.450386,219.936249 108.998199,194.649307 119.378227,168.003555 
	C123.830048,156.575668 130.089737,145.852097 135.526581,134.807831 
	C136.324753,133.186417 137.115005,131.561127 138.086166,129.575195 
	C134.352356,128.694229 131.473373,126.927200 129.207870,124.174515 
	C127.581650,122.198563 127.527016,120.589272 130.012527,119.406769 
	C132.861206,118.051468 135.628525,116.352852 138.630188,115.524147 
	C147.154755,113.170647 151.225754,106.958809 153.808731,99.188522 
	C154.541397,96.984428 155.565430,94.875816 156.482132,92.734673 
	C157.290817,90.845825 158.521881,90.152138 160.669769,91.654480 
z"/>
<path fill="#000000" opacity="1.000000" stroke="none" 
	d="
M518.537415,267.535309 
	C515.292114,272.811920 510.333008,275.840363 505.952118,279.291443 
	C496.616455,286.645782 487.244354,294.081665 476.875519,299.926300 
	C467.791718,305.046570 458.799530,310.521637 448.627625,313.445770 
	C446.707153,313.997833 445.328156,315.511292 443.465729,316.327271 
	C430.621521,321.954437 417.189423,321.311432 403.700836,320.571289 
	C401.199829,320.434113 399.293945,319.494354 397.533020,317.792969 
	C390.845215,311.331177 383.337585,305.363861 384.742432,294.462738 
	C385.482147,288.723206 386.665253,283.330688 389.310364,277.901306 
	C396.650665,262.834564 407.153778,250.333359 418.606262,238.432693 
	C419.504913,237.498871 420.276428,236.442673 421.059509,235.500534 
	C415.461639,227.375092 415.575531,227.495865 422.933380,220.556900 
	C437.647827,206.680130 455.543274,198.702713 474.140625,191.588394 
	C485.413971,187.275787 497.069458,184.625122 508.777252,183.482086 
	C515.079468,182.866806 522.253784,183.778702 528.835571,185.750549 
	C537.548218,188.360794 543.513245,194.548126 549.394104,200.925873 
	C551.409058,203.111008 552.258118,205.563583 552.298767,208.607635 
	C552.419250,217.630356 552.577881,226.407913 546.746155,234.323746 
	C538.933838,244.928009 531.353821,255.685196 522.123657,265.136658 
	C521.224731,266.057190 519.917419,266.579041 518.537415,267.535309 
M522.279236,244.778564 
	C529.962585,235.939102 536.679138,226.452637 541.573730,215.763000 
	C546.960144,203.999115 543.102539,195.835556 529.579956,194.067139 
	C521.004761,192.945709 512.693298,194.174622 504.243591,194.491959 
	C495.552551,194.818329 489.141235,200.453186 480.167450,202.142929 
	C485.160004,206.930969 481.885529,208.274231 478.570465,210.296494 
	C470.257202,215.367783 460.821198,217.943558 452.968994,224.417831 
	C440.081909,235.043488 428.455994,246.694458 417.651001,259.323212 
	C412.985962,264.775635 408.341675,270.184509 405.367798,276.800476 
	C404.813049,278.034546 403.721222,278.864624 402.945374,279.896423 
	C399.707611,284.202423 398.743958,289.893799 394.649048,293.742218 
	C394.327026,294.044830 394.390259,295.176880 394.694092,295.658905 
	C396.918091,299.187073 396.119507,303.097137 396.109741,306.856750 
	C396.100159,310.528442 397.747345,311.548950 401.253906,311.882812 
	C414.914978,313.183533 427.734039,310.124664 440.027771,304.657745 
	C471.470459,290.675598 499.282379,271.611115 522.279236,244.778564 
z"/>
<path fill="#000000" opacity="1.000000" stroke="none" 
	d="
M468.754395,80.871155 
	C464.782288,82.033905 465.475952,85.903481 463.778717,88.185555 
	C459.307617,94.197304 454.936859,100.288895 450.693695,106.463829 
	C442.962067,117.715424 435.578156,129.212250 427.640137,140.314301 
	C414.000854,159.389984 400.515564,178.566711 387.148865,197.834656 
	C381.540619,205.918869 376.502350,214.392563 370.449707,222.194321 
	C361.077057,234.275467 354.148529,247.977112 345.665497,260.649078 
	C338.242065,271.738159 332.039612,283.518280 325.163696,294.900208 
	C320.736389,302.228882 319.436066,311.116119 313.661713,317.467468 
	C309.463257,322.085449 308.237640,327.898804 305.418518,333.050964 
	C298.925232,331.194214 296.268555,326.014923 298.623199,319.300751 
	C301.999268,309.674042 307.660217,301.161346 312.268280,292.144714 
	C329.419403,258.584961 350.876373,227.701096 371.866364,196.493164 
	C392.217621,166.235001 414.188324,137.126465 434.265564,106.669243 
	C446.714874,87.783585 460.425354,69.714973 472.847321,50.774006 
	C476.327698,45.467083 479.063477,39.760036 482.333191,34.356873 
	C483.584625,32.288876 484.563812,28.530609 487.876038,29.713329 
	C491.168976,30.889181 493.625702,33.714993 493.687408,37.688705 
	C493.775909,43.388073 490.572876,47.955235 487.490143,52.116604 
	C482.701691,58.580479 479.648987,66.073799 474.628937,72.354980 
	C472.557312,74.947075 470.875336,77.850594 468.754395,80.871155 
z"/>
</svg>