<svg version="1.1" id="Layer_1" xmlns="http://www.w3.org/2000/svg" xmlns:xlink="http://www.w3.org/1999/xlink" x="0px" y="0px"
	 width="100%" viewBox="0 0 1024 288" enable-background="new 0 0 1024 288" xml:space="preserve">
<path fill="#000000" opacity="1.000000" stroke="none" 
	d="
M1025.000000,35.571537 
	C1011.285828,42.008160 998.178528,49.241844 984.784485,55.896729 
	C972.556152,61.972424 959.980042,67.365448 947.796814,73.470070 
	C937.277100,78.741165 927.490967,85.564644 916.909363,90.837936 
	C901.551147,98.491592 886.954712,107.494637 871.944031,115.760460 
	C871.246948,116.144333 870.345764,116.377266 870.142273,117.828171 
	C874.677368,121.354836 879.549072,124.718338 884.817017,127.580627 
	C891.369507,131.140884 896.768616,135.495163 895.463013,144.280167 
	C895.081116,146.849884 894.545959,148.951096 892.721558,150.957977 
	C885.332397,159.086121 875.718994,163.694397 866.017700,168.128998 
	C849.061890,175.879761 831.953369,183.309189 813.700012,187.517548 
	C801.768494,190.268372 789.746887,192.638504 777.732666,195.011871 
	C775.316223,195.489227 772.748901,195.173004 770.254517,195.291748 
	C765.697693,195.508713 762.455566,193.076843 760.484863,189.465820 
	C758.714783,186.222412 761.266663,183.442505 763.102417,180.947357 
	C771.123657,170.044952 781.919678,162.212982 792.724121,154.389145 
	C811.242737,140.979263 831.017090,129.581787 850.718262,118.063644 
	C851.418152,117.654480 852.073242,117.168671 853.151123,116.451004 
	C849.486755,113.790413 845.522278,112.667961 841.795715,111.079361 
	C836.458069,108.803940 830.843994,107.340614 825.791870,104.174538 
	C821.830139,101.691849 817.411499,104.214989 813.392761,105.447990 
	C806.114136,107.681190 799.253174,111.488358 791.302429,111.027428 
	C789.980713,110.950806 788.130798,111.235123 787.435974,110.496094 
	C782.467468,105.211624 778.597473,109.613174 775.029114,112.098450 
	C768.514099,116.636040 761.304016,119.499298 753.994690,122.260124 
	C752.094055,122.978012 750.095398,123.143349 748.081543,122.942200 
	C745.295105,122.663872 743.506287,120.897217 742.453674,118.544189 
	C741.437317,116.272377 743.755371,115.466614 744.880127,114.149544 
	C745.617798,113.285706 746.227722,112.312752 747.494934,110.557487 
	C743.859253,111.531410 740.859863,111.807114 738.404053,113.108505 
	C734.007751,115.438141 729.593384,115.942413 724.895813,114.799316 
	C722.834839,114.297821 721.301392,115.438339 719.801392,116.354668 
	C715.838684,118.775436 711.374939,119.470039 706.967590,120.138435 
	C700.508728,121.117981 698.624573,119.678955 694.957031,111.699684 
	C688.267151,115.437538 680.542542,116.223793 673.564758,119.258041 
	C667.403687,121.937187 660.786255,122.908096 654.349670,124.531914 
	C652.491760,125.000648 650.333923,124.789703 648.412048,124.402130 
	C642.218750,123.153191 640.469849,118.783539 643.840576,113.602264 
	C645.767944,110.639748 648.012817,108.002831 650.790161,105.808662 
	C660.469666,98.161774 668.744263,88.902306 678.647705,81.508430 
	C679.127747,81.150009 679.440918,80.568077 680.507324,79.264351 
	C674.324890,81.139984 668.961792,82.052284 664.015076,84.509354 
	C655.534241,88.721901 647.161011,93.225044 638.414429,96.804199 
	C631.964844,99.443398 628.931885,104.827286 626.644165,110.257500 
	C619.741577,126.642014 610.532593,141.470322 599.354492,155.215179 
	C594.747925,160.879578 590.696716,166.992371 586.296631,172.828674 
	C580.368652,180.691666 573.605774,187.750183 565.234985,193.033264 
	C563.113708,194.372070 562.164246,196.467178 560.695923,198.178162 
	C551.234863,209.203049 538.252686,214.395767 525.569214,220.292969 
	C518.114624,223.758987 510.586121,224.825821 502.466553,225.120178 
	C493.385345,225.449371 483.212158,214.542053 485.083771,204.342987 
	C485.770691,200.599579 486.847351,196.947647 488.834106,193.561111 
	C498.525696,177.041367 511.827789,163.933609 526.915100,152.388107 
	C550.006042,134.717896 574.485657,119.355042 600.573975,106.470352 
	C607.149719,103.222641 613.739807,100.071114 620.523193,97.329926 
	C624.541199,95.706223 626.851074,93.116951 628.068604,88.825417 
	C632.557922,73.001205 636.153931,57.225269 631.958679,40.667904 
	C629.540283,31.123226 623.605835,25.855957 613.722473,25.319731 
	C604.488342,24.818729 595.617859,26.970921 586.638611,28.639362 
	C567.846008,32.131210 551.930542,42.436440 534.903870,50.080235 
	C527.368713,53.463017 519.961182,57.285984 513.266724,62.219929 
	C510.797760,64.039581 509.679932,62.325722 508.261688,60.995998 
	C506.651031,59.485886 506.417114,57.878819 508.133972,56.278286 
	C510.597137,53.982098 513.565613,52.452961 516.471313,50.821861 
	C528.397522,44.127102 541.088684,38.978508 553.208923,32.698112 
	C569.021484,24.504410 586.018433,20.791548 603.467285,19.166475 
	C622.649963,17.379917 639.420166,33.072041 639.319214,52.348026 
	C639.263000,63.096924 640.922546,74.028397 636.911011,84.524506 
	C636.533691,85.511719 636.970764,86.810181 637.054321,88.445862 
	C641.853638,87.446976 645.673340,84.774574 649.787537,82.850990 
	C663.496948,76.441284 677.375061,70.507515 692.266296,67.335052 
	C695.879822,66.565224 699.294373,65.606827 701.712219,62.318584 
	C703.073608,60.467014 704.909363,59.589310 707.800781,60.547913 
	C710.489075,61.439171 713.715393,60.871418 716.689697,60.693310 
	C720.141296,60.486618 722.340637,62.008759 724.065002,65.328819 
	C719.882690,69.010422 714.433716,68.609390 709.724426,70.039070 
	C707.305969,70.773285 704.989014,71.352257 702.991089,72.920174 
	C693.071594,80.704765 682.651855,87.944901 673.399841,96.454842 
	C667.054260,102.291451 660.604858,108.026176 654.257568,113.866982 
	C653.204468,114.836021 652.188354,115.978806 651.909607,117.939247 
	C670.563049,113.283417 688.761108,107.984627 704.263977,96.459320 
	C709.122375,92.847443 712.818848,87.678001 717.648926,83.835693 
	C725.639648,77.479057 734.284241,72.228676 743.696167,68.267654 
	C745.540833,67.491356 747.490784,66.973900 749.536987,67.124405 
	C755.105835,67.533997 757.614868,72.424637 754.695496,77.200180 
	C760.639221,72.470665 767.337341,69.548714 774.712708,67.897484 
	C778.378235,67.076820 781.981262,66.753258 785.593933,67.312393 
	C788.560730,67.771591 791.297791,69.713547 791.267944,72.734917 
	C791.240051,75.566277 788.312561,76.481941 785.645020,76.369217 
	C783.635193,76.284279 782.267029,77.664391 780.538513,78.135040 
	C764.725342,82.440628 750.822327,90.075928 739.151001,101.667938 
	C737.640503,103.168182 735.956177,104.493431 734.667358,106.666794 
	C737.166199,105.676674 739.842224,104.988647 742.133606,103.644814 
	C752.754211,97.416092 763.323181,91.094055 773.779846,84.594948 
	C776.265442,83.050087 778.298157,81.432518 780.370972,84.748871 
	C782.161987,87.614365 782.054749,90.033119 779.233215,92.575920 
	C773.600159,97.652344 768.314392,103.114082 763.581604,109.215492 
	C765.130371,108.352333 766.797241,107.648529 768.209534,106.601311 
	C781.686951,96.607658 796.962402,89.916069 811.888977,82.561302 
	C814.386780,81.330574 815.959167,81.714272 817.448425,83.721809 
	C818.516113,85.161057 819.492065,86.668312 820.656067,88.358940 
	C829.210388,84.505051 838.598206,84.211449 847.805359,83.008850 
	C849.941833,82.729790 852.214050,82.714577 854.154907,83.860535 
	C856.156677,85.042511 858.278809,86.385284 858.135742,89.127518 
	C857.997864,91.770836 855.475159,91.189400 853.919739,91.782166 
	C846.033142,94.787697 838.110535,97.698692 828.860596,101.141556 
	C836.188049,104.240623 842.587036,106.376923 848.418396,109.554886 
	C856.030396,113.703316 862.277405,112.543777 869.519531,108.064186 
	C892.899475,93.602570 917.468689,81.176193 941.618408,68.081894 
	C960.314819,57.944439 980.012573,49.559128 999.002563,39.853966 
	C1005.376221,36.596558 1011.522278,32.890869 1018.203003,30.236282 
	C1020.225403,29.432684 1022.133850,28.254974 1024.658081,29.854027 
	C1025.000000,31.714357 1025.000000,33.428715 1025.000000,35.571537 
M520.140564,168.593430 
	C511.880981,175.870667 504.850037,184.202560 498.746826,193.350098 
	C495.179352,198.697006 491.598206,203.726135 491.809723,210.871887 
	C492.013977,217.771408 492.333679,218.956924 499.253662,219.081726 
	C516.336975,219.389893 530.424744,210.856277 543.625977,201.962845 
	C553.403198,195.376099 562.177002,186.670380 570.232910,177.918869 
	C589.099243,157.423386 605.930908,135.287933 617.988342,109.914001 
	C618.448853,108.944771 619.433838,107.979485 618.364441,106.499557 
	C583.118591,122.811241 550.354370,143.042130 520.140564,168.593430 
M866.553101,121.124390 
	C864.523804,119.862465 862.814392,120.928253 860.933533,121.701324 
	C855.517395,123.927383 850.797119,127.334114 845.822998,130.308014 
	C830.438965,139.505783 814.991394,148.578293 800.331543,158.957275 
	C788.265991,167.499512 776.731384,176.492188 767.783997,188.397141 
	C768.907104,189.961853 770.195923,189.290741 771.503723,189.177185 
	C778.662781,188.555466 785.446106,186.075836 792.464661,184.919540 
	C822.438049,179.981461 849.880432,168.321747 876.158020,153.648941 
	C881.285522,150.785873 886.538757,147.417755 889.047302,141.539536 
	C890.348511,138.490326 891.056519,135.152664 887.430481,133.214340 
	C880.541870,129.531967 874.741333,124.004181 866.553101,121.124390 
M728.429077,94.483536 
	C728.325745,94.253029 728.249695,94.001709 728.100769,93.805847 
	C728.060913,93.753387 727.783691,93.841202 727.640137,93.913643 
	C722.599792,96.457214 717.371826,98.697334 712.582703,101.649338 
	C708.460144,104.190498 705.455139,107.917336 705.052307,113.682526 
	C711.119080,112.227463 716.168579,110.067352 719.842896,105.425156 
	C722.621521,101.914574 725.336121,98.353310 728.429077,94.483536 
M809.880859,94.678940 
	C807.115540,96.437706 804.264282,98.093521 801.803772,101.533638 
	C806.787292,99.905540 811.052856,98.512009 815.323547,97.116783 
	C814.350098,94.294884 813.489441,92.061119 809.880859,94.678940 
z"/>
<path fill="#000000" opacity="1.000000" stroke="none" 
	d="
M141.712677,67.649559 
	C129.442108,70.991394 117.350044,73.643555 106.565987,79.891510 
	C95.609154,86.239555 83.652702,90.937103 73.996201,99.448570 
	C72.358513,100.892059 70.934471,100.197845 69.574730,99.047020 
	C68.130119,97.824371 66.772217,96.535767 68.005486,94.389839 
	C68.935005,92.772446 70.174652,91.505142 71.766541,90.478714 
	C94.631287,75.735725 118.628960,63.547043 146.041580,60.278904 
	C159.495071,58.674976 173.459045,58.860580 185.424683,65.911606 
	C193.586151,70.720932 200.734039,77.851532 204.462692,87.121124 
	C208.179459,96.361160 211.797546,105.679482 213.737137,116.003830 
	C222.380615,113.497574 230.717896,110.924141 239.141861,108.675407 
	C250.712662,105.586632 262.316193,102.604965 273.968536,99.842377 
	C282.322388,97.861809 288.971863,91.949234 297.401855,90.167732 
	C301.588928,89.282875 305.281769,86.743889 309.820953,86.707603 
	C313.645203,86.677055 317.107788,87.446228 318.746185,90.906937 
	C320.354675,94.304543 317.507172,96.903397 315.459747,99.170647 
	C310.712250,104.427910 304.856995,108.496803 300.303986,114.093758 
	C294.978790,120.639969 291.892242,128.620377 286.007019,134.809113 
	C284.381104,136.518875 284.666443,140.160431 284.331390,142.946472 
	C284.074585,145.081879 285.541962,145.822998 287.468628,145.903900 
	C290.469971,146.029907 293.490509,146.214096 296.386292,145.233261 
	C307.161774,141.583572 317.587524,137.168823 326.578644,130.028580 
	C335.679688,122.801010 345.244415,116.133675 354.025177,107.841171 
	C349.635040,105.347687 345.111969,103.675865 341.848480,99.926819 
	C338.978119,96.629387 338.837128,94.132957 342.181824,91.034203 
	C345.690460,87.783600 350.124908,86.827057 354.315369,85.475533 
	C361.721985,83.086700 369.108215,80.471550 376.913818,79.520264 
	C380.958130,79.027382 384.487152,80.071838 385.943787,84.036530 
	C387.450226,88.136635 384.872070,91.388733 382.157104,94.079063 
	C378.810577,97.395317 375.130859,100.375381 370.989502,104.036087 
	C376.582214,104.649834 381.325867,105.181488 386.072388,105.685760 
	C387.936432,105.883804 388.712036,104.712135 389.242035,103.152222 
	C394.071930,88.936981 405.092102,80.447708 417.509308,73.672340 
	C424.868866,69.656654 431.876495,75.135414 430.978638,84.054802 
	C434.571838,82.172066 437.899719,80.392128 441.259613,78.674873 
	C450.264252,74.072556 453.447144,75.361618 456.947754,85.247787 
	C461.903015,84.412140 466.806213,82.793770 471.979523,82.928108 
	C486.387451,83.302269 486.876526,91.145462 484.660431,101.790024 
	C482.973328,109.893822 478.314178,116.801323 473.317627,123.312172 
	C471.324127,125.909866 472.527771,129.270203 470.716156,131.766190 
	C469.680054,133.193741 469.656891,136.437363 466.803223,135.022217 
	C464.491058,133.875626 462.111481,131.904037 463.258972,128.677658 
	C464.760681,124.455353 466.043640,120.011871 468.381409,116.262573 
	C472.288666,109.996178 474.428345,102.922165 478.165497,96.599495 
	C479.261414,94.745392 480.016266,92.346191 479.349792,90.007492 
	C472.124573,87.031303 465.864319,91.515907 459.227692,91.794388 
	C446.581146,92.325058 438.518860,101.610352 428.711914,107.546722 
	C422.977692,111.017754 417.233612,114.383026 410.276886,114.426468 
	C404.753876,114.460960 402.094604,118.926651 399.414001,122.279152 
	C391.716461,131.906082 380.917816,136.543060 370.491058,141.875046 
	C365.189972,144.585907 359.477020,146.586151 354.457184,149.719711 
	C351.009033,151.872177 347.366364,152.378830 343.698486,153.223068 
	C340.520538,153.954529 338.156097,152.416840 336.601227,149.757812 
	C335.003296,147.025177 337.251892,145.300766 338.792023,143.775452 
	C349.860779,132.812973 362.634003,124.055557 375.652954,115.629494 
	C377.428741,114.480171 379.500946,113.698212 380.741425,111.787933 
	C374.045349,108.294907 364.775635,109.525017 359.579773,114.223160 
	C349.472229,123.362564 338.778900,131.906570 327.404816,139.285675 
	C316.624207,146.279785 305.047089,152.181519 291.274628,151.478104 
	C280.679565,150.936981 275.028992,143.500702 278.345673,133.339539 
	C278.643555,132.427002 279.028564,131.542923 279.608887,130.031509 
	C268.403381,137.645966 257.837860,145.018677 246.020218,150.303802 
	C241.315643,152.407791 236.720581,154.676910 231.564758,155.671173 
	C224.947754,156.947189 221.194702,155.632172 217.241440,150.341644 
	C215.195618,147.603775 216.416687,145.300476 217.788208,142.989502 
	C222.275253,135.428970 228.274338,129.276489 235.425705,124.194862 
	C239.721283,121.142502 243.861603,117.890770 248.029190,113.586868 
	C237.362991,116.680023 227.119431,118.780663 217.573105,123.207916 
	C215.585739,124.129585 214.195633,124.981071 214.116409,127.441719 
	C214.020493,130.420792 213.396317,133.381332 213.271103,136.361252 
	C212.761642,148.487259 210.226501,159.966553 205.890121,171.475739 
	C201.751236,182.460693 197.170898,192.959259 190.057480,202.171692 
	C180.326874,214.773605 169.841034,226.718262 157.380219,236.814865 
	C154.050995,239.512421 151.356293,243.015671 148.482697,246.248962 
	C137.048294,259.114594 121.384033,265.187592 106.368584,272.154938 
	C100.842613,274.719055 94.596375,275.651245 88.328842,275.429840 
	C82.621933,275.228210 76.211784,269.780487 74.592697,264.226868 
	C71.985222,255.282990 74.970345,247.114380 77.713219,238.942734 
	C83.328842,222.212448 94.453659,209.134811 106.561768,196.866760 
	C122.151169,181.071411 139.482315,167.304916 156.942719,153.627472 
	C171.425369,142.282639 187.506073,133.453598 202.438705,122.853546 
	C206.124176,120.237381 207.882309,118.232681 207.112732,113.313995 
	C205.312347,101.806931 201.432037,90.978378 196.579529,80.637367 
	C191.442154,69.689240 180.572037,67.626251 169.715851,66.296288 
	C160.427933,65.158440 151.229324,65.249733 141.712677,67.649559 
M186.148056,193.639847 
	C198.782867,174.395828 205.580826,153.231674 207.852432,129.084686 
	C195.910172,136.853088 184.867050,143.515472 174.390137,150.973251 
	C158.450272,162.319702 142.814926,174.194183 128.324432,187.297943 
	C119.290474,195.467377 110.238091,203.879181 102.575096,213.514160 
	C99.273003,217.666000 95.399857,221.589920 92.793419,226.022446 
	C86.604668,236.547058 82.041420,247.894089 79.673103,260.032166 
	C78.469238,266.202179 82.047203,270.206329 88.196098,269.382416 
	C103.005989,267.398102 115.276146,259.459778 127.912178,252.500931 
	C137.849426,247.028351 144.092865,237.235123 152.573624,230.076447 
	C165.149994,219.460663 175.564117,206.988022 186.148056,193.639847 
M245.627441,126.097427 
	C242.356186,129.673218 238.295349,132.299759 234.586014,135.351807 
	C229.782501,139.304153 226.436249,144.346313 223.268723,150.892395 
	C255.681702,141.553146 278.044189,119.505203 301.686554,99.300453 
	C298.552124,99.659637 295.712708,100.505730 292.943024,101.538757 
	C276.394318,107.711052 260.458008,115.083237 245.627441,126.097427 
M376.707336,86.999344 
	C366.105469,89.329155 354.973724,90.420403 345.713715,99.706680 
	C351.475555,101.196480 355.681030,104.617752 360.220825,101.705925 
	C366.344574,97.778175 371.844482,92.946266 376.707336,86.999344 
M388.044708,122.557190 
	C390.739685,120.232063 393.489471,117.944702 394.438995,113.380531 
	C381.161957,120.660759 370.010376,129.600723 358.408752,137.896576 
	C369.235992,135.023193 378.438354,129.174469 388.044708,122.557190 
M411.555847,102.155022 
	C408.173645,103.949562 405.407654,106.509926 402.272736,109.111145 
	C410.606476,109.407593 416.645874,105.226616 423.189911,101.468079 
	C418.969025,98.342834 415.377747,97.342651 411.555847,102.155022 
M408.010803,94.478851 
	C419.432281,85.012245 420.615234,83.752686 422.020935,78.905121 
	C414.896057,85.458214 406.871033,89.799858 402.516327,98.168663 
	C404.162292,97.080772 405.808258,95.992874 408.010803,94.478851 
z"/>
</svg>