<svg version="1.1" id="Layer_1" xmlns="http://www.w3.org/2000/svg" xmlns:xlink="http://www.w3.org/1999/xlink" x="0px" y="0px"
	 width="100%" viewBox="0 0 1024 320" enable-background="new 0 0 1024 320" xml:space="preserve">
<path fill="#000000" opacity="1.000000" stroke="none" 
	d="
M989.328125,213.350159 
	C975.695801,217.734634 962.474426,222.091263 948.864441,226.575943 
	C949.261475,230.527634 951.216553,234.190079 953.191284,237.768692 
	C957.799500,246.119766 957.657837,255.232880 954.658569,263.420502 
	C952.357361,269.702423 946.164368,274.310211 939.748474,277.226807 
	C923.459473,284.631470 906.419678,289.522156 888.462219,290.194458 
	C879.687805,290.523041 870.831848,291.086639 862.076050,289.334015 
	C858.096252,288.537384 854.341064,287.196930 851.149170,284.754456 
	C846.630798,281.296936 846.037109,277.805847 849.264832,273.095978 
	C855.616272,263.828094 864.434753,257.206848 873.971252,251.669434 
	C894.159607,239.946976 914.821106,229.161926 937.294373,222.327713 
	C938.229492,222.043350 939.092468,221.521545 940.445251,220.901077 
	C938.656372,215.501389 937.011292,210.170990 935.101257,204.937286 
	C934.252991,202.613113 932.391052,203.793854 930.853455,204.294220 
	C921.107483,207.465820 911.117920,208.998703 900.879028,208.312485 
	C895.463684,207.949570 890.445435,206.109543 886.331055,202.467255 
	C880.828064,197.595840 879.996216,192.119293 885.009644,186.745438 
	C893.896362,177.219772 904.323486,169.964737 917.918579,168.857178 
	C922.057434,168.520004 926.146851,167.569489 930.349365,167.986053 
	C935.019897,168.449005 938.897095,170.122299 941.578796,174.467331 
	C940.810852,174.920013 940.350281,175.421616 940.039185,175.341644 
	C928.865234,172.468582 918.073608,174.372849 908.219666,179.528122 
	C901.185486,183.208206 894.387817,187.816040 889.390686,194.377609 
	C887.567566,196.771378 889.296570,200.397064 892.783997,201.581924 
	C900.250671,204.118759 907.664185,202.109894 914.970154,200.939529 
	C920.178650,200.105179 925.177368,197.984283 930.286072,196.493622 
	C932.931885,195.721603 933.987122,194.020950 933.950745,191.304886 
	C933.926514,189.496582 934.125244,187.635361 934.559387,185.880783 
	C935.616516,181.608566 939.690857,178.283234 942.541809,179.157471 
	C946.670776,180.423645 949.965271,186.206512 948.733704,190.202255 
	C947.759888,193.361954 946.902100,196.472046 943.462769,198.252853 
	C940.916931,199.571045 940.918030,202.537735 941.402771,204.987213 
	C942.207581,209.054520 943.404358,213.048248 944.529236,217.046783 
	C945.261047,219.648590 947.184326,219.093231 948.972961,218.451630 
	C965.915222,212.374451 983.299438,207.760712 1000.600098,202.875549 
	C1004.913574,201.657562 1009.315369,200.754242 1013.668640,199.674301 
	C1016.810669,198.894821 1019.229797,200.185791 1019.938354,203.050079 
	C1020.728760,206.245407 1017.612854,206.194901 1015.647522,206.513062 
	C1006.784790,207.947830 998.694946,212.283157 989.328125,213.350159 
M948.506653,238.974045 
	C947.473633,236.520294 946.453247,234.061111 945.403931,231.614365 
	C944.499084,229.504730 943.107666,228.462509 940.685059,229.310486 
	C933.318542,231.888962 925.594543,233.715561 918.625244,237.101761 
	C905.505554,243.476273 892.668701,250.478119 879.994690,257.710693 
	C869.609558,263.637146 860.420410,271.134918 853.713013,281.681458 
	C858.037354,284.152893 862.721375,284.399963 867.283875,284.638855 
	C879.809448,285.294617 892.439880,284.520538 904.426819,281.303894 
	C918.716431,277.469330 933.732117,274.512878 944.556091,262.612488 
	C950.538818,256.034851 952.403442,248.110062 948.506653,238.974045 
z"/>
<path fill="#000000" opacity="1.000000" stroke="none" 
	d="
M223.919800,178.736176 
	C220.014603,184.355316 217.503128,190.405838 213.326782,195.461990 
	C211.624054,197.523422 213.101486,200.464355 212.455536,203.266113 
	C213.531555,203.199585 214.251404,203.354492 214.758453,203.094452 
	C226.282181,197.184677 237.753952,191.530045 247.735001,182.731155 
	C263.674652,168.679413 278.029938,153.257568 291.924286,137.294907 
	C293.472412,135.516296 295.102356,132.290894 298.421875,134.495682 
	C301.720734,136.686737 302.249390,139.920197 300.415680,143.272293 
	C292.795837,157.201874 287.225311,172.158936 279.053040,185.804306 
	C276.305298,190.392212 274.905487,195.423065 273.326752,200.920227 
	C276.215637,199.709015 277.018463,197.410294 278.394531,195.602875 
	C279.555389,194.078094 279.922394,190.838181 282.996857,192.561920 
	C285.540161,193.987854 286.717529,196.425613 285.792145,199.384796 
	C284.593506,203.217819 281.465637,205.618423 278.606110,208.063370 
	C276.610107,209.769958 274.086548,210.863983 271.783813,212.206238 
	C269.192047,213.717010 266.832062,213.687469 264.539154,211.439758 
	C262.251373,209.197037 261.780548,207.009613 262.896759,203.834488 
	C267.649628,190.314651 273.160248,177.156784 280.325226,164.590103 
	C272.762543,172.269226 264.300293,178.784744 256.529633,186.061005 
	C248.240219,193.822998 239.612473,200.679947 228.693726,204.869476 
	C223.624252,206.814651 219.241333,209.941528 213.412216,209.372528 
	C207.496399,208.795074 203.241302,203.065384 204.979767,197.400681 
	C209.441513,182.862473 217.652557,170.673477 228.934570,160.644348 
	C237.896500,152.677673 247.209976,145.108444 257.642792,139.043777 
	C269.672211,132.050995 282.285431,126.675880 296.145905,124.577629 
	C297.924133,124.308426 297.915009,124.248192 299.975220,121.604324 
	C304.250458,125.246910 311.981323,123.350838 314.321442,130.570435 
	C312.053528,131.715790 310.247070,130.142303 308.287628,130.209961 
	C302.847961,130.397827 297.616577,130.622940 292.209229,132.405411 
	C277.221954,137.345779 263.570038,144.434692 250.809036,153.704391 
	C241.514252,160.456161 233.790085,168.876205 225.013382,176.145523 
	C224.458725,176.604904 224.378250,177.636795 223.919800,178.736176 
z"/>
<path fill="#000000" opacity="1.000000" stroke="none" 
	d="
M315.893707,246.327286 
	C314.050140,244.519638 314.414062,243.418945 316.174713,242.114746 
	C328.743805,232.804230 340.263947,222.138947 353.288727,213.409653 
	C366.889679,204.294189 378.244781,192.436310 391.044312,182.336670 
	C392.968475,180.818344 394.530182,178.812103 395.229218,175.720886 
	C386.086761,173.569809 376.848267,172.915970 367.646149,172.191635 
	C357.101379,171.361649 346.954590,169.102966 337.211639,164.960678 
	C332.935852,163.142776 329.710449,160.077438 326.749542,156.666092 
	C324.134064,153.652649 324.537903,150.896912 327.828003,148.692612 
	C330.589844,146.842255 333.350861,144.946701 336.290924,143.413910 
	C350.028564,136.251892 362.909821,127.638138 376.355499,119.988861 
	C378.927063,118.525879 381.850952,117.628609 384.687195,116.698868 
	C387.801392,115.678009 389.421417,117.998344 390.481354,120.187767 
	C391.410706,122.107361 389.618134,123.369774 388.005707,123.800049 
	C377.973969,126.476990 370.613007,133.845093 361.763367,138.589493 
	C354.169891,142.660461 346.762848,147.077820 339.209778,151.226181 
	C336.440460,152.747147 333.737640,154.195908 332.465210,157.585281 
	C336.322754,160.699600 340.925812,161.557465 345.352661,162.804062 
	C357.299561,166.168304 369.756897,165.828400 381.898773,167.791794 
	C386.493530,168.534775 391.097992,169.221924 395.706482,169.874725 
	C402.675629,170.861923 405.593140,176.659851 401.835052,182.582291 
	C399.248749,186.658051 395.777161,190.043640 391.913788,192.941772 
	C381.587280,200.688324 372.847778,210.373093 362.104187,217.577103 
	C348.844360,226.468353 336.837219,236.950790 324.333466,246.801224 
	C321.362366,249.141861 318.790161,249.688126 315.893707,246.327286 
z"/>
<path fill="#000000" opacity="1.000000" stroke="none" 
	d="
M90.470413,221.578888 
	C105.292946,225.800522 119.376091,226.604691 132.428986,217.337708 
	C134.214340,216.070175 135.728500,214.653015 137.054642,212.874268 
	C154.594009,189.348557 163.454636,162.626572 167.986145,133.854050 
	C170.521072,117.758652 168.873886,102.848717 162.842773,88.001007 
	C161.575653,84.881584 157.914581,83.537254 157.245026,78.587784 
	C163.050644,82.540520 167.007080,86.591049 169.521317,91.981117 
	C177.491898,109.068596 176.712418,127.049164 173.595917,144.833740 
	C172.127838,153.211563 171.433441,161.890518 168.245071,169.972427 
	C161.738815,186.464432 155.983368,203.318756 144.610245,217.385422 
	C138.180328,225.338181 129.667770,229.484802 119.682693,230.277664 
	C109.303452,231.101868 99.122826,229.611557 89.235283,226.177170 
	C85.763428,224.971222 83.524994,222.213104 80.739754,220.148712 
	C68.067863,210.756485 61.394756,198.487167 62.638084,182.380203 
	C63.104042,176.343933 62.250141,170.178375 64.018730,163.970337 
	C68.210960,165.248260 69.203209,167.844284 69.281273,171.343048 
	C69.492279,180.800323 68.790237,190.234161 70.661514,199.704178 
	C72.910469,211.085449 79.389198,217.981171 90.470413,221.578888 
z"/>
<path fill="#000000" opacity="1.000000" stroke="none" 
	d="
M171.938492,56.224487 
	C159.162170,56.789925 147.518341,61.264812 135.311859,62.560081 
	C119.433777,64.244957 103.603828,66.302078 87.846550,68.917694 
	C85.411369,69.321922 82.859467,69.108582 80.364815,69.047440 
	C77.207550,68.970055 75.158295,67.380859 74.199234,64.403709 
	C75.900009,62.445065 78.061775,63.171364 79.956512,62.851913 
	C97.850090,59.835117 116.039665,58.836769 133.875702,55.753643 
	C153.832336,52.303955 173.800903,48.868008 193.787537,45.610596 
	C205.902863,43.636047 218.275681,43.301666 230.473221,41.759186 
	C259.032867,38.147575 287.967377,38.797100 316.417175,34.046581 
	C319.460358,33.538437 321.476166,35.077312 322.018311,37.717693 
	C322.595245,40.527798 319.636780,40.833298 317.966339,41.048328 
	C308.741272,42.235863 299.492188,43.713898 290.220398,43.969398 
	C264.747498,44.671345 239.520309,48.167461 214.157486,49.920444 
	C199.981506,50.900230 186.371246,54.585342 171.938492,56.224487 
z"/>
<path fill="#000000" opacity="1.000000" stroke="none" 
	d="
M788.013428,213.067169 
	C789.468811,208.843811 790.787842,204.983978 792.277466,200.625046 
	C786.470825,202.701782 782.453369,206.577484 777.747009,209.265182 
	C770.526306,213.388763 762.941162,213.877869 755.165955,213.136734 
	C750.856750,212.725998 748.542114,208.936401 746.689636,205.409836 
	C744.991333,202.176941 746.383240,199.317459 748.747070,196.828552 
	C763.208252,181.602356 780.586487,170.874802 800.120850,163.467590 
	C804.622253,161.760727 807.484070,163.753311 810.322021,167.265015 
	C817.319214,175.923416 813.603455,183.886169 808.730957,191.335022 
	C803.404907,199.477386 798.659851,207.858093 794.772278,216.746414 
	C793.907715,218.723221 794.092957,222.161102 790.627014,220.744095 
	C787.593506,219.503891 786.057800,216.896606 788.013428,213.067169 
M795.506958,184.020187 
	C799.436035,180.033371 803.365173,176.046539 807.199951,172.155457 
	C805.539490,169.678665 803.953186,170.444855 802.375122,171.005081 
	C793.925232,174.004898 785.997314,178.033340 778.837646,183.431534 
	C771.208862,189.183426 762.452515,193.446594 756.190430,201.048233 
	C754.598572,202.980530 753.476501,204.566055 753.791016,207.156799 
	C757.612366,208.290573 761.182617,207.945267 764.633972,206.500137 
	C776.466370,201.545731 786.798950,194.494720 795.506958,184.020187 
z"/>
<path fill="#000000" opacity="1.000000" stroke="none" 
	d="
M439.998108,142.466904 
	C445.681396,141.801041 450.689117,139.961136 455.747437,138.388123 
	C463.738312,135.903122 470.867462,138.020874 475.481995,144.820694 
	C478.232941,148.874405 478.135986,153.775986 476.039154,157.704330 
	C467.357788,173.968658 455.957214,188.101868 441.063446,199.175507 
	C433.728455,204.629150 425.899689,208.342102 416.221771,207.448669 
	C406.949432,206.592712 400.941345,199.170670 404.271851,190.514206 
	C409.187714,177.737320 416.019470,165.974228 425.421570,155.828064 
	C429.835907,151.064346 433.939880,146.004379 439.998108,142.466904 
M428.095459,166.402908 
	C424.611420,170.560028 420.963593,174.504547 419.025116,179.829376 
	C417.799683,183.195602 415.793457,186.533661 413.339569,189.130402 
	C410.412354,192.228073 411.365326,195.968338 410.499237,199.362839 
	C410.038483,201.168686 411.918518,201.640244 413.528534,201.808228 
	C418.590118,202.336288 423.007446,200.575531 427.244904,198.085571 
	C438.593231,191.417267 448.085541,182.622665 456.140747,172.312485 
	C461.460876,165.503036 466.577728,158.497833 470.036713,150.479919 
	C470.836945,148.625031 471.639984,146.481323 469.949402,144.872787 
	C468.185181,143.194199 465.768372,142.598068 463.457855,143.756271 
	C460.137054,145.420929 456.507080,145.989777 453.044739,147.129135 
	C442.747223,150.517746 434.488708,156.697083 428.095459,166.402908 
z"/>
<path fill="#000000" opacity="1.000000" stroke="none" 
	d="
M663.155090,154.840637 
	C660.100281,167.152939 654.917664,178.209335 650.459900,189.564453 
	C647.736267,196.502350 643.411926,201.628159 638.758057,206.978943 
	C628.514526,218.756607 611.226196,221.515381 599.174316,210.756424 
	C590.083374,202.640762 587.214111,191.850098 584.231689,180.978516 
	C583.525208,178.403214 584.400024,175.451035 585.975220,172.726334 
	C589.153870,173.537888 590.528259,175.507065 590.344299,178.499985 
	C589.757446,188.045609 594.300232,196.228668 597.554321,204.657837 
	C600.065247,211.162231 613.569580,213.984848 620.722656,209.984909 
	C631.516113,203.949234 639.231567,195.250763 644.349915,183.858368 
	C653.574585,163.326309 658.720154,141.674973 662.355164,119.666870 
	C664.896423,104.281212 666.040955,88.669327 669.637390,73.434486 
	C670.098450,71.481110 670.258911,69.526375 672.074951,67.986420 
	C677.981812,69.898468 677.156860,75.182480 675.963257,78.657356 
	C674.512207,82.881767 675.331909,87.330742 673.699524,91.207489 
	C671.225159,97.083572 672.591064,103.466133 671.047974,109.145081 
	C667.439758,122.424644 668.777039,136.534012 663.646484,149.476715 
	C663.062012,150.950989 663.316284,152.757751 663.155090,154.840637 
z"/>
<path fill="#000000" opacity="1.000000" stroke="none" 
	d="
M488.114624,156.119720 
	C493.136963,150.887955 497.103241,145.236542 503.220398,141.441925 
	C508.811157,137.973831 515.837646,140.055115 516.120544,146.672989 
	C516.567627,157.131210 517.324341,167.713608 515.670288,178.079620 
	C514.721741,184.024063 512.763916,189.820129 513.260010,196.436859 
	C508.527222,195.262054 506.480164,193.533936 506.369263,188.557343 
	C506.107361,176.808868 511.120789,165.835022 510.711456,154.150040 
	C510.653900,152.506546 511.054138,150.820053 510.131134,148.965286 
	C507.140442,148.947433 505.086456,150.549271 503.371613,152.917618 
	C494.741089,164.836929 485.425812,176.278305 477.955658,189.005875 
	C476.201843,191.994034 473.800751,194.491119 472.340637,197.752426 
	C470.942047,200.876404 468.025330,203.313675 464.302338,201.480972 
	C460.702271,199.708740 460.839355,196.922638 462.525940,193.172714 
	C468.754700,179.323669 478.775330,168.188736 488.114624,156.119720 
z"/>
<path fill="#000000" opacity="1.000000" stroke="none" 
	d="
M688.700195,157.844193 
	C689.564697,155.819733 690.282532,154.139954 691.145508,152.538315 
	C692.099243,150.768250 693.097900,148.639267 695.657898,150.214081 
	C697.826294,151.548004 699.236023,153.811920 698.022156,156.176956 
	C693.436218,165.112259 691.349426,174.967682 689.927917,184.538284 
	C688.771484,192.323761 685.404724,200.594238 689.322632,209.677704 
	C707.792480,200.398315 717.558105,182.049759 732.974731,169.909836 
	C738.524170,173.052307 738.650940,176.630875 733.916992,180.854111 
	C728.910095,185.320877 724.267273,190.241486 719.813599,195.272125 
	C712.745056,203.256332 705.560791,210.945450 695.477600,215.300613 
	C692.439697,216.612732 690.106506,216.413818 687.741333,214.275223 
	C682.396545,209.442520 680.337524,203.546387 681.378052,196.368484 
	C682.737915,186.987503 683.718933,177.560043 685.648132,168.253906 
	C686.366089,164.790741 687.608459,161.558929 688.700195,157.844193 
z"/>
<path fill="#000000" opacity="1.000000" stroke="none" 
	d="
M872.769775,212.525238 
	C870.088013,215.188599 872.642700,219.356140 869.151855,221.538879 
	C865.389954,220.304169 863.806824,217.710098 864.728271,213.650055 
	C865.792114,208.962555 866.791016,204.255310 868.036011,199.615112 
	C869.952393,192.472855 869.906738,185.305573 869.318054,177.656906 
	C861.224976,179.074310 856.621094,184.485397 851.575928,189.322327 
	C843.721741,196.852524 838.517517,206.331467 832.303040,215.068192 
	C830.844666,217.118546 829.216919,218.846771 826.619080,217.018860 
	C824.177429,215.300858 822.284058,213.148178 824.364502,209.908340 
	C828.490234,203.483414 832.622437,197.062439 836.791382,190.665558 
	C840.326294,185.241577 844.324341,180.065216 845.447754,173.423386 
	C845.647339,172.243301 846.342529,171.297470 847.712646,170.695526 
	C848.187866,170.929794 848.976562,171.059891 849.299927,171.518280 
	C852.282043,175.745941 855.425171,175.098434 859.418518,172.655869 
	C866.804382,168.138168 875.157471,172.908844 875.269531,181.506592 
	C875.403503,191.788376 875.757568,202.103851 872.769775,212.525238 
z"/>
<path fill="#000000" opacity="1.000000" stroke="none" 
	d="
M726.999939,45.956657 
	C696.351257,45.964710 666.202454,46.017399 636.053955,45.936749 
	C630.739380,45.922531 625.417786,45.451092 620.115051,45.005085 
	C615.837097,44.645267 612.916016,42.281483 610.833252,37.964157 
	C634.193237,41.070984 657.115906,39.796154 680.014221,39.778133 
	C700.493042,39.762016 720.974365,39.736416 741.449280,40.056923 
	C747.456543,40.150955 753.882996,40.497391 757.679932,48.314548 
	C747.175110,45.906567 737.344299,45.789951 726.999939,45.956657 
z"/>
</svg>