<svg xmlns="http://www.w3.org/2000/svg" width="1062" height="346" viewBox="0 0 1062 346" version="1.1"><path d="M -0 173.001 L -0 346.002 531.250 345.751 L 1062.500 345.500 1062.753 172.750 L 1063.006 -0 531.503 -0 L 0 0 -0 173.001 M 0.489 173.500 C 0.489 268.650, 0.606 307.427, 0.750 259.671 C 0.894 211.915, 0.894 134.065, 0.750 86.671 C 0.606 39.277, 0.489 78.350, 0.489 173.500 M 324.500 35.072 C 321.206 36.060, 296.222 38.367, 272 39.920 C 229.705 42.631, 185.546 48.056, 149.500 54.967 C 141.250 56.549, 129.550 58.356, 123.500 58.982 C 117.450 59.609, 104.050 61.354, 93.722 62.860 L 74.944 65.599 77.287 67.800 C 80.312 70.642, 87.017 70.706, 104.604 68.060 C 111.697 66.994, 122 65.643, 127.500 65.060 C 133 64.476, 139.750 63.574, 142.500 63.055 C 145.250 62.536, 150.762 61.564, 154.750 60.895 C 158.738 60.226, 162 59.368, 162 58.988 C 162 58.608, 165.712 58.025, 170.250 57.693 C 180.554 56.938, 202.913 53.285, 205.236 51.977 C 206.191 51.440, 210.241 50.970, 214.236 50.933 C 218.231 50.896, 227.350 50.221, 234.500 49.432 C 241.650 48.644, 252.900 47.572, 259.500 47.050 C 266.100 46.528, 276.225 45.627, 282 45.048 C 287.775 44.469, 300.150 43.550, 309.500 43.005 C 331.114 41.748, 336.053 40.073, 331.171 35.655 C 329.140 33.817, 328.787 33.786, 324.500 35.072 M 635.266 41.615 L 639.031 45.500 707.266 46.092 C 752.140 46.481, 776.860 47.061, 779.472 47.786 C 784.484 49.178, 785.058 48.604, 781.854 45.400 C 777.691 41.237, 774.082 41.007, 712 40.947 C 656.467 40.894, 638.409 40.327, 633.500 38.482 C 632.156 37.976, 632.735 39.004, 635.266 41.615 M 694.536 71.250 C 691.763 83.689, 690.827 89.029, 688.536 105.500 C 681.780 154.064, 670.982 189.305, 658.122 204.758 C 643.424 222.419, 621.946 223.899, 616.846 207.603 C 615.831 204.359, 614.607 201.209, 614.126 200.603 C 613.040 199.234, 612.004 194.195, 611.328 187 C 610.857 181.988, 608.898 178, 606.906 178 C 597.424 178, 611.589 211.049, 625.400 221.148 C 631.621 225.697, 652 225.174, 652 220.465 C 652 219.659, 652.839 219, 653.865 219 C 656.253 219, 661 215.292, 661 213.427 C 661 212.642, 661.637 212, 662.415 212 C 665.020 212, 672 202.074, 672 198.369 C 672 196.328, 672.496 195, 673.259 195 C 674.748 195, 679.001 183.705, 679 179.750 C 679 178.157, 679.548 177, 680.303 177 C 682.154 177, 686 164.349, 686 158.262 C 686 155.460, 686.484 153.005, 687.075 152.808 C 688.574 152.309, 690.660 141.365, 691.503 129.572 C 691.955 123.253, 692.720 119.137, 693.607 118.250 C 694.599 117.258, 695 114.167, 695 107.512 C 695 101.102, 695.379 98.040, 696.207 97.764 C 696.946 97.518, 697.571 94.579, 697.820 90.181 C 698.043 86.231, 698.625 83, 699.113 83 C 700.911 83, 700.103 72.403, 698.171 70.655 C 695.750 68.464, 695.135 68.565, 694.536 71.250 M 162 81.695 C 162 82.078, 163.094 83.540, 164.431 84.945 C 178.114 99.325, 176.482 149.580, 161.226 183.671 C 159.053 188.527, 156.717 194.221, 156.036 196.324 C 154.761 200.256, 140.852 221.498, 138.062 223.774 C 118.743 239.532, 79.643 232.565, 73.824 212.329 C 70.310 200.111, 70 197.916, 70 185.289 C 70 172.814, 68.220 166.447, 65.494 169.172 C 62.480 172.186, 64.373 203.952, 67.981 210.898 C 80.062 234.157, 129.853 248.619, 140.294 231.901 C 140.947 230.855, 142.273 230, 143.241 230 C 144.208 230, 145 229.325, 145 228.500 C 145 227.675, 145.563 226.980, 146.250 226.956 C 147.958 226.896, 159 210.473, 159 207.993 C 159 206.897, 159.563 205.989, 160.250 205.976 C 161.585 205.950, 169.039 187.779, 169.014 184.610 C 169.006 183.571, 169.639 182.221, 170.420 181.610 C 172.630 179.883, 176 167.422, 176 160.978 C 176 157.556, 176.463 155.012, 177.127 154.791 C 180.607 153.631, 181.240 113.366, 177.922 104.225 C 176.779 101.076, 175.454 97.240, 174.977 95.700 C 173.519 90.989, 162 78.557, 162 81.695 M 394.945 121.450 C 389.330 123.519, 383.066 126.908, 375.500 131.971 C 371.650 134.547, 364.225 138.969, 359 141.797 C 335.069 154.752, 333.300 156.921, 340.713 164.208 C 348.433 171.795, 361.051 175.731, 384.840 177.972 C 391.627 178.611, 399.727 179.551, 402.840 180.061 C 405.953 180.571, 408.863 180.991, 409.307 180.994 C 411.360 181.009, 405.939 187.445, 399.079 193.136 C 394.911 196.594, 388.125 202.409, 384 206.058 C 379.875 209.707, 370.200 217.341, 362.500 223.022 C 354.800 228.703, 343.633 237.322, 337.685 242.176 C 331.737 247.029, 326.141 251, 325.248 251 C 324.030 251, 324.341 251.747, 326.500 254 C 328.081 255.650, 330.253 257, 331.327 257 C 333.701 257, 356 239.235, 356 237.344 C 356 236.605, 356.788 235.991, 357.750 235.981 C 359.970 235.957, 381.390 220.337, 381.823 218.426 C 382.001 217.642, 382.922 217, 383.870 217 C 385.808 217, 393 210.074, 393 208.208 C 393 207.544, 393.710 207, 394.579 207 C 396.739 207, 411 195.220, 411 193.436 C 411 192.646, 411.623 192, 412.385 192 C 414.487 192, 417 187.485, 417 183.709 C 417 176.842, 411.181 175.019, 379.500 171.963 C 362.560 170.328, 345.340 165.976, 343.401 162.840 C 342.720 161.739, 348.409 156, 350.181 156 C 351.831 156, 363 148.967, 363 147.928 C 363 147.417, 363.959 147, 365.132 147 C 367.557 147, 374 143.308, 374 141.918 C 374 141.413, 374.729 141, 375.619 141 C 377.581 141, 395 130.098, 395 128.870 C 395 128.392, 396.318 128, 397.929 128 C 402.973 128, 405.314 124.499, 402.171 121.655 C 400.039 119.725, 399.658 119.714, 394.945 121.450 M 309.890 126.250 C 310.635 127.213, 310.852 128.009, 310.372 128.020 C 275.264 128.829, 220.146 171.241, 211.945 203.756 L 210.619 209.012 214.006 212.506 C 218.533 217.177, 228.387 217.704, 232.591 213.500 C 233.966 212.125, 235.690 211, 236.423 211 C 240.382 211, 256 201.882, 256 199.571 C 256 198.968, 256.840 198.030, 257.866 197.487 C 261.723 195.447, 274 184.514, 274 183.119 C 274 182.320, 274.314 181.980, 274.697 182.364 C 275.081 182.747, 278.971 179.560, 283.341 175.281 L 291.289 167.500 285.056 179.410 C 279.602 189.832, 273.018 205.827, 271.311 212.801 C 270.600 215.705, 274.387 220, 277.659 220 C 280.651 220, 290 214.254, 290 212.414 C 290 211.636, 290.659 211, 291.465 211 C 294.989 211, 296.273 202.462, 293.171 199.655 C 290.621 197.347, 290.405 197.453, 287.497 202.415 C 284.234 207.983, 281.365 210.618, 282.233 207.250 C 282.584 205.886, 282.357 204.988, 281.656 204.970 C 281.020 204.953, 281.288 204.481, 282.250 203.920 C 283.212 203.359, 284 202.286, 284 201.535 C 284 200.784, 285.800 196.773, 288 192.620 C 290.200 188.468, 292 184.155, 292 183.035 C 292 181.916, 292.563 180.997, 293.250 180.994 C 294.769 180.986, 305.023 159.410, 305.010 156.250 C 305.004 155.012, 305.592 154, 306.315 154 C 310.178 154, 312.263 142.453, 308.941 139.447 C 306.114 136.889, 305.576 137.319, 291.255 153.589 C 267.932 180.087, 248.622 196.878, 232.177 204.957 C 218.970 211.447, 217.746 211.798, 218.898 208.767 C 219.394 207.465, 219.567 205.184, 219.283 203.699 C 218.927 201.838, 219.191 200.992, 220.133 200.975 C 221.784 200.946, 231 185.632, 231 182.920 C 231 181.864, 231.587 181, 232.304 181 C 233.021 181, 235.158 179.391, 237.054 177.425 C 238.949 175.458, 243.537 171.357, 247.250 168.311 C 250.963 165.265, 254 162.149, 254 161.387 C 254 160.624, 254.666 160, 255.480 160 C 257.077 160, 275.037 148.507, 278.785 145.086 C 280.042 143.939, 281.797 143, 282.685 143 C 284.927 143, 304.355 135.787, 305.136 134.665 C 305.486 134.163, 310.105 133.941, 315.401 134.173 C 321.837 134.454, 324.918 134.247, 324.689 133.547 C 324.077 131.678, 317.772 128, 315.181 128 C 313.793 128, 311.730 127.213, 310.596 126.250 C 308.633 124.583, 308.599 124.583, 309.890 126.250 M 466.510 144.590 C 462.666 145.932, 458.894 146.790, 458.127 146.495 C 444.854 141.402, 411.236 200.300, 421.795 210.149 L 425.923 214 434.390 214 C 440.106 214, 443.290 213.567, 444.188 212.669 C 444.921 211.936, 446.703 211.040, 448.149 210.677 C 451.666 209.795, 463 201.200, 463 199.415 C 463 198.637, 463.618 198, 464.373 198 C 466.467 198, 480 183.276, 480 180.997 C 480 179.899, 480.611 179, 481.358 179 C 483.113 179, 490 168.651, 490 166.015 C 490 164.891, 490.663 164, 491.500 164 C 492.686 164, 493 162.577, 493 157.196 C 493 143.837, 482.702 138.936, 466.510 144.590 M 520.038 147.041 C 518.134 148.668, 516.012 150, 515.323 150 C 514.634 150, 513.529 151.012, 512.867 152.250 C 512.205 153.488, 509.336 156.975, 506.491 160 C 498.828 168.148, 482.114 191.605, 479.227 198.261 L 476.711 204.064 479.039 206.541 C 482.490 210.215, 489 207.472, 489 202.345 C 489 201.055, 489.582 200, 490.293 200 C 491.955 200, 502 184.507, 502 181.944 C 502 180.875, 502.631 180, 503.402 180 C 505.199 180, 515.495 166.031, 520.487 156.821 C 521.030 155.820, 522.058 155, 522.772 155 C 523.486 155, 525.247 154.229, 526.686 153.286 L 529.302 151.572 528.568 162.529 C 528.164 168.554, 527.456 173.718, 526.995 174.003 C 526.534 174.288, 525.652 179.916, 525.036 186.511 L 523.915 198.500 526.708 200.745 C 530.747 203.993, 531 203.719, 531 196.083 C 531 191.438, 531.411 189.030, 532.250 188.751 C 533.178 188.443, 533.580 183.360, 533.812 169.037 L 534.124 149.739 531.375 146.869 C 527.853 143.193, 524.479 143.244, 520.038 147.041 M 479 147.842 C 479 148.889, 472.144 151, 468.741 151 C 467.351 151, 465.955 151.675, 465.638 152.500 C 465.322 153.325, 463.924 154, 462.531 154 C 460.948 154, 460 154.562, 460 155.500 C 460 156.325, 459.196 157, 458.212 157 C 457.229 157, 454.209 159.250, 451.500 162 C 448.791 164.750, 445.996 167, 445.288 167 C 444.579 167, 444 167.723, 444 168.606 C 444 170.787, 438.177 178, 436.416 178 C 435.550 178, 435 179.032, 435 180.654 C 435 183.948, 428.384 196, 426.575 196 C 425.288 196, 423.668 206.493, 424.684 208.250 C 425.699 210.004, 433.794 208.859, 439.500 206.154 C 460.677 196.114, 493.889 155.187, 486.026 148.820 C 483.740 146.969, 479 146.309, 479 147.842 M 716.589 156.250 C 710.950 164.958, 703.774 202.637, 706.086 211.404 C 707.951 218.478, 720 227.654, 720 222 C 720 221.450, 720.985 221, 722.188 221 C 724.841 221, 730.984 216.988, 730.993 215.250 C 730.997 214.563, 731.575 214, 732.279 214 C 734.191 214, 746 201.713, 746 199.723 C 746 198.775, 746.581 198, 747.292 198 C 748.914 198, 757 189.848, 757 188.212 C 757 187.545, 757.605 187, 758.345 187 C 762.472 187, 764.441 179.614, 761.117 176.606 C 759.311 174.971, 758.790 175.364, 748.394 186.201 C 725.595 209.968, 715.479 218.812, 713.432 216.766 C 712.008 215.342, 710.577 204.641, 711.758 204.247 C 712.598 203.967, 713 201.435, 713 196.417 C 713 192.139, 713.423 189, 714 189 C 714.550 189, 715 187.168, 715 184.929 C 715 182.643, 715.658 180.199, 716.500 179.357 C 717.371 178.487, 718 176.044, 718 173.536 C 718 170.617, 718.487 169.027, 719.500 168.638 C 720.377 168.302, 721 166.803, 721 165.031 C 721 163.364, 721.450 162, 722 162 C 723.702 162, 723.101 157.401, 721.171 155.655 C 718.791 153.501, 718.331 153.561, 716.589 156.250 M 826.500 169.885 C 793.223 181.950, 766.842 206.581, 776.792 216.297 L 780.584 220 789.292 220 C 794.431 220, 798 219.590, 798 219 C 798 218.450, 799.093 218, 800.429 218 C 801.764 218, 803.532 217.325, 804.357 216.500 C 805.182 215.675, 806.360 215, 806.974 215 C 807.588 215, 811.522 212.684, 815.717 209.853 L 823.344 204.707 821.257 208.103 C 820.109 209.971, 818.208 214.370, 817.031 217.878 L 814.892 224.256 817.053 226.556 C 819.511 229.173, 822 228.769, 822 225.753 C 822 224.635, 822.705 223.205, 823.566 222.575 C 824.428 221.945, 825.387 219.533, 825.698 217.215 C 826.009 214.897, 826.770 213, 827.389 213 C 828.882 213, 834 204.452, 834 201.959 C 834 200.882, 834.592 200, 835.316 200 C 837.093 200, 841 192.862, 841 189.614 C 841 188.176, 841.450 187, 842 187 C 842.550 187, 843 185.515, 843 183.699 C 843 180.253, 841.044 175.021, 839.750 175.008 C 839.337 175.004, 839 174.358, 839 173.573 C 839 169.098, 833.304 167.418, 826.500 169.885 M 948.065 175.166 C 937.802 176.632, 921.406 186.306, 916.274 193.922 C 906.958 207.746, 928.413 219.503, 952.736 213.903 C 962.503 211.654, 965.514 210.757, 966.026 209.942 C 967.165 208.132, 968.759 210.886, 971.643 219.646 L 974.654 228.791 961.577 233.461 C 908.831 252.296, 868.621 282.558, 881.414 293.791 C 890.719 301.960, 956 301.108, 956 292.817 C 956 292.368, 957.161 292, 958.579 292 C 961.552 292, 974.002 287.323, 975.523 285.635 C 976.086 285.011, 977.436 284.013, 978.523 283.418 C 979.610 282.823, 980.944 281.361, 981.487 280.168 C 982.030 278.976, 982.964 278, 983.563 278 C 987.264 278, 989.205 273.213, 989.716 262.825 L 990.225 252.500 986.112 243.205 C 981.283 232.289, 981.412 233, 984.249 233 C 986.797 233, 1011.232 225.076, 1012 224 C 1012.275 223.615, 1014.515 223.036, 1016.978 222.714 C 1019.442 222.392, 1021.617 221.650, 1021.812 221.065 C 1022.007 220.479, 1023.561 220, 1025.265 220 C 1029.398 220, 1044 216.018, 1044 214.890 C 1044 214.401, 1045.237 213.995, 1046.750 213.989 C 1056.129 213.951, 1059.395 211.478, 1055.145 207.631 C 1053.406 206.058, 1052.794 206.072, 1045.395 207.859 C 1029.789 211.629, 1010.522 217.106, 995.270 222.107 C 984.795 225.542, 979.521 226.843, 979.065 226.105 C 975.060 219.625, 974.357 204.663, 978.013 203.707 C 980.050 203.174, 981.820 199.672, 982.667 194.500 C 983.071 192.030, 982.518 190.885, 979.540 188.016 L 975.923 184.533 973.226 186.047 C 969.644 188.057, 968.033 191.495, 968.015 197.168 L 968 201.835 958.661 204.946 C 940.401 211.030, 923.161 211.183, 920.917 205.282 C 919.526 201.622, 919.798 200.286, 922.057 199.695 C 923.189 199.399, 924.637 197.772, 925.276 196.079 C 925.916 194.385, 927.080 193, 927.864 193 C 929.919 193, 937.996 187.710, 937.998 186.363 C 937.999 185.738, 939.237 185.002, 940.750 184.726 C 942.263 184.451, 945.975 183.264, 949 182.088 C 954.915 179.790, 968.518 178.849, 972.884 180.437 C 976.370 181.704, 975.206 179.083, 971.025 176.250 C 967.343 173.756, 960.274 173.422, 948.065 175.166 M 832.500 176.053 C 831.400 176.497, 829.263 176.891, 827.750 176.930 C 826.237 176.968, 825 177.416, 825 177.925 C 825 179.163, 814.128 185, 811.822 185 C 810.820 185, 809.983 185.563, 809.963 186.250 C 809.920 187.719, 792.099 199.989, 789.960 200.023 C 789.157 200.035, 787.801 201.464, 786.948 203.197 C 785.752 205.623, 782.725 208.500, 781.367 208.500 C 781.294 208.500, 780.920 209.963, 780.537 211.750 L 779.841 215 783.883 215 C 789.865 215, 798.446 211.394, 807.483 205.084 C 823.301 194.038, 842.152 172.163, 832.500 176.053 M 875.166 181.750 C 873.019 187.624, 866.252 199.139, 859.138 209.025 C 852.675 218.006, 852.183 219.638, 855.069 222.520 C 857.902 225.349, 862 224.973, 862 221.883 C 862 220.848, 862.645 220, 863.433 220 C 864.221 220, 865.116 219.208, 865.423 218.241 C 865.731 217.274, 867.561 214.084, 869.491 211.154 C 871.421 208.223, 873 205.190, 873 204.413 C 873 203.636, 873.642 203, 874.427 203 C 876.073 203, 882 196.169, 882 194.272 C 882 193.572, 882.468 193, 883.040 193 C 884.763 193, 890 188.720, 890 187.312 C 890 186.590, 891.039 186, 892.309 186 C 893.579 186, 895.491 185.339, 896.559 184.532 C 897.626 183.724, 899.105 183.049, 899.844 183.032 C 902.008 182.981, 900.749 200.622, 897.669 213.497 L 895.039 224.493 897.550 226.997 C 900.497 229.934, 901.959 228.726, 901.985 223.333 C 901.993 221.592, 902.530 219.990, 903.178 219.774 C 904.699 219.267, 905.884 208.439, 905.949 194.446 L 906 183.392 902.702 180.196 C 898.604 176.224, 894.529 176.020, 888.606 179.491 L 884.356 181.981 881.491 178.991 C 877.704 175.038, 877.604 175.082, 875.166 181.750 M 966.113 240.047 C 960.401 242.221, 954.663 244, 953.363 244 C 952.064 244, 951 244.446, 951 244.990 C 951 245.535, 948.125 247.284, 944.612 248.877 C 941.098 250.470, 935.449 253.399, 932.058 255.387 C 928.667 257.374, 925.017 259, 923.946 259 C 922.876 259, 922 259.428, 922 259.951 C 922 260.474, 918.962 262.587, 915.250 264.645 C 911.538 266.704, 906.209 270.101, 903.409 272.194 C 900.609 274.287, 897.572 276, 896.659 276 C 895.747 276, 895 276.597, 895 277.326 C 895 278.055, 893.847 279.735, 892.438 281.059 C 891.028 282.383, 888.967 284.936, 887.856 286.733 C 886.745 288.530, 885.199 290, 884.418 290 C 881.673 290, 883.042 291.860, 886.750 293.166 C 897.753 297.041, 930.395 294.102, 949.923 287.478 C 975.839 278.687, 984.973 270.414, 984.994 255.711 C 985 252.140, 978.505 235.940, 977.111 236.047 C 976.775 236.072, 971.826 237.872, 966.113 240.047" stroke="none" fill="#ffffff" fill-rule="evenodd"/><path d="M -0 173.001 L -0 346.002 531.250 345.751 L 1062.500 345.500 1062.753 172.750 L 1063.006 -0 531.503 -0 L 0 0 -0 173.001 M 0.489 173.500 C 0.489 268.650, 0.606 307.427, 0.750 259.671 C 0.894 211.915, 0.894 134.065, 0.750 86.671 C 0.606 39.277, 0.489 78.350, 0.489 173.500 M 324.500 35.072 C 321.206 36.060, 296.222 38.367, 272 39.920 C 229.705 42.631, 185.546 48.056, 149.500 54.967 C 141.250 56.549, 129.550 58.356, 123.500 58.982 C 117.450 59.609, 104.050 61.354, 93.722 62.860 L 74.944 65.599 77.287 67.800 C 80.312 70.642, 87.017 70.706, 104.604 68.060 C 111.697 66.994, 122 65.643, 127.500 65.060 C 133 64.476, 139.750 63.574, 142.500 63.055 C 145.250 62.536, 150.762 61.564, 154.750 60.895 C 158.738 60.226, 162 59.368, 162 58.988 C 162 58.608, 165.712 58.025, 170.250 57.693 C 180.554 56.938, 202.913 53.285, 205.236 51.977 C 206.191 51.440, 210.241 50.970, 214.236 50.933 C 218.231 50.896, 227.350 50.221, 234.500 49.432 C 241.650 48.644, 252.900 47.572, 259.500 47.050 C 266.100 46.528, 276.225 45.627, 282 45.048 C 287.775 44.469, 300.150 43.550, 309.500 43.005 C 331.114 41.748, 336.053 40.073, 331.171 35.655 C 329.140 33.817, 328.787 33.786, 324.500 35.072 M 635.266 41.615 L 639.031 45.500 707.266 46.092 C 752.140 46.481, 776.860 47.061, 779.472 47.786 C 784.484 49.178, 785.058 48.604, 781.854 45.400 C 777.691 41.237, 774.082 41.007, 712 40.947 C 656.467 40.894, 638.409 40.327, 633.500 38.482 C 632.156 37.976, 632.735 39.004, 635.266 41.615 M 694.536 71.250 C 691.763 83.689, 690.827 89.029, 688.536 105.500 C 681.780 154.064, 670.982 189.305, 658.122 204.758 C 643.424 222.419, 621.946 223.899, 616.846 207.603 C 615.831 204.359, 614.607 201.209, 614.126 200.603 C 613.040 199.234, 612.004 194.195, 611.328 187 C 610.857 181.988, 608.898 178, 606.906 178 C 597.424 178, 611.589 211.049, 625.400 221.148 C 631.621 225.697, 652 225.174, 652 220.465 C 652 219.659, 652.839 219, 653.865 219 C 656.253 219, 661 215.292, 661 213.427 C 661 212.642, 661.637 212, 662.415 212 C 665.020 212, 672 202.074, 672 198.369 C 672 196.328, 672.496 195, 673.259 195 C 674.748 195, 679.001 183.705, 679 179.750 C 679 178.157, 679.548 177, 680.303 177 C 682.154 177, 686 164.349, 686 158.262 C 686 155.460, 686.484 153.005, 687.075 152.808 C 688.574 152.309, 690.660 141.365, 691.503 129.572 C 691.955 123.253, 692.720 119.137, 693.607 118.250 C 694.599 117.258, 695 114.167, 695 107.512 C 695 101.102, 695.379 98.040, 696.207 97.764 C 696.946 97.518, 697.571 94.579, 697.820 90.181 C 698.043 86.231, 698.625 83, 699.113 83 C 700.911 83, 700.103 72.403, 698.171 70.655 C 695.750 68.464, 695.135 68.565, 694.536 71.250 M 162 81.695 C 162 82.078, 163.094 83.540, 164.431 84.945 C 178.114 99.325, 176.482 149.580, 161.226 183.671 C 159.053 188.527, 156.717 194.221, 156.036 196.324 C 154.761 200.256, 140.852 221.498, 138.062 223.774 C 118.743 239.532, 79.643 232.565, 73.824 212.329 C 70.310 200.111, 70 197.916, 70 185.289 C 70 172.814, 68.220 166.447, 65.494 169.172 C 62.480 172.186, 64.373 203.952, 67.981 210.898 C 80.062 234.157, 129.853 248.619, 140.294 231.901 C 140.947 230.855, 142.273 230, 143.241 230 C 144.208 230, 145 229.325, 145 228.500 C 145 227.675, 145.563 226.980, 146.250 226.956 C 147.958 226.896, 159 210.473, 159 207.993 C 159 206.897, 159.563 205.989, 160.250 205.976 C 161.585 205.950, 169.039 187.779, 169.014 184.610 C 169.006 183.571, 169.639 182.221, 170.420 181.610 C 172.630 179.883, 176 167.422, 176 160.978 C 176 157.556, 176.463 155.012, 177.127 154.791 C 180.607 153.631, 181.240 113.366, 177.922 104.225 C 176.779 101.076, 175.454 97.240, 174.977 95.700 C 173.519 90.989, 162 78.557, 162 81.695 M 394.945 121.450 C 389.330 123.519, 383.066 126.908, 375.500 131.971 C 371.650 134.547, 364.225 138.969, 359 141.797 C 335.069 154.752, 333.300 156.921, 340.713 164.208 C 348.433 171.795, 361.051 175.731, 384.840 177.972 C 391.627 178.611, 399.727 179.551, 402.840 180.061 C 405.953 180.571, 408.863 180.991, 409.307 180.994 C 411.360 181.009, 405.939 187.445, 399.079 193.136 C 394.911 196.594, 388.125 202.409, 384 206.058 C 379.875 209.707, 370.200 217.341, 362.500 223.022 C 354.800 228.703, 343.633 237.322, 337.685 242.176 C 331.737 247.029, 326.141 251, 325.248 251 C 324.030 251, 324.341 251.747, 326.500 254 C 328.081 255.650, 330.253 257, 331.327 257 C 333.701 257, 356 239.235, 356 237.344 C 356 236.605, 356.788 235.991, 357.750 235.981 C 359.970 235.957, 381.390 220.337, 381.823 218.426 C 382.001 217.642, 382.922 217, 383.870 217 C 385.808 217, 393 210.074, 393 208.208 C 393 207.544, 393.710 207, 394.579 207 C 396.739 207, 411 195.220, 411 193.436 C 411 192.646, 411.623 192, 412.385 192 C 414.487 192, 417 187.485, 417 183.709 C 417 176.842, 411.181 175.019, 379.500 171.963 C 362.560 170.328, 345.340 165.976, 343.401 162.840 C 342.720 161.739, 348.409 156, 350.181 156 C 351.831 156, 363 148.967, 363 147.928 C 363 147.417, 363.959 147, 365.132 147 C 367.557 147, 374 143.308, 374 141.918 C 374 141.413, 374.729 141, 375.619 141 C 377.581 141, 395 130.098, 395 128.870 C 395 128.392, 396.318 128, 397.929 128 C 402.973 128, 405.314 124.499, 402.171 121.655 C 400.039 119.725, 399.658 119.714, 394.945 121.450 M 309.890 126.250 C 310.635 127.213, 310.852 128.009, 310.372 128.020 C 275.264 128.829, 220.146 171.241, 211.945 203.756 L 210.619 209.012 214.006 212.506 C 218.533 217.177, 228.387 217.704, 232.591 213.500 C 233.966 212.125, 235.690 211, 236.423 211 C 240.382 211, 256 201.882, 256 199.571 C 256 198.968, 256.840 198.030, 257.866 197.487 C 261.723 195.447, 274 184.514, 274 183.119 C 274 182.320, 274.314 181.980, 274.697 182.364 C 275.081 182.747, 278.971 179.560, 283.341 175.281 L 291.289 167.500 285.056 179.410 C 279.602 189.832, 273.018 205.827, 271.311 212.801 C 270.600 215.705, 274.387 220, 277.659 220 C 280.651 220, 290 214.254, 290 212.414 C 290 211.636, 290.659 211, 291.465 211 C 294.989 211, 296.273 202.462, 293.171 199.655 C 290.621 197.347, 290.405 197.453, 287.497 202.415 C 284.234 207.983, 281.365 210.618, 282.233 207.250 C 282.584 205.886, 282.357 204.988, 281.656 204.970 C 281.020 204.953, 281.288 204.481, 282.250 203.920 C 283.212 203.359, 284 202.286, 284 201.535 C 284 200.784, 285.800 196.773, 288 192.620 C 290.200 188.468, 292 184.155, 292 183.035 C 292 181.916, 292.563 180.997, 293.250 180.994 C 294.769 180.986, 305.023 159.410, 305.010 156.250 C 305.004 155.012, 305.592 154, 306.315 154 C 310.178 154, 312.263 142.453, 308.941 139.447 C 306.114 136.889, 305.576 137.319, 291.255 153.589 C 267.932 180.087, 248.622 196.878, 232.177 204.957 C 218.970 211.447, 217.746 211.798, 218.898 208.767 C 219.394 207.465, 219.567 205.184, 219.283 203.699 C 218.927 201.838, 219.191 200.992, 220.133 200.975 C 221.784 200.946, 231 185.632, 231 182.920 C 231 181.864, 231.587 181, 232.304 181 C 233.021 181, 235.158 179.391, 237.054 177.425 C 238.949 175.458, 243.537 171.357, 247.250 168.311 C 250.963 165.265, 254 162.149, 254 161.387 C 254 160.624, 254.666 160, 255.480 160 C 257.077 160, 275.037 148.507, 278.785 145.086 C 280.042 143.939, 281.797 143, 282.685 143 C 284.927 143, 304.355 135.787, 305.136 134.665 C 305.486 134.163, 310.105 133.941, 315.401 134.173 C 321.837 134.454, 324.918 134.247, 324.689 133.547 C 324.077 131.678, 317.772 128, 315.181 128 C 313.793 128, 311.730 127.213, 310.596 126.250 C 308.633 124.583, 308.599 124.583, 309.890 126.250 M 466.510 144.590 C 462.666 145.932, 458.894 146.790, 458.127 146.495 C 444.854 141.402, 411.236 200.300, 421.795 210.149 L 425.923 214 434.390 214 C 440.106 214, 443.290 213.567, 444.188 212.669 C 444.921 211.936, 446.703 211.040, 448.149 210.677 C 451.666 209.795, 463 201.200, 463 199.415 C 463 198.637, 463.618 198, 464.373 198 C 466.467 198, 480 183.276, 480 180.997 C 480 179.899, 480.611 179, 481.358 179 C 483.113 179, 490 168.651, 490 166.015 C 490 164.891, 490.663 164, 491.500 164 C 492.686 164, 493 162.577, 493 157.196 C 493 143.837, 482.702 138.936, 466.510 144.590 M 520.038 147.041 C 518.134 148.668, 516.012 150, 515.323 150 C 514.634 150, 513.529 151.012, 512.867 152.250 C 512.205 153.488, 509.336 156.975, 506.491 160 C 498.828 168.148, 482.114 191.605, 479.227 198.261 L 476.711 204.064 479.039 206.541 C 482.490 210.215, 489 207.472, 489 202.345 C 489 201.055, 489.582 200, 490.293 200 C 491.955 200, 502 184.507, 502 181.944 C 502 180.875, 502.631 180, 503.402 180 C 505.199 180, 515.495 166.031, 520.487 156.821 C 521.030 155.820, 522.058 155, 522.772 155 C 523.486 155, 525.247 154.229, 526.686 153.286 L 529.302 151.572 528.568 162.529 C 528.164 168.554, 527.456 173.718, 526.995 174.003 C 526.534 174.288, 525.652 179.916, 525.036 186.511 L 523.915 198.500 526.708 200.745 C 530.747 203.993, 531 203.719, 531 196.083 C 531 191.438, 531.411 189.030, 532.250 188.751 C 533.178 188.443, 533.580 183.360, 533.812 169.037 L 534.124 149.739 531.375 146.869 C 527.853 143.193, 524.479 143.244, 520.038 147.041 M 479 147.842 C 479 148.889, 472.144 151, 468.741 151 C 467.351 151, 465.955 151.675, 465.638 152.500 C 465.322 153.325, 463.924 154, 462.531 154 C 460.948 154, 460 154.562, 460 155.500 C 460 156.325, 459.196 157, 458.212 157 C 457.229 157, 454.209 159.250, 451.500 162 C 448.791 164.750, 445.996 167, 445.288 167 C 444.579 167, 444 167.723, 444 168.606 C 444 170.787, 438.177 178, 436.416 178 C 435.550 178, 435 179.032, 435 180.654 C 435 183.948, 428.384 196, 426.575 196 C 425.288 196, 423.668 206.493, 424.684 208.250 C 425.699 210.004, 433.794 208.859, 439.500 206.154 C 460.677 196.114, 493.889 155.187, 486.026 148.820 C 483.740 146.969, 479 146.309, 479 147.842 M 716.589 156.250 C 710.950 164.958, 703.774 202.637, 706.086 211.404 C 707.951 218.478, 720 227.654, 720 222 C 720 221.450, 720.985 221, 722.188 221 C 724.841 221, 730.984 216.988, 730.993 215.250 C 730.997 214.563, 731.575 214, 732.279 214 C 734.191 214, 746 201.713, 746 199.723 C 746 198.775, 746.581 198, 747.292 198 C 748.914 198, 757 189.848, 757 188.212 C 757 187.545, 757.605 187, 758.345 187 C 762.472 187, 764.441 179.614, 761.117 176.606 C 759.311 174.971, 758.790 175.364, 748.394 186.201 C 725.595 209.968, 715.479 218.812, 713.432 216.766 C 712.008 215.342, 710.577 204.641, 711.758 204.247 C 712.598 203.967, 713 201.435, 713 196.417 C 713 192.139, 713.423 189, 714 189 C 714.550 189, 715 187.168, 715 184.929 C 715 182.643, 715.658 180.199, 716.500 179.357 C 717.371 178.487, 718 176.044, 718 173.536 C 718 170.617, 718.487 169.027, 719.500 168.638 C 720.377 168.302, 721 166.803, 721 165.031 C 721 163.364, 721.450 162, 722 162 C 723.702 162, 723.101 157.401, 721.171 155.655 C 718.791 153.501, 718.331 153.561, 716.589 156.250 M 826.500 169.885 C 793.223 181.950, 766.842 206.581, 776.792 216.297 L 780.584 220 789.292 220 C 794.431 220, 798 219.590, 798 219 C 798 218.450, 799.093 218, 800.429 218 C 801.764 218, 803.532 217.325, 804.357 216.500 C 805.182 215.675, 806.360 215, 806.974 215 C 807.588 215, 811.522 212.684, 815.717 209.853 L 823.344 204.707 821.257 208.103 C 820.109 209.971, 818.208 214.370, 817.031 217.878 L 814.892 224.256 817.053 226.556 C 819.511 229.173, 822 228.769, 822 225.753 C 822 224.635, 822.705 223.205, 823.566 222.575 C 824.428 221.945, 825.387 219.533, 825.698 217.215 C 826.009 214.897, 826.770 213, 827.389 213 C 828.882 213, 834 204.452, 834 201.959 C 834 200.882, 834.592 200, 835.316 200 C 837.093 200, 841 192.862, 841 189.614 C 841 188.176, 841.450 187, 842 187 C 842.550 187, 843 185.515, 843 183.699 C 843 180.253, 841.044 175.021, 839.750 175.008 C 839.337 175.004, 839 174.358, 839 173.573 C 839 169.098, 833.304 167.418, 826.500 169.885 M 948.065 175.166 C 937.802 176.632, 921.406 186.306, 916.274 193.922 C 906.958 207.746, 928.413 219.503, 952.736 213.903 C 962.503 211.654, 965.514 210.757, 966.026 209.942 C 967.165 208.132, 968.759 210.886, 971.643 219.646 L 974.654 228.791 961.577 233.461 C 908.831 252.296, 868.621 282.558, 881.414 293.791 C 890.719 301.960, 956 301.108, 956 292.817 C 956 292.368, 957.161 292, 958.579 292 C 961.552 292, 974.002 287.323, 975.523 285.635 C 976.086 285.011, 977.436 284.013, 978.523 283.418 C 979.610 282.823, 980.944 281.361, 981.487 280.168 C 982.030 278.976, 982.964 278, 983.563 278 C 987.264 278, 989.205 273.213, 989.716 262.825 L 990.225 252.500 986.112 243.205 C 981.283 232.289, 981.412 233, 984.249 233 C 986.797 233, 1011.232 225.076, 1012 224 C 1012.275 223.615, 1014.515 223.036, 1016.978 222.714 C 1019.442 222.392, 1021.617 221.650, 1021.812 221.065 C 1022.007 220.479, 1023.561 220, 1025.265 220 C 1029.398 220, 1044 216.018, 1044 214.890 C 1044 214.401, 1045.237 213.995, 1046.750 213.989 C 1056.129 213.951, 1059.395 211.478, 1055.145 207.631 C 1053.406 206.058, 1052.794 206.072, 1045.395 207.859 C 1029.789 211.629, 1010.522 217.106, 995.270 222.107 C 984.795 225.542, 979.521 226.843, 979.065 226.105 C 975.060 219.625, 974.357 204.663, 978.013 203.707 C 980.050 203.174, 981.820 199.672, 982.667 194.500 C 983.071 192.030, 982.518 190.885, 979.540 188.016 L 975.923 184.533 973.226 186.047 C 969.644 188.057, 968.033 191.495, 968.015 197.168 L 968 201.835 958.661 204.946 C 940.401 211.030, 923.161 211.183, 920.917 205.282 C 919.526 201.622, 919.798 200.286, 922.057 199.695 C 923.189 199.399, 924.637 197.772, 925.276 196.079 C 925.916 194.385, 927.080 193, 927.864 193 C 929.919 193, 937.996 187.710, 937.998 186.363 C 937.999 185.738, 939.237 185.002, 940.750 184.726 C 942.263 184.451, 945.975 183.264, 949 182.088 C 954.915 179.790, 968.518 178.849, 972.884 180.437 C 976.370 181.704, 975.206 179.083, 971.025 176.250 C 967.343 173.756, 960.274 173.422, 948.065 175.166 M 832.500 176.053 C 831.400 176.497, 829.263 176.891, 827.750 176.930 C 826.237 176.968, 825 177.416, 825 177.925 C 825 179.163, 814.128 185, 811.822 185 C 810.820 185, 809.983 185.563, 809.963 186.250 C 809.920 187.719, 792.099 199.989, 789.960 200.023 C 789.157 200.035, 787.801 201.464, 786.948 203.197 C 785.752 205.623, 782.725 208.500, 781.367 208.500 C 781.294 208.500, 780.920 209.963, 780.537 211.750 L 779.841 215 783.883 215 C 789.865 215, 798.446 211.394, 807.483 205.084 C 823.301 194.038, 842.152 172.163, 832.500 176.053 M 875.166 181.750 C 873.019 187.624, 866.252 199.139, 859.138 209.025 C 852.675 218.006, 852.183 219.638, 855.069 222.520 C 857.902 225.349, 862 224.973, 862 221.883 C 862 220.848, 862.645 220, 863.433 220 C 864.221 220, 865.116 219.208, 865.423 218.241 C 865.731 217.274, 867.561 214.084, 869.491 211.154 C 871.421 208.223, 873 205.190, 873 204.413 C 873 203.636, 873.642 203, 874.427 203 C 876.073 203, 882 196.169, 882 194.272 C 882 193.572, 882.468 193, 883.040 193 C 884.763 193, 890 188.720, 890 187.312 C 890 186.590, 891.039 186, 892.309 186 C 893.579 186, 895.491 185.339, 896.559 184.532 C 897.626 183.724, 899.105 183.049, 899.844 183.032 C 902.008 182.981, 900.749 200.622, 897.669 213.497 L 895.039 224.493 897.550 226.997 C 900.497 229.934, 901.959 228.726, 901.985 223.333 C 901.993 221.592, 902.530 219.990, 903.178 219.774 C 904.699 219.267, 905.884 208.439, 905.949 194.446 L 906 183.392 902.702 180.196 C 898.604 176.224, 894.529 176.020, 888.606 179.491 L 884.356 181.981 881.491 178.991 C 877.704 175.038, 877.604 175.082, 875.166 181.750 M 966.113 240.047 C 960.401 242.221, 954.663 244, 953.363 244 C 952.064 244, 951 244.446, 951 244.990 C 951 245.535, 948.125 247.284, 944.612 248.877 C 941.098 250.470, 935.449 253.399, 932.058 255.387 C 928.667 257.374, 925.017 259, 923.946 259 C 922.876 259, 922 259.428, 922 259.951 C 922 260.474, 918.962 262.587, 915.250 264.645 C 911.538 266.704, 906.209 270.101, 903.409 272.194 C 900.609 274.287, 897.572 276, 896.659 276 C 895.747 276, 895 276.597, 895 277.326 C 895 278.055, 893.847 279.735, 892.438 281.059 C 891.028 282.383, 888.967 284.936, 887.856 286.733 C 886.745 288.530, 885.199 290, 884.418 290 C 881.673 290, 883.042 291.860, 886.750 293.166 C 897.753 297.041, 930.395 294.102, 949.923 287.478 C 975.839 278.687, 984.973 270.414, 984.994 255.711 C 985 252.140, 978.505 235.940, 977.111 236.047 C 976.775 236.072, 971.826 237.872, 966.113 240.047" stroke="none" fill="#ffffff" fill-rule="evenodd"/><path d="M -0 173.001 L -0 346.002 531.250 345.751 L 1062.500 345.500 1062.753 172.750 L 1063.006 -0 531.503 -0 L 0 0 -0 173.001 M 0.489 173.500 C 0.489 268.650, 0.606 307.427, 0.750 259.671 C 0.894 211.915, 0.894 134.065, 0.750 86.671 C 0.606 39.277, 0.489 78.350, 0.489 173.500 M 324.500 35.072 C 321.206 36.060, 296.222 38.367, 272 39.920 C 229.705 42.631, 185.546 48.056, 149.500 54.967 C 141.250 56.549, 129.550 58.356, 123.500 58.982 C 117.450 59.609, 104.050 61.354, 93.722 62.860 L 74.944 65.599 77.287 67.800 C 80.312 70.642, 87.017 70.706, 104.604 68.060 C 111.697 66.994, 122 65.643, 127.500 65.060 C 133 64.476, 139.750 63.574, 142.500 63.055 C 145.250 62.536, 150.762 61.564, 154.750 60.895 C 158.738 60.226, 162 59.368, 162 58.988 C 162 58.608, 165.712 58.025, 170.250 57.693 C 180.554 56.938, 202.913 53.285, 205.236 51.977 C 206.191 51.440, 210.241 50.970, 214.236 50.933 C 218.231 50.896, 227.350 50.221, 234.500 49.432 C 241.650 48.644, 252.900 47.572, 259.500 47.050 C 266.100 46.528, 276.225 45.627, 282 45.048 C 287.775 44.469, 300.150 43.550, 309.500 43.005 C 331.114 41.748, 336.053 40.073, 331.171 35.655 C 329.140 33.817, 328.787 33.786, 324.500 35.072 M 635.266 41.615 L 639.031 45.500 707.266 46.092 C 752.140 46.481, 776.860 47.061, 779.472 47.786 C 784.484 49.178, 785.058 48.604, 781.854 45.400 C 777.691 41.237, 774.082 41.007, 712 40.947 C 656.467 40.894, 638.409 40.327, 633.500 38.482 C 632.156 37.976, 632.735 39.004, 635.266 41.615 M 694.536 71.250 C 691.763 83.689, 690.827 89.029, 688.536 105.500 C 681.780 154.064, 670.982 189.305, 658.122 204.758 C 643.424 222.419, 621.946 223.899, 616.846 207.603 C 615.831 204.359, 614.607 201.209, 614.126 200.603 C 613.040 199.234, 612.004 194.195, 611.328 187 C 610.857 181.988, 608.898 178, 606.906 178 C 597.424 178, 611.589 211.049, 625.400 221.148 C 631.621 225.697, 652 225.174, 652 220.465 C 652 219.659, 652.839 219, 653.865 219 C 656.253 219, 661 215.292, 661 213.427 C 661 212.642, 661.637 212, 662.415 212 C 665.020 212, 672 202.074, 672 198.369 C 672 196.328, 672.496 195, 673.259 195 C 674.748 195, 679.001 183.705, 679 179.750 C 679 178.157, 679.548 177, 680.303 177 C 682.154 177, 686 164.349, 686 158.262 C 686 155.460, 686.484 153.005, 687.075 152.808 C 688.574 152.309, 690.660 141.365, 691.503 129.572 C 691.955 123.253, 692.720 119.137, 693.607 118.250 C 694.599 117.258, 695 114.167, 695 107.512 C 695 101.102, 695.379 98.040, 696.207 97.764 C 696.946 97.518, 697.571 94.579, 697.820 90.181 C 698.043 86.231, 698.625 83, 699.113 83 C 700.911 83, 700.103 72.403, 698.171 70.655 C 695.750 68.464, 695.135 68.565, 694.536 71.250 M 162 81.695 C 162 82.078, 163.094 83.540, 164.431 84.945 C 178.114 99.325, 176.482 149.580, 161.226 183.671 C 159.053 188.527, 156.717 194.221, 156.036 196.324 C 154.761 200.256, 140.852 221.498, 138.062 223.774 C 118.743 239.532, 79.643 232.565, 73.824 212.329 C 70.310 200.111, 70 197.916, 70 185.289 C 70 172.814, 68.220 166.447, 65.494 169.172 C 62.480 172.186, 64.373 203.952, 67.981 210.898 C 80.062 234.157, 129.853 248.619, 140.294 231.901 C 140.947 230.855, 142.273 230, 143.241 230 C 144.208 230, 145 229.325, 145 228.500 C 145 227.675, 145.563 226.980, 146.250 226.956 C 147.958 226.896, 159 210.473, 159 207.993 C 159 206.897, 159.563 205.989, 160.250 205.976 C 161.585 205.950, 169.039 187.779, 169.014 184.610 C 169.006 183.571, 169.639 182.221, 170.420 181.610 C 172.630 179.883, 176 167.422, 176 160.978 C 176 157.556, 176.463 155.012, 177.127 154.791 C 180.607 153.631, 181.240 113.366, 177.922 104.225 C 176.779 101.076, 175.454 97.240, 174.977 95.700 C 173.519 90.989, 162 78.557, 162 81.695 M 394.945 121.450 C 389.330 123.519, 383.066 126.908, 375.500 131.971 C 371.650 134.547, 364.225 138.969, 359 141.797 C 335.069 154.752, 333.300 156.921, 340.713 164.208 C 348.433 171.795, 361.051 175.731, 384.840 177.972 C 391.627 178.611, 399.727 179.551, 402.840 180.061 C 405.953 180.571, 408.863 180.991, 409.307 180.994 C 411.360 181.009, 405.939 187.445, 399.079 193.136 C 394.911 196.594, 388.125 202.409, 384 206.058 C 379.875 209.707, 370.200 217.341, 362.500 223.022 C 354.800 228.703, 343.633 237.322, 337.685 242.176 C 331.737 247.029, 326.141 251, 325.248 251 C 324.030 251, 324.341 251.747, 326.500 254 C 328.081 255.650, 330.253 257, 331.327 257 C 333.701 257, 356 239.235, 356 237.344 C 356 236.605, 356.788 235.991, 357.750 235.981 C 359.970 235.957, 381.390 220.337, 381.823 218.426 C 382.001 217.642, 382.922 217, 383.870 217 C 385.808 217, 393 210.074, 393 208.208 C 393 207.544, 393.710 207, 394.579 207 C 396.739 207, 411 195.220, 411 193.436 C 411 192.646, 411.623 192, 412.385 192 C 414.487 192, 417 187.485, 417 183.709 C 417 176.842, 411.181 175.019, 379.500 171.963 C 362.560 170.328, 345.340 165.976, 343.401 162.840 C 342.720 161.739, 348.409 156, 350.181 156 C 351.831 156, 363 148.967, 363 147.928 C 363 147.417, 363.959 147, 365.132 147 C 367.557 147, 374 143.308, 374 141.918 C 374 141.413, 374.729 141, 375.619 141 C 377.581 141, 395 130.098, 395 128.870 C 395 128.392, 396.318 128, 397.929 128 C 402.973 128, 405.314 124.499, 402.171 121.655 C 400.039 119.725, 399.658 119.714, 394.945 121.450 M 309.890 126.250 C 310.635 127.213, 310.852 128.009, 310.372 128.020 C 275.264 128.829, 220.146 171.241, 211.945 203.756 L 210.619 209.012 214.006 212.506 C 218.533 217.177, 228.387 217.704, 232.591 213.500 C 233.966 212.125, 235.690 211, 236.423 211 C 240.382 211, 256 201.882, 256 199.571 C 256 198.968, 256.840 198.030, 257.866 197.487 C 261.723 195.447, 274 184.514, 274 183.119 C 274 182.320, 274.314 181.980, 274.697 182.364 C 275.081 182.747, 278.971 179.560, 283.341 175.281 L 291.289 167.500 285.056 179.410 C 279.602 189.832, 273.018 205.827, 271.311 212.801 C 270.600 215.705, 274.387 220, 277.659 220 C 280.651 220, 290 214.254, 290 212.414 C 290 211.636, 290.659 211, 291.465 211 C 294.989 211, 296.273 202.462, 293.171 199.655 C 290.621 197.347, 290.405 197.453, 287.497 202.415 C 284.234 207.983, 281.365 210.618, 282.233 207.250 C 282.584 205.886, 282.357 204.988, 281.656 204.970 C 281.020 204.953, 281.288 204.481, 282.250 203.920 C 283.212 203.359, 284 202.286, 284 201.535 C 284 200.784, 285.800 196.773, 288 192.620 C 290.200 188.468, 292 184.155, 292 183.035 C 292 181.916, 292.563 180.997, 293.250 180.994 C 294.769 180.986, 305.023 159.410, 305.010 156.250 C 305.004 155.012, 305.592 154, 306.315 154 C 310.178 154, 312.263 142.453, 308.941 139.447 C 306.114 136.889, 305.576 137.319, 291.255 153.589 C 267.932 180.087, 248.622 196.878, 232.177 204.957 C 218.970 211.447, 217.746 211.798, 218.898 208.767 C 219.394 207.465, 219.567 205.184, 219.283 203.699 C 218.927 201.838, 219.191 200.992, 220.133 200.975 C 221.784 200.946, 231 185.632, 231 182.920 C 231 181.864, 231.587 181, 232.304 181 C 233.021 181, 235.158 179.391, 237.054 177.425 C 238.949 175.458, 243.537 171.357, 247.250 168.311 C 250.963 165.265, 254 162.149, 254 161.387 C 254 160.624, 254.666 160, 255.480 160 C 257.077 160, 275.037 148.507, 278.785 145.086 C 280.042 143.939, 281.797 143, 282.685 143 C 284.927 143, 304.355 135.787, 305.136 134.665 C 305.486 134.163, 310.105 133.941, 315.401 134.173 C 321.837 134.454, 324.918 134.247, 324.689 133.547 C 324.077 131.678, 317.772 128, 315.181 128 C 313.793 128, 311.730 127.213, 310.596 126.250 C 308.633 124.583, 308.599 124.583, 309.890 126.250 M 466.510 144.590 C 462.666 145.932, 458.894 146.790, 458.127 146.495 C 444.854 141.402, 411.236 200.300, 421.795 210.149 L 425.923 214 434.390 214 C 440.106 214, 443.290 213.567, 444.188 212.669 C 444.921 211.936, 446.703 211.040, 448.149 210.677 C 451.666 209.795, 463 201.200, 463 199.415 C 463 198.637, 463.618 198, 464.373 198 C 466.467 198, 480 183.276, 480 180.997 C 480 179.899, 480.611 179, 481.358 179 C 483.113 179, 490 168.651, 490 166.015 C 490 164.891, 490.663 164, 491.500 164 C 492.686 164, 493 162.577, 493 157.196 C 493 143.837, 482.702 138.936, 466.510 144.590 M 520.038 147.041 C 518.134 148.668, 516.012 150, 515.323 150 C 514.634 150, 513.529 151.012, 512.867 152.250 C 512.205 153.488, 509.336 156.975, 506.491 160 C 498.828 168.148, 482.114 191.605, 479.227 198.261 L 476.711 204.064 479.039 206.541 C 482.490 210.215, 489 207.472, 489 202.345 C 489 201.055, 489.582 200, 490.293 200 C 491.955 200, 502 184.507, 502 181.944 C 502 180.875, 502.631 180, 503.402 180 C 505.199 180, 515.495 166.031, 520.487 156.821 C 521.030 155.820, 522.058 155, 522.772 155 C 523.486 155, 525.247 154.229, 526.686 153.286 L 529.302 151.572 528.568 162.529 C 528.164 168.554, 527.456 173.718, 526.995 174.003 C 526.534 174.288, 525.652 179.916, 525.036 186.511 L 523.915 198.500 526.708 200.745 C 530.747 203.993, 531 203.719, 531 196.083 C 531 191.438, 531.411 189.030, 532.250 188.751 C 533.178 188.443, 533.580 183.360, 533.812 169.037 L 534.124 149.739 531.375 146.869 C 527.853 143.193, 524.479 143.244, 520.038 147.041 M 479 147.842 C 479 148.889, 472.144 151, 468.741 151 C 467.351 151, 465.955 151.675, 465.638 152.500 C 465.322 153.325, 463.924 154, 462.531 154 C 460.948 154, 460 154.562, 460 155.500 C 460 156.325, 459.196 157, 458.212 157 C 457.229 157, 454.209 159.250, 451.500 162 C 448.791 164.750, 445.996 167, 445.288 167 C 444.579 167, 444 167.723, 444 168.606 C 444 170.787, 438.177 178, 436.416 178 C 435.550 178, 435 179.032, 435 180.654 C 435 183.948, 428.384 196, 426.575 196 C 425.288 196, 423.668 206.493, 424.684 208.250 C 425.699 210.004, 433.794 208.859, 439.500 206.154 C 460.677 196.114, 493.889 155.187, 486.026 148.820 C 483.740 146.969, 479 146.309, 479 147.842 M 716.589 156.250 C 710.950 164.958, 703.774 202.637, 706.086 211.404 C 707.951 218.478, 720 227.654, 720 222 C 720 221.450, 720.985 221, 722.188 221 C 724.841 221, 730.984 216.988, 730.993 215.250 C 730.997 214.563, 731.575 214, 732.279 214 C 734.191 214, 746 201.713, 746 199.723 C 746 198.775, 746.581 198, 747.292 198 C 748.914 198, 757 189.848, 757 188.212 C 757 187.545, 757.605 187, 758.345 187 C 762.472 187, 764.441 179.614, 761.117 176.606 C 759.311 174.971, 758.790 175.364, 748.394 186.201 C 725.595 209.968, 715.479 218.812, 713.432 216.766 C 712.008 215.342, 710.577 204.641, 711.758 204.247 C 712.598 203.967, 713 201.435, 713 196.417 C 713 192.139, 713.423 189, 714 189 C 714.550 189, 715 187.168, 715 184.929 C 715 182.643, 715.658 180.199, 716.500 179.357 C 717.371 178.487, 718 176.044, 718 173.536 C 718 170.617, 718.487 169.027, 719.500 168.638 C 720.377 168.302, 721 166.803, 721 165.031 C 721 163.364, 721.450 162, 722 162 C 723.702 162, 723.101 157.401, 721.171 155.655 C 718.791 153.501, 718.331 153.561, 716.589 156.250 M 826.500 169.885 C 793.223 181.950, 766.842 206.581, 776.792 216.297 L 780.584 220 789.292 220 C 794.431 220, 798 219.590, 798 219 C 798 218.450, 799.093 218, 800.429 218 C 801.764 218, 803.532 217.325, 804.357 216.500 C 805.182 215.675, 806.360 215, 806.974 215 C 807.588 215, 811.522 212.684, 815.717 209.853 L 823.344 204.707 821.257 208.103 C 820.109 209.971, 818.208 214.370, 817.031 217.878 L 814.892 224.256 817.053 226.556 C 819.511 229.173, 822 228.769, 822 225.753 C 822 224.635, 822.705 223.205, 823.566 222.575 C 824.428 221.945, 825.387 219.533, 825.698 217.215 C 826.009 214.897, 826.770 213, 827.389 213 C 828.882 213, 834 204.452, 834 201.959 C 834 200.882, 834.592 200, 835.316 200 C 837.093 200, 841 192.862, 841 189.614 C 841 188.176, 841.450 187, 842 187 C 842.550 187, 843 185.515, 843 183.699 C 843 180.253, 841.044 175.021, 839.750 175.008 C 839.337 175.004, 839 174.358, 839 173.573 C 839 169.098, 833.304 167.418, 826.500 169.885 M 948.065 175.166 C 937.802 176.632, 921.406 186.306, 916.274 193.922 C 906.958 207.746, 928.413 219.503, 952.736 213.903 C 962.503 211.654, 965.514 210.757, 966.026 209.942 C 967.165 208.132, 968.759 210.886, 971.643 219.646 L 974.654 228.791 961.577 233.461 C 908.831 252.296, 868.621 282.558, 881.414 293.791 C 890.719 301.960, 956 301.108, 956 292.817 C 956 292.368, 957.161 292, 958.579 292 C 961.552 292, 974.002 287.323, 975.523 285.635 C 976.086 285.011, 977.436 284.013, 978.523 283.418 C 979.610 282.823, 980.944 281.361, 981.487 280.168 C 982.030 278.976, 982.964 278, 983.563 278 C 987.264 278, 989.205 273.213, 989.716 262.825 L 990.225 252.500 986.112 243.205 C 981.283 232.289, 981.412 233, 984.249 233 C 986.797 233, 1011.232 225.076, 1012 224 C 1012.275 223.615, 1014.515 223.036, 1016.978 222.714 C 1019.442 222.392, 1021.617 221.650, 1021.812 221.065 C 1022.007 220.479, 1023.561 220, 1025.265 220 C 1029.398 220, 1044 216.018, 1044 214.890 C 1044 214.401, 1045.237 213.995, 1046.750 213.989 C 1056.129 213.951, 1059.395 211.478, 1055.145 207.631 C 1053.406 206.058, 1052.794 206.072, 1045.395 207.859 C 1029.789 211.629, 1010.522 217.106, 995.270 222.107 C 984.795 225.542, 979.521 226.843, 979.065 226.105 C 975.060 219.625, 974.357 204.663, 978.013 203.707 C 980.050 203.174, 981.820 199.672, 982.667 194.500 C 983.071 192.030, 982.518 190.885, 979.540 188.016 L 975.923 184.533 973.226 186.047 C 969.644 188.057, 968.033 191.495, 968.015 197.168 L 968 201.835 958.661 204.946 C 940.401 211.030, 923.161 211.183, 920.917 205.282 C 919.526 201.622, 919.798 200.286, 922.057 199.695 C 923.189 199.399, 924.637 197.772, 925.276 196.079 C 925.916 194.385, 927.080 193, 927.864 193 C 929.919 193, 937.996 187.710, 937.998 186.363 C 937.999 185.738, 939.237 185.002, 940.750 184.726 C 942.263 184.451, 945.975 183.264, 949 182.088 C 954.915 179.790, 968.518 178.849, 972.884 180.437 C 976.370 181.704, 975.206 179.083, 971.025 176.250 C 967.343 173.756, 960.274 173.422, 948.065 175.166 M 832.500 176.053 C 831.400 176.497, 829.263 176.891, 827.750 176.930 C 826.237 176.968, 825 177.416, 825 177.925 C 825 179.163, 814.128 185, 811.822 185 C 810.820 185, 809.983 185.563, 809.963 186.250 C 809.920 187.719, 792.099 199.989, 789.960 200.023 C 789.157 200.035, 787.801 201.464, 786.948 203.197 C 785.752 205.623, 782.725 208.500, 781.367 208.500 C 781.294 208.500, 780.920 209.963, 780.537 211.750 L 779.841 215 783.883 215 C 789.865 215, 798.446 211.394, 807.483 205.084 C 823.301 194.038, 842.152 172.163, 832.500 176.053 M 875.166 181.750 C 873.019 187.624, 866.252 199.139, 859.138 209.025 C 852.675 218.006, 852.183 219.638, 855.069 222.520 C 857.902 225.349, 862 224.973, 862 221.883 C 862 220.848, 862.645 220, 863.433 220 C 864.221 220, 865.116 219.208, 865.423 218.241 C 865.731 217.274, 867.561 214.084, 869.491 211.154 C 871.421 208.223, 873 205.190, 873 204.413 C 873 203.636, 873.642 203, 874.427 203 C 876.073 203, 882 196.169, 882 194.272 C 882 193.572, 882.468 193, 883.040 193 C 884.763 193, 890 188.720, 890 187.312 C 890 186.590, 891.039 186, 892.309 186 C 893.579 186, 895.491 185.339, 896.559 184.532 C 897.626 183.724, 899.105 183.049, 899.844 183.032 C 902.008 182.981, 900.749 200.622, 897.669 213.497 L 895.039 224.493 897.550 226.997 C 900.497 229.934, 901.959 228.726, 901.985 223.333 C 901.993 221.592, 902.530 219.990, 903.178 219.774 C 904.699 219.267, 905.884 208.439, 905.949 194.446 L 906 183.392 902.702 180.196 C 898.604 176.224, 894.529 176.020, 888.606 179.491 L 884.356 181.981 881.491 178.991 C 877.704 175.038, 877.604 175.082, 875.166 181.750 M 966.113 240.047 C 960.401 242.221, 954.663 244, 953.363 244 C 952.064 244, 951 244.446, 951 244.990 C 951 245.535, 948.125 247.284, 944.612 248.877 C 941.098 250.470, 935.449 253.399, 932.058 255.387 C 928.667 257.374, 925.017 259, 923.946 259 C 922.876 259, 922 259.428, 922 259.951 C 922 260.474, 918.962 262.587, 915.250 264.645 C 911.538 266.704, 906.209 270.101, 903.409 272.194 C 900.609 274.287, 897.572 276, 896.659 276 C 895.747 276, 895 276.597, 895 277.326 C 895 278.055, 893.847 279.735, 892.438 281.059 C 891.028 282.383, 888.967 284.936, 887.856 286.733 C 886.745 288.530, 885.199 290, 884.418 290 C 881.673 290, 883.042 291.860, 886.750 293.166 C 897.753 297.041, 930.395 294.102, 949.923 287.478 C 975.839 278.687, 984.973 270.414, 984.994 255.711 C 985 252.140, 978.505 235.940, 977.111 236.047 C 976.775 236.072, 971.826 237.872, 966.113 240.047" stroke="none" fill="#ffffff" fill-rule="evenodd"/><path d="M 670.768 41.725 C 672.565 41.947, 675.265 41.943, 676.768 41.715 C 678.271 41.486, 676.800 41.304, 673.500 41.310 C 670.200 41.315, 668.971 41.502, 670.768 41.725 M 684.250 41.728 C 686.313 41.944, 689.688 41.944, 691.750 41.728 C 693.813 41.513, 692.125 41.336, 688 41.336 C 683.875 41.336, 682.188 41.513, 684.250 41.728 M 729.750 41.723 C 731.538 41.945, 734.462 41.945, 736.250 41.723 C 738.038 41.502, 736.575 41.320, 733 41.320 C 729.425 41.320, 727.962 41.502, 729.750 41.723 M 231.971 170.750 L 225.500 177.500 232.250 171.029 C 235.963 167.470, 239 164.432, 239 164.279 C 239 163.543, 237.982 164.480, 231.971 170.750 M 274.473 172.250 L 267.500 179.500 274.750 172.527 C 281.484 166.050, 282.457 165, 281.723 165 C 281.571 165, 278.308 168.262, 274.473 172.250 M 747.479 187.250 L 738.500 196.500 747.750 187.521 C 756.341 179.181, 757.455 178, 756.729 178 C 756.580 178, 752.418 182.162, 747.479 187.250 M 827.978 186.750 L 819.500 195.500 828.250 187.022 C 833.063 182.359, 837 178.422, 837 178.272 C 837 177.544, 835.852 178.623, 827.978 186.750 M 64.360 188 C 64.360 193.225, 64.529 195.363, 64.735 192.750 C 64.941 190.137, 64.941 185.863, 64.735 183.250 C 64.529 180.637, 64.360 182.775, 64.360 188 M 462.971 188.750 L 456.500 195.500 463.250 189.029 C 469.520 183.018, 470.457 182, 469.721 182 C 469.568 182, 466.530 185.037, 462.971 188.750 M 901.336 191 C 901.336 195.125, 901.513 196.813, 901.728 194.750 C 901.944 192.688, 901.944 189.313, 901.728 187.250 C 901.513 185.188, 901.336 186.875, 901.336 191 M 967.984 197.203 C 967.718 200.340, 967.865 202.540, 968.310 202.093 C 968.756 201.645, 968.974 199.079, 968.795 196.390 L 968.468 191.500 967.984 197.203 M 976.469 274.250 L 970.500 280.500 976.750 274.531 C 980.188 271.249, 983 268.436, 983 268.281 C 983 267.542, 982.013 268.444, 976.469 274.250" stroke="none" fill="#c5c5c5" fill-rule="evenodd"/><path d="M 321.846 36.021 C 319.286 36.453, 313.886 37.124, 309.846 37.512 C 305.806 37.900, 301.825 38.342, 301 38.494 C 300.175 38.646, 292.971 39.082, 284.991 39.462 C 277.011 39.843, 268.686 40.319, 266.491 40.520 C 264.296 40.721, 259.125 41.192, 255 41.567 C 250.875 41.941, 246.825 42.368, 246 42.515 C 245.175 42.663, 240.450 43.113, 235.500 43.514 C 230.550 43.916, 225.825 44.366, 225 44.514 C 224.175 44.663, 219.450 45.096, 214.500 45.477 C 204.276 46.264, 205.511 46.097, 185.500 49.410 C 177.250 50.775, 168.250 52.173, 165.500 52.515 C 162.750 52.858, 155.550 54.192, 149.500 55.481 C 143.450 56.769, 135.575 58.118, 132 58.478 C 120.693 59.618, 114.735 60.354, 91.500 63.485 C 74.796 65.736, 75.303 65.572, 77.519 68.021 C 79.741 70.476, 85.867 70.625, 98 68.517 C 102.675 67.705, 115.950 65.897, 127.500 64.500 C 139.050 63.102, 152.100 61.101, 156.500 60.053 C 160.900 59.005, 167.200 57.851, 170.500 57.488 C 173.800 57.125, 182.800 55.706, 190.500 54.336 C 198.200 52.966, 206.750 51.622, 209.500 51.350 C 246.619 47.683, 276.696 44.996, 286 44.516 C 313.659 43.089, 333 40.854, 333 39.084 C 333 37.781, 329.430 34.993, 327.921 35.118 C 327.140 35.182, 324.406 35.589, 321.846 36.021 M 635.843 41.854 C 640.423 45.891, 638.128 45.759, 707 45.930 C 773.534 46.095, 779.431 46.294, 783.004 48.502 C 784.697 49.549, 784.101 47.398, 782.250 45.783 C 777.525 41.662, 777.927 41.687, 711.515 41.452 C 652.215 41.242, 640.022 40.926, 634.555 39.460 C 633.013 39.046, 633.335 39.644, 635.843 41.854 M 695 70.558 C 695 70.864, 694.123 75.477, 693.052 80.808 C 691.981 86.138, 690.167 97.475, 689.023 106 C 678.997 180.678, 658.678 221.428, 632.394 219.571 C 624.582 219.019, 618.468 214.635, 616.467 208.148 C 615.509 205.042, 614.402 202.050, 614.007 201.500 C 612.726 199.716, 611 191.228, 611 186.712 C 611 182.681, 608.934 179, 606.671 179 C 603.954 179, 607.195 194.989, 612.368 207.108 C 618.309 221.026, 647.556 230.701, 652.160 220.271 C 652.347 219.847, 654.240 218.614, 656.366 217.530 C 658.492 216.447, 660.493 214.872, 660.813 214.030 C 661.132 213.189, 662.387 211.714, 663.600 210.753 C 666.894 208.146, 672 199.985, 672 197.329 C 672 196.048, 672.366 195, 672.813 195 C 673.880 195, 679 181.860, 679 179.122 C 679 177.955, 679.430 177, 679.956 177 C 681.351 177, 686 161.576, 686 156.948 C 686 154.777, 686.359 153, 686.798 153 C 687.795 153, 690.775 137.023, 691.649 127 C 692.008 122.875, 692.724 119.224, 693.238 118.887 C 693.753 118.550, 694.425 113.713, 694.732 108.137 C 695.039 102.562, 695.637 98, 696.060 98 C 696.483 98, 697.146 94.625, 697.532 90.500 C 697.919 86.375, 698.632 83, 699.117 83 C 700.891 83, 700.089 73.391, 698.171 71.655 C 696.328 69.987, 695 69.528, 695 70.558 M 163 82.483 C 163 82.982, 164.065 84.540, 165.367 85.945 C 166.670 87.350, 168.444 90.525, 169.310 93 C 170.176 95.475, 171.623 99.525, 172.525 102 C 183.917 133.260, 157.273 215.361, 131.500 228.414 C 122.498 232.973, 117.137 233.801, 105.650 232.406 C 77.914 229.037, 70.004 218.720, 70.001 185.905 C 70 174.625, 69.793 173.123, 68.021 171.519 C 65.020 168.803, 64.695 170.817, 65.235 188.781 C 65.884 210.379, 67.402 213.390, 85.592 229.161 C 93.082 235.655, 116.708 240.041, 128 237.034 C 133.410 235.593, 141 231.967, 141 230.823 C 141 230.370, 141.575 230, 142.278 230 C 144.412 230, 159 210.411, 159 207.545 C 159 206.787, 159.407 206.017, 159.905 205.833 C 160.874 205.476, 167.791 189.151, 168.732 185 C 169.043 183.625, 169.653 182.266, 170.087 181.979 C 171.508 181.041, 176 163.880, 176 159.388 C 176 156.975, 176.382 155, 176.848 155 C 180.200 155, 181.095 114.693, 177.937 106 C 176.838 102.975, 175.293 98.473, 174.504 95.996 C 173.206 91.922, 163 79.933, 163 82.483 M 394 122.469 C 390.975 123.672, 385.350 126.608, 381.500 128.993 C 372.716 134.436, 361.597 141.045, 350.365 147.500 C 334.952 156.357, 333.952 158.222, 341.250 164.501 C 350.176 172.180, 359.950 174.806, 393.500 178.537 C 412.201 180.618, 411.513 180.352, 408.740 184.431 C 405.694 188.914, 383.876 207.504, 365 221.701 C 356.475 228.112, 344.575 237.375, 338.556 242.285 C 332.536 247.195, 326.999 251.447, 326.251 251.734 C 324.556 252.384, 328.550 257, 330.808 257 C 332.561 257, 356 238.368, 356 236.975 C 356 236.439, 356.491 236, 357.092 236 C 358.606 236, 382 218.993, 382 217.892 C 382 217.402, 382.613 217, 383.363 217 C 384.113 217, 386.831 214.750, 389.403 212 C 391.976 209.250, 394.350 207, 394.679 207 C 395.591 207, 408.090 196.505, 411.607 192.786 C 417.323 186.741, 418.571 181.732, 415.137 178.624 C 413.069 176.753, 412.826 176.689, 401.500 175.064 C 389.202 173.299, 388.028 173.158, 380 172.486 C 358.027 170.646, 339.313 164.707, 343.354 160.856 C 345.964 158.369, 349.016 156, 349.611 156 C 350.236 156, 362.154 148.878, 363 147.999 C 363.275 147.713, 365.863 146.394, 368.750 145.069 C 371.637 143.743, 374 142.285, 374 141.829 C 374 141.373, 374.563 140.992, 375.250 140.982 C 376.324 140.966, 391.524 131.657, 394.548 129.163 C 395.125 128.687, 397.219 127.994, 399.202 127.622 C 403.646 126.788, 404.546 124.836, 401.678 122.247 L 399.500 120.282 394 122.469 M 309.893 126.238 C 311.472 128.298, 310.918 128.593, 304 129.377 C 295.450 130.347, 278.465 136.954, 267.420 143.607 C 223.778 169.895, 195.237 216, 222.606 216 C 227.506 216, 233.978 213.584, 233.994 211.750 C 233.997 211.338, 234.722 211, 235.604 211 C 238.051 211, 250.174 204.347, 253.856 200.984 C 255.653 199.343, 257.433 197.986, 257.812 197.969 C 258.190 197.952, 262.256 194.352, 266.846 189.969 C 271.436 185.586, 275.486 182.014, 275.846 182.032 C 276.206 182.050, 280.224 178.112, 284.776 173.282 L 293.051 164.500 290.615 170.173 C 289.275 173.293, 286.325 179.020, 284.059 182.899 C 273.303 201.316, 269.743 220, 276.991 220 C 285.340 220, 297.923 204.955, 293.171 200.655 C 290.645 198.369, 290.524 198.431, 287.564 203.482 C 284.045 209.485, 281.251 211.061, 281.396 206.959 C 281.453 205.334, 281.803 204.004, 282.172 204.002 C 282.542 204.001, 283.380 202.313, 284.034 200.250 C 284.688 198.188, 286.748 193.727, 288.611 190.338 C 290.475 186.948, 292 183.498, 292 182.671 C 292 181.844, 292.426 181.017, 292.948 180.833 C 294.093 180.431, 305 157.431, 305 155.420 C 305 154.639, 305.360 154, 305.801 154 C 309.296 154, 311.856 141.713, 308.806 139.577 C 306.018 137.624, 306.605 137.106, 288.845 157.207 C 281.212 165.846, 272.402 175.071, 269.267 177.707 C 266.133 180.343, 260.853 185.002, 257.534 188.060 C 246.438 198.284, 225.517 210.991, 219.769 210.998 C 217.902 211, 218.283 201.902, 220.181 201.158 C 220.661 200.970, 222.003 198.945, 223.164 196.658 C 224.324 194.371, 226.562 190.619, 228.137 188.320 C 229.712 186.021, 231 183.433, 231 182.570 C 231 181.706, 231.563 180.984, 232.250 180.965 C 232.938 180.945, 238.381 176.220, 244.347 170.465 C 250.312 164.709, 255.427 160, 255.713 160 C 255.998 160, 258.317 158.480, 260.866 156.622 C 263.415 154.763, 268.650 151.330, 272.500 148.992 C 276.350 146.654, 279.725 144.462, 280 144.121 C 280.275 143.779, 285.675 141.743, 292 139.595 C 298.325 137.447, 303.972 135.330, 304.548 134.890 C 306.063 133.734, 320.052 133.343, 323 134.374 L 325.500 135.248 323.127 132.679 C 320.685 130.034, 315.624 127.709, 314.581 128.752 C 314.257 129.076, 312.770 128.252, 311.276 126.921 C 309.783 125.589, 309.160 125.282, 309.893 126.238 M 467.030 145.105 C 462.443 146.597, 458.152 147.612, 457.496 147.360 C 452.276 145.357, 431.993 170.115, 420.680 192.298 C 412.507 208.325, 427.275 219.906, 445.314 211.617 C 451.233 208.897, 463 200.504, 463 199.002 C 463 198.451, 463.639 198, 464.420 198 C 466.180 198, 477.596 185.503, 479.265 181.750 C 479.938 180.238, 480.814 179, 481.212 179 C 482.120 179, 490 167.216, 490 165.858 C 490 165.307, 490.675 164.182, 491.500 163.357 C 502.330 152.527, 484.684 139.365, 467.030 145.105 M 521.038 147.041 C 519.134 148.668, 517.027 150, 516.356 150 C 515.685 150, 514.127 151.463, 512.892 153.250 C 511.658 155.037, 508.365 158.999, 505.574 162.053 C 498.058 170.279, 481.980 192.805, 480.372 197.362 C 479.603 199.543, 478.463 201.942, 477.840 202.693 C 476.168 204.707, 480.611 209.243, 483.433 208.403 C 485.990 207.641, 488.948 204.092, 488.978 201.750 C 488.990 200.787, 489.364 200, 489.810 200 C 490.879 200, 502 183.326, 502 181.724 C 502 181.040, 502.819 179.970, 503.819 179.345 C 504.820 178.720, 508.390 174.192, 511.752 169.283 C 515.115 164.373, 518.571 159.771, 519.433 159.056 C 520.295 158.340, 521 157.135, 521 156.378 C 521 155.620, 521.492 155, 522.092 155 C 522.693 155, 524.370 154.068, 525.818 152.928 L 528.452 150.857 529.046 153.178 C 529.885 156.453, 528.170 177.277, 527.002 177.998 C 526.471 178.327, 525.732 183.243, 525.360 188.924 L 524.683 199.252 527.091 201.104 C 530.732 203.902, 531 203.558, 531 196.083 C 531 191.568, 531.419 189.027, 532.208 188.764 C 533.076 188.475, 533.531 182.977, 533.827 169.223 L 534.239 150.085 531.196 147.042 C 527.424 143.270, 525.449 143.270, 521.038 147.041 M 478.542 147.932 C 478.225 148.445, 475.386 149.436, 472.233 150.135 C 469.080 150.833, 465.905 151.989, 465.179 152.703 C 464.452 153.416, 462.989 154, 461.929 154 C 460.868 154, 460 154.412, 460 154.917 C 460 155.421, 458.916 156.208, 457.592 156.667 C 455.075 157.537, 444 167.520, 444 168.918 C 444 169.360, 441.975 171.897, 439.500 174.555 C 437.025 177.212, 435 179.763, 435 180.222 C 435 181.747, 428.970 193.030, 427.219 194.781 C 422.750 199.250, 422.827 208.689, 427.339 209.536 C 442.720 212.421, 488 169.092, 488 151.488 C 488 147.914, 480.334 145.032, 478.542 147.932 M 716.630 157.442 C 711.078 165.916, 704.395 203.618, 706.922 212.216 C 709.015 219.340, 720 227.558, 720 222 C 720 221.450, 720.685 221, 721.521 221 C 723.382 221, 731 216.071, 731 214.867 C 731 214.390, 731.629 214, 732.397 214 C 733.973 214, 746 200.841, 746 199.116 C 746 198.502, 746.569 198, 747.265 198 C 748.677 198, 757 189.765, 757 188.367 C 757 187.876, 758.006 187.030, 759.236 186.487 C 762.760 184.931, 763.869 180.425, 761.349 177.904 L 759.296 175.852 747.932 187.676 C 725.403 211.118, 714.498 220.233, 712.620 217.194 C 711.416 215.246, 710.793 204, 711.889 204 C 712.605 204, 713 201.334, 713 196.500 C 713 192.167, 713.422 189, 714 189 C 714.550 189, 715 186.975, 715 184.500 C 715 182.025, 715.398 180, 715.885 180 C 716.371 180, 717.079 177.525, 717.457 174.500 C 717.835 171.475, 718.541 169, 719.027 169 C 719.512 169, 720.205 167.425, 720.566 165.500 C 720.927 163.575, 721.623 162, 722.111 162 C 723.693 162, 723.053 158.358, 721.171 156.655 C 718.792 154.502, 718.526 154.548, 716.630 157.442 M 821.811 172.382 C 798.316 182.640, 774 201.790, 774 210.037 C 774 217.954, 788.710 223.594, 797.764 219.147 C 798.719 218.678, 801.300 217.455, 803.500 216.430 C 808.587 214.059, 818.637 207.501, 822.382 204.110 C 825.649 201.151, 825.625 201.284, 821.402 209.500 C 816.610 218.824, 815.310 224.580, 817.458 226.954 C 819.631 229.354, 822 228.540, 822 225.393 C 822 224.077, 822.352 223, 822.782 223 C 823.212 223, 824.182 220.905, 824.938 218.343 C 825.695 215.782, 826.946 212.970, 827.719 212.093 C 830.334 209.129, 834 202.920, 834 201.456 C 834 200.655, 834.442 200, 834.983 200 C 836.146 200, 841 190.749, 841 188.533 C 841 187.690, 841.450 187, 842 187 C 843.804 187, 843.075 179.911, 841 177.273 C 839.900 175.874, 839 174.141, 839 173.422 C 839 168.466, 831.781 168.029, 821.811 172.382 M 949.500 175.524 C 926.745 178.589, 907.552 198.490, 917.843 208.349 C 925.617 215.797, 948.529 217.052, 963.655 210.858 C 965.220 210.217, 967.027 209.582, 967.671 209.446 C 968.658 209.239, 970.201 213.075, 975.064 227.821 C 975.364 228.729, 971.750 230.477, 963.500 233.414 C 911.778 251.830, 869.101 282.732, 880.787 293.307 C 890.504 302.101, 933.474 302.226, 954.500 293.522 C 956.150 292.839, 959.975 291.535, 963 290.624 C 970.509 288.364, 980.293 282.875, 981.461 280.268 C 981.989 279.088, 983.181 277.925, 984.109 277.682 C 987.484 276.799, 989.234 272.292, 989.756 263.145 L 990.259 254.325 986.700 246.413 C 981.822 235.570, 981.245 233, 983.688 233 C 985.422 233, 1006.728 226.219, 1011.500 224.148 C 1014.401 222.889, 1023.643 220.272, 1030 218.910 C 1033.025 218.261, 1037.750 216.946, 1040.500 215.988 C 1043.250 215.029, 1048.088 213.707, 1051.250 213.051 C 1057.539 211.745, 1057.986 211.203, 1055.001 208.501 C 1053.122 206.800, 1052.600 206.784, 1046.251 208.236 C 1033.145 211.232, 1012.382 217.138, 996.062 222.511 C 986.979 225.502, 979.274 227.623, 978.939 227.224 C 978.025 226.138, 973.995 211.449, 974.032 209.336 C 974.071 207.074, 976.304 204, 977.909 204 C 979.328 204, 982.947 196.399, 982.978 193.354 C 983.095 181.954, 969.401 184.966, 968.807 196.471 L 968.500 202.410 958.184 205.728 C 932.865 213.873, 910.200 209.117, 923 198.347 C 924.650 196.958, 926 195.187, 926 194.411 C 926 193.635, 926.500 193, 927.110 193 C 928.656 193, 938 186.849, 938 185.832 C 938 185.374, 938.693 185, 939.540 185 C 940.387 185, 942.793 184.126, 944.887 183.058 C 951.613 179.626, 967.757 178.199, 973.500 180.528 L 975.500 181.339 973.511 179.077 C 969.373 174.370, 963.989 173.573, 949.500 175.524 M 829 176.305 C 827.075 176.911, 825.013 177.877, 824.418 178.453 C 823.822 179.029, 820.447 180.850, 816.918 182.500 C 813.388 184.150, 810.050 185.998, 809.500 186.607 C 807.735 188.560, 790.361 200, 789.160 200 C 788.522 200, 788 200.628, 788 201.396 C 788 202.164, 786.538 204.112, 784.750 205.724 C 769.690 219.309, 788.577 219.039, 808 205.392 C 819.905 197.028, 837.772 178.635, 836.031 176.537 C 834.583 174.792, 833.884 174.769, 829 176.305 M 876.450 179.750 C 875.297 185.141, 871.028 192.784, 861.084 207.263 C 853.589 218.175, 852.810 220.613, 855.917 223.425 C 858.061 225.365, 862 224.150, 862 221.548 C 862 220.788, 862.361 220.017, 862.803 219.833 C 863.244 219.650, 865.283 216.800, 867.332 213.500 C 869.382 210.200, 871.608 206.649, 872.280 205.610 C 872.951 204.570, 875.413 201.925, 877.750 199.732 C 880.087 197.539, 882 195.128, 882 194.373 C 882 193.618, 882.628 193, 883.396 193 C 884.164 193, 886.176 191.425, 887.866 189.500 C 889.556 187.575, 891.392 186, 891.945 186 C 892.499 186, 894.401 185.118, 896.173 184.041 C 902.115 180.427, 903.861 188.098, 900.487 203 C 899.677 206.575, 898.297 213.047, 897.419 217.383 L 895.822 225.266 897.944 227.383 C 900.517 229.950, 901.960 228.473, 901.985 223.250 C 901.993 221.463, 902.395 220, 902.878 220 C 904.289 220, 906 205.828, 906 194.146 L 906 183.374 903.012 180.512 C 899.018 176.685, 894.822 176.554, 888.613 180.064 L 883.726 182.827 881.274 179.914 C 878.221 176.285, 877.198 176.251, 876.450 179.750 M 963.500 240.312 C 956.900 242.615, 951.272 244.725, 950.993 245 C 950.714 245.275, 944.189 248.650, 936.493 252.500 C 928.797 256.350, 922.275 259.778, 922 260.119 C 921.725 260.459, 919.025 261.976, 916 263.489 C 912.975 265.002, 907.520 268.436, 903.878 271.120 C 900.235 273.804, 896.748 276, 896.128 276 C 895.507 276, 894.989 276.563, 894.975 277.250 C 894.962 277.938, 892.215 281.397, 888.872 284.938 C 883.526 290.600, 882.990 291.520, 884.424 292.568 C 886.427 294.032, 903.202 296.187, 908 295.596 C 909.925 295.359, 914.650 294.878, 918.500 294.528 C 968.975 289.935, 993.554 270.303, 982.074 243.750 C 978.126 234.619, 979.227 234.823, 963.500 240.312" stroke="none" fill="#0b0b0b" fill-rule="evenodd"/><path d="" stroke="none" fill="#fbfbfb" fill-rule="evenodd"/></svg>