<svg version="1.1" id="Layer_1" xmlns="http://www.w3.org/2000/svg" xmlns:xlink="http://www.w3.org/1999/xlink" x="0px" y="0px"
	 width="100%" viewBox="0 0 1024 480" enable-background="new 0 0 1024 480" xml:space="preserve">
<path fill="#000000" opacity="1.000000" stroke="none" 
	d="
M746.277222,469.664185 
	C738.898560,470.450592 734.372498,464.304504 736.891907,457.834320 
	C747.146301,431.500122 756.967590,404.990845 767.636902,378.826782 
	C776.176147,357.886017 786.033752,337.485535 794.725098,316.603394 
	C806.916992,287.310669 823.707153,260.419037 837.942749,232.200104 
	C838.909058,230.284714 840.795837,228.905075 841.327942,225.665695 
	C836.123047,228.461914 830.572144,227.977463 825.680176,230.589752 
	C820.037170,233.603027 813.324280,232.649185 807.393982,234.964218 
	C805.422852,235.733704 799.095642,230.127304 799.104797,227.985275 
	C799.115845,225.391266 801.363159,224.879257 803.187683,224.272949 
	C810.590332,221.812927 818.364807,220.671066 825.670959,217.805191 
	C833.252014,214.831406 840.909546,212.042831 848.595520,209.349823 
	C852.763733,207.889389 855.659790,205.202484 857.863831,201.473572 
	C875.184937,172.168335 895.386536,144.792694 915.641235,117.545609 
	C932.115540,95.383850 949.749084,74.020546 968.675537,53.810322 
	C975.733521,46.273617 982.569946,38.529770 989.554749,30.923904 
	C991.010193,29.339003 992.559875,27.795624 994.264648,26.493002 
	C999.474854,22.512024 1000.981934,22.720335 1004.944153,27.622946 
	C1007.818726,31.179792 1007.188049,33.328491 1003.391907,37.419464 
	C991.156738,50.605080 979.250061,64.096619 966.963806,77.233559 
	C954.410645,90.655823 944.210144,105.978172 932.116638,119.750542 
	C922.783569,130.379227 915.741028,142.637222 907.296875,153.898224 
	C898.707153,165.353424 890.139282,176.852905 882.748779,189.152924 
	C881.660217,190.964645 880.098877,192.577988 879.875549,194.974289 
	C882.154053,195.574844 883.769653,194.117706 885.385010,193.195251 
	C917.455139,174.880539 948.023315,154.494614 974.139771,128.073807 
	C979.525024,122.625786 984.609863,116.881866 989.883423,111.321945 
	C992.107788,108.976837 994.025818,105.649300 997.978943,109.304062 
	C1002.436951,113.425468 1003.408630,117.600784 1000.010254,121.440521 
	C995.153748,126.927750 990.394348,132.561920 985.030212,137.524506 
	C977.243408,144.728394 969.604492,152.065903 961.180847,158.659515 
	C955.072083,163.441162 949.078735,168.512772 942.734253,172.996490 
	C927.766052,183.574646 912.746277,194.153931 896.426575,202.589783 
	C887.662109,207.120285 878.513184,210.920837 869.456970,214.865234 
	C866.595398,216.111542 864.599609,217.908127 862.670410,220.384903 
	C857.486938,227.039841 853.077209,234.333466 848.401184,241.222931 
	C844.586548,246.843246 842.380188,254.334702 838.762756,260.600525 
	C816.896851,298.473724 800.534180,338.945679 782.433655,378.608948 
	C776.061218,392.572601 771.894592,407.284790 765.970947,421.377411 
	C759.983337,435.622345 754.661926,450.146881 749.004700,464.531616 
	C748.341980,466.216705 747.400940,467.792297 746.277222,469.664185 
z"/>
<path fill="#000000" opacity="1.000000" stroke="none" 
	d="
M319.045959,86.961243 
	C315.379364,85.453308 311.955963,85.232903 308.414795,85.193764 
	C295.437195,85.050346 283.247040,88.766579 270.888275,92.074974 
	C253.364487,96.766045 237.727081,105.771996 221.196732,112.724869 
	C207.575729,118.454048 196.375305,128.104172 183.945282,135.758850 
	C163.099518,148.596146 146.376694,166.505432 128.171875,182.583237 
	C122.092888,187.951981 116.357300,193.680359 110.086365,198.886032 
	C105.901016,202.360397 103.227524,208.401672 99.271400,212.834793 
	C89.248260,224.066406 80.973053,236.543976 73.012550,249.260834 
	C71.723259,251.320511 70.746178,253.785751 67.999710,254.567917 
	C67.156357,254.808090 66.709373,255.574951 66.574783,256.461334 
	C65.324699,264.694000 61.930088,271.858490 56.013168,277.785370 
	C55.690331,278.108765 55.439774,278.668182 55.434593,279.120911 
	C55.299122,290.961212 48.940887,301.805634 50.151894,313.938385 
	C50.844078,320.873169 52.805420,327.268982 55.688503,333.481110 
	C56.492779,335.214050 58.124947,336.097198 59.781525,336.980530 
	C73.176659,344.123047 87.284332,345.686676 102.329453,344.150513 
	C120.248688,342.320892 137.246155,337.117615 153.955887,331.204041 
	C173.385452,324.328003 191.921616,315.149719 210.477066,306.119019 
	C230.101929,296.567871 249.056793,285.806946 268.092010,275.178223 
	C272.449768,272.744995 275.790436,273.848816 278.494446,278.825958 
	C280.638092,282.771637 278.410461,284.760559 275.107849,286.685455 
	C254.093781,298.933319 232.618317,310.298920 210.604279,320.631958 
	C198.063370,326.518463 185.683289,332.898407 172.739655,337.744324 
	C146.924652,347.409119 120.898911,356.474548 92.505165,354.430023 
	C77.664757,353.361389 64.723953,349.031891 54.318020,337.838013 
	C49.081169,332.204590 43.370678,327.021973 41.254913,319.347595 
	C39.376617,312.534546 38.137074,305.737366 38.934963,298.425995 
	C41.720657,272.899536 54.423611,251.825684 67.819099,230.875656 
	C87.443611,200.183685 113.984390,176.050766 140.619034,151.787125 
	C160.112259,134.029160 181.940536,119.787361 204.291718,106.312927 
	C215.766052,99.395622 228.640533,94.815903 240.821594,89.051537 
	C252.296051,83.621544 264.918518,81.866592 276.734161,77.617386 
	C285.783386,74.363068 295.237457,75.530045 304.360168,75.018883 
	C310.905823,74.652122 318.930908,76.490677 323.864868,83.004250 
	C324.863007,84.321960 326.001038,85.667175 327.364899,86.552391 
	C335.364105,91.744240 334.555450,99.696152 334.159058,107.553001 
	C334.037262,109.967445 332.359924,111.428276 330.812866,112.919891 
	C318.749054,124.551056 304.680054,133.518127 290.847656,142.778458 
	C285.596069,146.294205 280.114716,149.486145 274.609985,152.599106 
	C268.819366,155.873749 264.826782,154.932800 260.504364,150.067047 
	C258.190155,147.461945 258.606140,145.793488 261.539429,144.253937 
	C278.562775,135.319229 294.038818,124.032784 309.445831,112.645447 
	C313.475189,109.667343 317.217407,106.353775 320.629028,102.686104 
	C322.694550,100.465546 324.333679,97.968193 324.749603,94.861382 
	C325.309021,90.682381 324.345032,87.519295 319.045959,86.961243 
z"/>
<path fill="#000000" opacity="1.000000" stroke="none" 
	d="
M811.491699,253.490494 
	C816.141602,258.760712 816.221680,261.507080 811.318726,266.044006 
	C807.593628,269.490997 803.959778,273.034332 799.862610,276.168243 
	C796.855896,278.468140 794.576843,282.684174 791.622009,285.772156 
	C783.542114,294.215973 774.752197,301.935486 765.490967,308.968384 
	C750.289001,320.512634 734.335999,331.052032 717.552124,340.182617 
	C708.437012,345.141357 699.133118,349.448059 687.979431,348.315430 
	C678.681274,347.371216 669.342285,338.742126 668.685791,329.182037 
	C668.192322,321.996552 671.221802,315.533691 672.212158,308.266907 
	C666.072876,309.917328 661.041931,313.471954 655.535828,315.917816 
	C643.722107,321.165497 631.677063,324.741730 618.522095,324.026245 
	C609.496521,323.535400 599.964539,314.953674 598.961182,305.978699 
	C597.925659,296.716522 600.968506,288.893951 605.903687,281.190430 
	C618.160889,262.057831 635.889771,248.874741 653.802551,235.804413 
	C661.202454,230.404953 668.292175,224.513489 676.046936,219.687897 
	C682.496582,215.674469 689.865417,213.183823 697.442383,212.023819 
	C701.440186,211.411774 707.517212,219.224655 706.817627,223.702087 
	C705.863220,229.810059 703.450317,235.494324 698.937134,239.657593 
	C687.193481,250.490891 674.732056,260.480164 660.551697,268.012390 
	C651.348572,272.900848 642.413940,278.213959 633.814880,284.060150 
	C629.832397,286.767731 626.198547,288.237976 622.325806,284.729095 
	C613.604675,290.709717 611.037781,299.359375 610.673950,308.951447 
	C610.526672,312.833252 612.111511,315.065613 616.655457,314.685211 
	C627.312927,313.792999 637.021301,309.924622 646.585571,305.608307 
	C670.600403,294.770508 692.275330,280.418610 711.808838,262.679260 
	C726.435974,249.395645 743.647644,239.784073 760.699280,230.041611 
	C765.638916,227.219360 769.964355,228.873245 772.350464,234.132462 
	C773.578796,236.840012 773.026062,239.100174 770.102478,240.255737 
	C763.606323,242.823395 758.183777,247.316086 751.800903,250.251266 
	C747.819580,252.082077 744.306458,256.070709 740.178040,258.458710 
	C729.523743,264.621429 720.895996,273.167389 712.195618,281.653198 
	C711.718933,282.118103 711.285706,282.669922 710.725464,283.000336 
	C703.831482,287.066498 699.513977,293.553284 694.485596,299.505280 
	C687.039795,308.318756 683.136108,318.469391 680.809692,329.445404 
	C680.200806,332.318085 679.038635,336.040222 681.583679,337.930145 
	C684.235107,339.898987 687.910767,338.955566 691.154663,337.785065 
	C709.066162,331.322296 724.206787,320.006531 740.101379,309.999023 
	C764.196472,294.828308 783.104309,273.835602 803.052612,254.015198 
	C805.734375,251.350662 808.110413,249.454575 811.491699,253.490494 
M674.420044,237.956009 
	C664.728577,245.997314 653.503662,252.062332 644.512817,261.010590 
	C661.589844,252.668564 676.527039,241.450500 690.046082,228.320908 
	C689.698059,227.819275 689.349976,227.317627 689.001953,226.815994 
	C684.335449,230.389526 679.668945,233.963058 674.420044,237.956009 
z"/>
<path fill="#000000" opacity="1.000000" stroke="none" 
	d="
M506.735291,284.683014 
	C509.170135,277.278290 508.467987,269.886566 510.298065,262.600525 
	C505.815063,261.878113 503.269257,263.653503 499.965027,265.466705 
	C492.290039,269.678436 485.953400,275.659210 479.373718,280.951477 
	C473.513550,285.665009 467.846832,291.304474 462.661133,297.120667 
	C457.850647,302.516113 454.356384,308.991455 448.079834,313.296967 
	C446.111664,314.647034 445.400574,318.737030 443.326385,321.131805 
	C437.984497,327.299377 433.264526,333.896576 429.182556,340.976410 
	C427.527191,343.847443 425.597992,346.754089 421.500397,346.300720 
	C417.540833,345.862610 415.857819,342.499847 413.547546,339.998596 
	C412.494598,338.858643 412.950134,337.472778 413.864319,336.349823 
	C426.371948,320.985443 433.570831,302.433380 444.148956,285.924774 
	C457.077698,265.747772 468.226227,244.444504 482.596313,225.182449 
	C484.288086,222.914749 485.899353,220.586197 487.621002,218.341888 
	C488.870789,216.712662 489.425323,213.675735 492.052826,214.294571 
	C495.036072,214.997177 497.542999,217.440918 498.152069,220.362366 
	C499.032227,224.584183 499.291473,229.158279 494.407684,231.704315 
	C491.199860,233.376648 491.779419,237.125885 489.914703,239.680359 
	C483.243805,248.818893 477.315704,258.475739 472.328796,269.054932 
	C474.228333,267.450287 476.164581,265.886841 478.020996,264.233765 
	C485.603699,257.481323 494.475311,253.040100 504.021240,249.892761 
	C509.736389,248.008453 519.130554,253.690781 519.352722,259.623535 
	C519.853577,272.998749 521.022217,287.225830 515.495361,299.181946 
	C511.107178,308.674683 512.265015,318.029114 510.232697,327.289581 
	C509.354614,331.290588 506.417358,334.311768 506.381348,338.850494 
	C506.355438,342.112640 505.134094,345.593689 505.170410,349.093750 
	C505.182373,350.244446 505.178314,351.514099 503.913696,352.133698 
	C502.463257,352.844269 501.499512,351.877930 500.345062,351.142578 
	C493.251587,346.624603 495.124573,339.529968 496.311676,333.620514 
	C498.534210,322.556519 498.850525,311.214722 501.838501,300.269043 
	C503.243347,295.122772 505.291565,290.219971 506.735291,284.683014 
z"/>
<path fill="#000000" opacity="1.000000" stroke="none" 
	d="
M324.854248,266.962646 
	C333.964233,254.918716 345.009338,245.402802 356.201355,235.898148 
	C365.394135,228.091278 376.007019,222.943817 386.447449,217.503525 
	C393.761688,213.692245 401.917511,211.197632 410.151184,210.222931 
	C415.413177,209.600037 420.309174,212.252151 423.268860,216.955292 
	C425.532623,220.552536 422.248962,221.050964 420.059601,220.810501 
	C410.872742,219.801468 403.735626,225.561646 394.248688,227.720901 
	C400.222198,231.345673 405.135620,234.525345 408.875122,239.166687 
	C410.535767,241.227783 411.543732,243.268890 411.395752,245.947495 
	C410.925659,254.458344 413.276489,263.403961 407.698395,271.126373 
	C401.427490,279.808014 394.868408,287.750183 385.519409,293.990143 
	C377.577179,299.291138 368.773804,303.104736 361.221832,308.966583 
	C357.563843,311.805878 353.223206,312.753662 348.521271,312.403961 
	C344.876923,312.132904 341.196411,312.348938 337.531952,312.347229 
	C322.358917,312.340118 311.521637,295.676331 317.278320,281.400604 
	C319.284607,276.425293 322.131226,271.942596 324.854248,266.962646 
M327.181580,296.940918 
	C327.095673,300.359161 327.552704,303.796112 331.967224,303.411591 
	C337.838715,302.900208 343.956085,303.560059 349.358276,300.043884 
	C353.107483,297.603607 357.183685,295.664520 361.121185,293.515015 
	C378.730804,283.901703 393.747284,271.792053 401.425476,252.394241 
	C403.180084,247.961487 402.998047,241.383713 400.446045,239.234818 
	C397.166992,236.473709 380.303467,235.712418 376.800171,238.405792 
	C363.813446,248.390213 349.702728,257.150879 340.086212,270.892456 
	C338.491730,273.170898 334.860596,273.064392 334.396057,276.066132 
	C333.506531,281.813782 329.674957,286.240936 327.786682,291.534332 
	C327.225067,293.108704 326.177948,294.439545 327.181580,296.940918 
z"/>
<path fill="#000000" opacity="1.000000" stroke="none" 
	d="
M585.941284,258.939514 
	C582.046570,262.847931 578.394958,266.499237 574.761536,270.168640 
	C568.987549,275.999725 563.252197,281.746521 558.204529,288.374176 
	C553.504578,294.545288 549.605103,300.986328 546.010864,307.726501 
	C544.240784,311.045746 541.281799,312.197968 538.641235,310.028137 
	C535.915771,307.788483 531.021057,306.186798 532.979980,300.803955 
	C540.966492,278.857788 556.490845,261.553864 569.085632,242.460953 
	C572.845520,236.761124 573.452148,237.023956 578.534546,241.555542 
	C580.496887,243.305252 582.057922,243.718216 584.092224,241.847733 
	C587.203186,238.987244 591.116943,237.447678 594.854492,235.651581 
	C599.797913,233.276031 605.980286,236.179703 606.670349,241.776199 
	C607.317322,247.023331 608.762634,253.565292 606.417664,257.474792 
	C602.503662,264.000397 604.927917,272.894318 597.915283,277.886017 
	C596.683167,278.763092 597.291138,280.709808 597.161865,282.184937 
	C596.288574,292.153229 593.805115,301.466248 588.310303,310.129059 
	C585.975159,313.810547 586.338501,319.019806 585.380310,323.511810 
	C584.109619,329.469055 580.501892,334.620544 580.131104,340.859436 
	C579.995911,343.134094 577.824707,343.405396 575.844727,342.430603 
	C569.538330,339.325806 567.588806,333.316498 570.485962,327.015259 
	C573.755920,319.903076 574.238586,311.948395 577.265930,304.662659 
	C581.917419,293.468231 585.010437,281.713318 587.968994,269.941254 
	C588.890808,266.273376 590.847595,262.873962 592.199707,259.302094 
	C592.816833,257.671875 594.205566,256.147827 593.171936,253.750549 
	C589.922424,254.094101 588.370972,256.885162 585.941284,258.939514 
z"/>
</svg>