<svg version="1.1" id="Layer_1" xmlns="http://www.w3.org/2000/svg" xmlns:xlink="http://www.w3.org/1999/xlink" x="0px" y="0px"
	 width="100%" viewBox="0 0 1024 432" enable-background="new 0 0 1024 432" xml:space="preserve">
<path fill="#000000" opacity="1.000000" stroke="none" 
	d="
M942.149597,234.095154 
	C946.544983,231.651535 950.619507,229.397003 954.680237,227.117874 
	C956.320862,226.197052 957.915222,225.303879 959.732361,226.775162 
	C960.525085,227.417038 961.410217,227.662399 962.515137,227.424408 
	C969.235779,225.976776 973.880249,230.340240 972.093323,237.374542 
	C970.236633,244.683334 972.796326,252.410324 969.409546,259.446625 
	C969.214294,259.852356 969.173279,260.597290 969.415222,260.909210 
	C974.135925,266.996307 971.250854,274.353729 972.597107,280.947021 
	C975.030212,281.995819 976.556641,280.420746 978.221130,279.482452 
	C985.474670,275.393585 992.667358,271.194611 999.967651,267.191681 
	C1003.787903,265.096985 1007.591553,266.753418 1010.010193,271.345154 
	C1012.065613,275.247253 1009.598450,277.120239 1006.599731,278.805420 
	C998.324158,283.455994 990.180542,288.353790 981.782593,292.769165 
	C977.345520,295.101959 976.225098,297.775909 978.287476,302.395874 
	C981.540100,309.682251 984.227661,317.220062 987.449097,324.521454 
	C990.389526,331.185852 991.441711,337.799561 988.744324,344.787567 
	C988.286621,345.973206 988.258667,347.449768 988.439697,348.734497 
	C989.104187,353.450500 987.304382,357.116943 984.079468,360.380768 
	C974.313477,370.264893 965.229126,380.972321 953.198547,388.251709 
	C943.918823,393.866608 934.406982,398.931061 924.069946,402.775299 
	C917.317505,405.286499 910.957031,409.655884 904.143494,412.597473 
	C896.207031,416.023956 888.042419,418.993347 879.312866,419.475372 
	C876.183289,419.648193 874.269592,421.844940 871.615784,422.752655 
	C865.762878,424.754608 859.777100,424.261993 853.804199,424.340729 
	C852.637817,424.356110 851.424072,424.128387 850.311707,424.373596 
	C839.079102,426.849915 831.988220,420.451172 825.959839,412.578918 
	C822.259705,407.747223 825.411865,402.714111 827.553711,398.303284 
	C834.048279,384.928864 844.331177,374.634674 854.847717,364.300598 
	C870.523010,348.897186 888.526917,336.612152 906.001587,323.590576 
	C922.995850,310.926971 941.810364,301.131165 959.838196,290.099976 
	C962.873962,288.242340 964.267761,286.440277 963.083923,282.933350 
	C959.608093,272.637390 959.494995,262.044739 960.450012,251.366409 
	C960.487671,250.946014 960.154846,250.492523 960.004578,250.081696 
	C953.531921,250.847076 949.986145,256.272766 944.897095,259.149628 
	C939.246155,262.344086 933.783386,265.806854 927.671570,268.181488 
	C924.509705,269.409943 922.126709,269.128906 920.178894,266.555695 
	C917.773987,263.378693 915.317200,263.483215 912.103577,265.435608 
	C903.610596,270.595306 893.669006,271.121338 884.975952,268.733765 
	C877.404480,266.654205 871.837769,259.595520 869.760620,250.998581 
	C868.691467,246.573380 868.535828,242.159119 868.604797,237.663086 
	C868.639282,235.418381 869.217712,233.040649 867.495483,230.171280 
	C862.952637,234.563995 856.469360,234.921890 852.001709,239.810440 
	C848.172241,244.000702 843.995178,248.422272 838.286316,250.312546 
	C835.958618,251.083282 836.557495,253.405075 835.210266,254.507904 
	C826.409241,261.712250 819.996765,271.370575 811.019653,278.312225 
	C807.687134,280.889099 806.893005,284.706024 804.573242,287.722015 
	C802.745850,290.097839 801.800842,289.973572 799.925842,288.556732 
	C793.479614,283.685547 793.473633,276.130920 800.419373,269.425934 
	C814.064941,256.253387 826.565796,241.832962 842.002686,230.596283 
	C847.107117,226.880722 852.325745,223.247818 857.819763,220.160095 
	C864.973145,216.139771 877.440125,223.118088 877.067078,231.358841 
	C876.686096,239.776398 881.383118,247.115356 880.748779,255.478607 
	C880.452271,259.387878 883.100037,260.608795 887.103577,260.164917 
	C895.270569,259.259552 902.360779,255.731247 909.387939,251.943848 
	C920.225830,246.102539 931.013916,240.168823 942.149597,234.095154 
M864.515320,375.019257 
	C851.872070,385.590027 841.784668,397.955414 836.015320,414.642212 
	C843.305237,414.935547 849.552246,415.533478 855.775391,414.207642 
	C880.506836,408.938873 903.406677,398.874176 926.137939,388.079010 
	C945.416382,378.923615 960.796265,365.300964 974.569519,349.507202 
	C980.038635,343.235748 981.561707,335.095520 979.933777,327.595245 
	C978.200928,319.611481 973.756348,312.228149 970.623840,304.530518 
	C969.361328,301.427948 967.608337,300.959229 964.862366,302.672302 
	C959.917053,305.757446 955.024780,308.954620 949.907349,311.730743 
	C940.883667,316.625854 931.839966,321.785767 923.369995,327.275055 
	C915.833130,332.159546 908.752197,338.558014 901.333435,344.071411 
	C894.562683,349.103149 887.431946,353.825623 880.763000,358.857056 
	C875.080017,363.144653 870.227539,369.226257 864.515320,375.019257 
z"/>
<path fill="#000000" opacity="1.000000" stroke="none" 
	d="
M156.898514,314.006042 
	C140.713104,320.371521 124.358040,325.597290 107.637650,327.441254 
	C92.747818,329.083313 77.307800,330.607941 62.521450,323.702972 
	C46.452702,316.199188 34.057961,298.183167 36.117085,281.037964 
	C37.534561,269.235352 40.451065,257.633362 44.629459,246.339264 
	C52.455917,225.184555 64.704567,206.701492 77.591614,188.443314 
	C104.406036,150.452957 136.718842,117.714127 172.651459,88.489922 
	C191.049667,73.526573 211.800797,62.174202 233.268265,52.172680 
	C241.863678,48.168140 250.377411,43.969418 259.098846,40.259964 
	C266.598175,37.070301 274.917419,36.685879 282.631592,34.179066 
	C293.257111,30.726177 304.280090,29.724276 315.106323,31.175047 
	C322.757874,32.200401 330.764832,34.167458 336.929413,39.845615 
	C338.273285,41.083439 339.759766,42.166885 341.185944,43.314751 
	C348.578430,49.264591 354.498413,55.857861 353.116241,66.463341 
	C352.582245,70.560791 353.191650,74.794106 352.957245,78.947296 
	C352.701477,83.479691 351.754364,87.886574 347.856873,90.886841 
	C346.627319,91.833344 346.285675,92.995926 346.351135,94.364403 
	C346.461121,96.663307 345.547943,98.668083 344.331848,100.432976 
	C338.175964,109.366875 332.647247,118.810875 324.637573,126.306702 
	C317.418518,133.062637 310.959259,140.461716 305.051605,148.362625 
	C303.161713,150.890167 300.606415,152.025711 298.266388,149.767426 
	C295.703339,147.293869 290.245056,145.473312 293.535645,140.360336 
	C296.397766,135.913147 299.804169,131.713043 303.509216,127.932114 
	C312.500519,118.756737 321.740753,109.710800 328.571442,98.825386 
	C336.395081,86.357536 344.609344,73.813583 343.776611,57.961407 
	C343.415619,51.089634 340.186493,47.451756 333.979309,44.674595 
	C324.053223,40.233562 313.704773,40.685200 303.556305,41.562492 
	C295.399475,42.267616 287.481476,45.442993 279.381897,47.167034 
	C265.174500,50.191154 253.048035,58.156281 239.810471,63.471542 
	C222.171265,70.554169 206.711639,81.617630 190.892197,91.767891 
	C179.645462,98.984161 170.435440,109.306381 159.908264,117.732445 
	C150.181061,125.518211 142.663101,135.489243 133.278214,143.543427 
	C123.082443,152.293533 115.526451,163.278397 107.032585,173.485199 
	C98.391830,183.868515 90.523895,194.803177 82.692451,205.793350 
	C79.281738,210.579727 77.028641,216.391144 71.455582,219.542572 
	C69.441772,220.681320 70.867744,223.350967 70.006508,225.108139 
	C68.176285,228.842316 66.460876,232.657089 64.316360,236.208084 
	C59.005714,245.001724 57.393860,255.439896 52.616348,264.144775 
	C49.113869,270.526520 49.100735,276.617523 48.618652,282.905426 
	C47.991531,291.085052 46.565216,299.501038 50.657310,307.414948 
	C51.771961,309.570648 52.973068,311.554962 55.133976,312.586517 
	C61.706215,315.723999 68.114685,318.712524 75.847931,318.941071 
	C97.899147,319.592773 118.487869,313.447815 139.139572,307.004120 
	C164.780472,299.003754 189.264099,288.271301 213.335220,276.490540 
	C217.480530,274.461761 223.168701,277.331787 224.098419,281.888763 
	C224.522125,283.965546 224.227280,285.942291 221.911911,286.895050 
	C208.404404,292.453156 195.581070,299.477356 181.871124,304.712952 
	C173.703323,307.832062 165.378937,310.585938 156.898514,314.006042 
z"/>
<path fill="#000000" opacity="1.000000" stroke="none" 
	d="
M667.736328,203.041016 
	C660.913269,204.129089 656.934937,201.016220 654.148132,195.686920 
	C655.439880,193.327148 657.783386,192.613708 659.734497,192.741867 
	C668.605835,193.324631 676.535461,188.829575 685.179077,188.366806 
	C687.161987,188.260635 689.156128,188.022430 691.101562,187.629456 
	C695.132446,186.815231 699.316284,186.273499 702.258972,182.881516 
	C717.112183,165.761063 733.502991,150.091248 748.871887,133.457672 
	C751.241760,130.892792 753.601685,128.312637 755.842163,125.635757 
	C758.814087,122.084961 761.157227,123.685936 763.678345,126.246826 
	C766.442200,129.054413 768.141602,132.938766 765.194214,135.375839 
	C762.851685,137.312729 761.932129,139.757202 760.156067,141.783493 
	C752.264648,150.786972 744.390625,159.804184 734.700256,166.984940 
	C732.685059,168.478226 733.202942,171.331146 729.911987,173.442795 
	C733.994324,173.089294 736.040894,171.692459 738.105957,170.462204 
	C757.824951,158.714706 775.751526,144.760818 791.050903,127.544571 
	C793.062744,125.280777 794.725952,121.299210 798.922363,125.162109 
	C803.581787,129.451294 804.644714,133.315201 801.331543,137.201263 
	C798.798340,140.172531 795.214294,142.592270 792.967590,145.345322 
	C787.806396,151.669662 781.420837,156.292618 775.330017,161.348587 
	C768.386292,167.112549 761.200439,172.706116 753.251953,176.961594 
	C742.212708,182.871826 731.443420,189.714935 718.992126,192.298874 
	C710.023743,194.160034 704.884216,200.553223 699.395142,206.714279 
	C695.964722,210.564636 693.159851,215.006866 689.527039,218.635666 
	C679.696106,228.455750 674.639954,242.034317 664.447266,251.244034 
	C659.163025,256.018677 659.139160,263.787567 652.830322,267.478790 
	C651.731079,268.121887 651.927917,270.859619 651.374817,272.581329 
	C650.172302,276.324982 648.034546,279.372284 644.503784,281.293182 
	C635.990601,275.610382 635.564941,272.413544 640.396423,263.781738 
	C652.416931,242.306427 668.201111,223.583176 683.137085,204.228867 
	C684.006592,203.102142 685.378235,202.234879 685.330566,200.282288 
	C679.611023,201.597885 673.727112,201.149628 667.736328,203.041016 
z"/>
<path fill="#000000" opacity="1.000000" stroke="none" 
	d="
M432.981506,245.977905 
	C426.928986,251.040756 423.378387,257.702881 418.983612,263.653687 
	C416.878693,266.503876 418.297180,270.427490 416.650482,274.169739 
	C422.910217,275.150482 428.724976,275.189423 434.367493,274.139435 
	C446.978943,271.792603 459.149414,267.892761 470.849457,262.556946 
	C475.834595,260.283478 478.886230,261.279907 481.621948,266.032227 
	C483.117889,268.630829 483.234009,271.060791 479.812134,272.536102 
	C469.758667,276.870544 459.662354,280.666534 448.690521,282.537567 
	C441.027466,283.844360 433.513824,283.580292 425.923035,283.849335 
	C415.854065,284.206238 410.527161,277.245697 405.232941,270.306366 
	C404.119354,268.846771 404.512665,267.240387 405.092072,265.563538 
	C408.697174,255.130325 412.703583,245.024506 421.581329,237.629913 
	C424.879364,234.882889 427.747772,231.535156 430.444702,228.167145 
	C439.071686,217.393478 451.344788,211.402847 462.095459,203.384460 
	C471.659332,196.251236 482.817505,195.019821 493.795166,192.933334 
	C499.359039,191.875824 507.485596,198.809326 508.097809,204.484985 
	C508.874847,211.688339 506.848083,216.404404 500.040283,221.119812 
	C489.806763,228.208023 478.505585,232.465134 467.541321,237.665543 
	C463.123749,239.760834 458.282837,241.038406 453.541138,242.350464 
	C450.064758,243.312424 446.533691,243.162796 443.835419,240.190948 
	C441.866638,238.022522 440.023071,238.283142 438.552551,240.536255 
	C437.128418,242.718262 433.043304,241.978119 432.981506,245.977905 
M453.342957,226.049698 
	C451.507111,228.153732 448.023560,227.563126 446.290894,230.104752 
	C452.386414,233.071487 492.595062,213.056656 497.294128,204.096313 
	C490.985291,207.625717 483.380219,204.118973 476.970001,209.973206 
	C470.188080,216.166916 461.696808,220.488907 453.342957,226.049698 
z"/>
<path fill="#000000" opacity="1.000000" stroke="none" 
	d="
M585.386475,227.998016 
	C582.001404,233.728729 579.501892,239.463989 576.136597,244.823242 
	C572.138428,251.190216 571.556274,259.185333 573.288879,266.870148 
	C573.740295,268.872437 575.551819,268.378021 577.027832,268.304169 
	C584.160522,267.947266 590.618713,265.263947 596.982544,262.376221 
	C601.674744,260.247009 606.199585,257.751404 610.868469,255.567581 
	C613.818542,254.187714 618.579407,256.837494 620.169922,260.684845 
	C621.609802,264.167755 619.618164,265.934875 616.697937,267.196838 
	C609.622253,270.254639 602.752136,273.949188 595.442810,276.260101 
	C588.114441,278.577026 579.972778,278.654388 572.821350,276.415100 
	C564.116272,273.689362 559.265076,262.270844 561.152771,253.081970 
	C561.746338,250.192322 562.386658,247.312271 563.016541,244.376205 
	C556.549500,246.156403 551.869934,250.790939 546.269653,253.809250 
	C540.824829,256.743835 534.955322,258.367035 529.266846,260.537872 
	C523.932922,262.573395 518.857056,263.329193 513.396729,263.179382 
	C508.857910,263.054840 499.253571,254.948608 499.530273,250.582230 
	C499.844543,245.623154 503.376343,241.555084 506.906830,238.598328 
	C516.805420,230.308441 526.338074,221.387100 538.824219,216.729050 
	C546.770691,213.764587 554.816589,211.271164 563.168579,209.892410 
	C566.669922,209.314377 570.167236,209.560074 572.722961,212.754822 
	C573.298279,213.473923 574.309692,214.192703 575.179871,214.273865 
	C584.934937,215.183716 586.817810,217.566803 585.386475,227.998016 
M519.339600,246.070068 
	C517.365295,247.663559 512.274719,247.177139 515.321716,252.324448 
	C536.201111,246.998764 552.834351,234.570984 568.969421,221.175873 
	C561.467102,223.449661 553.034424,222.005478 546.527466,227.379517 
	C544.695007,228.892944 541.884216,227.589157 540.030579,229.428345 
	C533.890137,235.520905 526.412048,239.962143 519.339600,246.070068 
z"/>
<path fill="#000000" opacity="1.000000" stroke="none" 
	d="
M297.110596,289.094788 
	C299.167908,284.504364 301.091919,280.264679 304.072998,276.614105 
	C311.724457,267.244293 312.302551,255.531204 314.835968,244.437561 
	C317.828430,231.333786 319.070618,217.965805 321.142700,204.724518 
	C321.653992,201.457169 321.453766,198.084824 321.772125,194.779175 
	C322.099945,191.375626 323.726837,190.764420 326.371185,192.980713 
	C329.189453,195.342728 330.590698,198.070190 330.588440,202.026733 
	C330.584259,209.333817 328.737427,216.664108 329.461884,223.758728 
	C330.193420,230.922913 328.875305,237.546158 327.775970,244.937988 
	C331.946655,242.567551 334.690918,239.082245 337.666809,236.048050 
	C350.899841,222.555878 365.619232,210.888779 381.227539,200.356110 
	C389.817688,194.559326 399.489502,190.964859 409.718079,189.140121 
	C415.414307,188.123947 419.476257,190.841354 421.973328,196.941711 
	C420.320038,199.316452 417.322388,198.816193 415.215698,199.131165 
	C406.817902,200.386719 400.150482,205.703537 392.380768,208.431305 
	C388.229156,209.888855 384.835144,215.146729 380.473022,217.706696 
	C370.596985,223.502563 362.336090,231.462952 354.102844,239.019623 
	C347.779358,244.823441 341.599823,251.316605 335.985199,258.100708 
	C331.692657,263.287354 328.145081,269.107513 322.285858,273.056183 
	C320.448395,274.294464 320.195557,278.041412 319.447296,280.704712 
	C318.049347,285.680511 315.821106,290.338104 314.123871,295.186340 
	C312.701935,299.248169 309.363220,301.807037 307.004639,305.062897 
	C304.946167,307.904480 300.937103,308.469177 297.527710,306.144928 
	C292.238434,302.539154 291.376221,300.069244 293.641388,295.582397 
	C294.690582,293.504181 295.826385,291.469696 297.110596,289.094788 
z"/>
<path fill="#000000" opacity="1.000000" stroke="none" 
	d="
M753.037354,267.076813 
	C760.914246,256.472717 767.377197,245.406097 773.855957,234.334076 
	C775.135132,232.147995 776.250305,228.086761 780.502380,230.392471 
	C784.250061,232.424622 786.935669,238.084167 784.923950,240.939377 
	C781.567993,245.702377 780.671570,251.532761 777.252014,256.280487 
	C771.802124,263.847229 766.969116,271.855530 761.736877,279.583374 
	C760.064758,282.052948 756.477234,283.109619 756.574585,286.964294 
	C756.599487,287.949402 755.210327,288.233795 754.153320,288.264465 
	C749.947205,288.386475 744.783752,281.342773 746.633240,277.605713 
	C748.396057,274.043976 750.740540,270.770111 753.037354,267.076813 
z"/>
<path fill="#000000" opacity="1.000000" stroke="none" 
	d="
M816.979492,164.897064 
	C815.195251,162.811401 812.734924,161.472855 813.185730,158.551941 
	C813.347778,157.502365 814.294189,156.721069 815.347961,156.965851 
	C818.097107,157.604538 819.682068,159.836014 821.211548,161.934631 
	C822.465942,163.655823 822.403442,165.562683 821.160400,167.195786 
	C819.034912,167.584885 818.320618,166.038391 816.979492,164.897064 
z"/>
</svg>