<svg version="1.1" id="Layer_1" xmlns="http://www.w3.org/2000/svg" xmlns:xlink="http://www.w3.org/1999/xlink" x="0px" y="0px"
	 width="100%" viewBox="0 0 1024 400" enable-background="new 0 0 1024 400" xml:space="preserve">
<path fill="#000000" opacity="1.000000" stroke="none" 
	d="
M21.477276,336.591431 
	C28.585772,318.599579 34.129662,300.476959 39.856892,282.424805 
	C49.831600,250.984650 61.694992,220.301529 75.664375,190.417007 
	C90.558235,158.554779 108.408432,128.249985 124.573196,97.058578 
	C126.238548,93.845139 127.853729,90.605705 129.731400,86.907143 
	C127.146004,86.797699 125.730125,88.086685 124.403687,89.102966 
	C117.732872,94.213982 109.847794,97.487671 103.625916,103.340256 
	C100.022621,106.729683 92.286476,103.296341 91.369675,98.328758 
	C91.018021,96.423347 92.491516,95.699387 93.593597,94.766220 
	C99.841644,89.475845 106.810646,85.190208 113.610489,80.692375 
	C124.166794,73.709770 134.958481,67.083824 145.549591,60.152672 
	C150.814148,56.707386 152.794785,50.755890 155.750122,45.608917 
	C158.323959,41.126308 159.853516,40.503658 162.928391,44.623009 
	C165.882431,48.580448 168.582199,47.783684 172.225723,46.302559 
	C187.174606,40.225708 201.972763,33.640499 217.281128,28.632320 
	C228.076370,25.100630 239.216309,22.130253 250.733444,21.149530 
	C264.941986,19.939623 278.744202,15.361537 293.164520,15.805563 
	C299.496368,16.000532 305.710846,17.353630 311.686768,19.214581 
	C318.401886,21.305723 322.108276,33.686821 317.808655,39.578152 
	C308.380341,52.496723 296.292572,62.619461 283.868805,72.640015 
	C274.734161,80.007683 265.672546,87.562225 256.598328,95.053329 
	C247.349762,102.688339 238.042709,110.271286 228.470551,117.491608 
	C208.726120,132.384872 188.300674,146.363770 169.183167,162.104965 
	C160.278732,169.436798 150.949081,176.251663 141.826920,183.319870 
	C138.870041,185.610931 135.944412,186.217667 132.790161,183.636368 
	C127.282631,179.129242 127.374413,178.107681 132.864548,173.663696 
	C175.076218,139.495560 219.941696,108.773392 261.865662,74.228653 
	C273.439636,64.691887 284.946686,55.086044 296.076538,45.037678 
	C300.552612,40.996525 303.867554,35.925968 307.453583,31.137568 
	C309.857483,27.927635 308.945465,26.388950 304.841858,26.230968 
	C291.708649,25.725351 278.817780,27.431473 265.808441,29.330305 
	C253.128998,31.180986 240.858704,34.759903 228.217514,36.711777 
	C222.676987,37.567268 217.459106,41.467323 211.898315,43.584793 
	C200.002213,48.114681 188.179703,52.839100 176.349609,57.540649 
	C166.111374,61.609558 157.792099,67.534027 151.449829,77.185623 
	C138.685394,96.610405 129.120758,117.716629 117.776894,137.872620 
	C96.439453,175.785370 76.911087,214.610992 62.378796,255.713882 
	C54.513519,277.959900 47.473949,300.497406 40.009144,322.885864 
	C38.975632,325.985596 38.629158,329.475586 35.592148,331.603333 
	C34.529606,332.347778 34.432964,333.563263 34.409061,334.752563 
	C34.385624,335.918701 34.565155,337.129211 34.313351,338.242889 
	C33.552525,341.608154 33.168575,345.519257 28.712982,346.022919 
	C25.610474,346.373657 21.384777,340.880859 21.477276,336.591431 
z"/>
<path fill="#000000" opacity="1.000000" stroke="none" 
	d="
M564.928833,256.100220 
	C548.311096,260.540710 531.961731,263.866119 514.978882,263.005493 
	C503.953339,262.446777 494.319458,250.250549 496.064117,239.405334 
	C497.190460,232.403961 501.063324,227.212234 505.162445,222.006943 
	C508.435547,217.850647 511.986572,213.913208 515.537109,209.734009 
	C513.302124,207.647888 511.276154,205.939407 509.466705,204.026123 
	C506.582458,200.976425 507.028381,199.187195 511.099243,198.123856 
	C514.947998,197.118515 518.910461,196.554703 522.810547,195.737793 
	C529.983459,194.235382 536.743347,192.124329 542.946899,187.711685 
	C565.690186,171.534363 591.350281,161.474747 617.623108,152.626907 
	C626.063660,149.784409 634.849243,149.319061 643.326599,146.989838 
	C648.852722,145.471466 654.331177,148.623062 657.100464,153.666672 
	C659.107361,157.321793 657.895081,162.995132 654.009827,165.091827 
	C650.298645,167.094620 646.484497,169.137192 642.806213,171.077026 
	C636.928467,174.176804 630.913452,176.845795 624.862610,179.510086 
	C606.983887,187.382431 588.298767,192.341446 569.039917,195.464157 
	C556.308777,197.528488 543.855713,201.382095 534.037598,209.828735 
	C529.340088,213.869965 525.230042,219.152298 520.987671,223.991547 
	C518.514404,226.812729 516.608215,230.043503 512.841919,231.837555 
	C509.525818,233.417221 506.066101,248.046112 507.221161,251.633957 
	C507.920258,253.805603 509.510223,253.714752 511.161377,253.850143 
	C523.646484,254.873611 535.675049,252.112228 547.514099,248.854477 
	C578.515686,240.323761 606.907166,225.715240 635.294800,210.984741 
	C650.424683,203.133774 663.919434,192.727692 678.950500,184.818832 
	C681.151245,183.660843 683.387634,182.553940 685.673462,181.577682 
	C690.184265,179.651093 693.141113,180.653976 695.533142,184.966843 
	C696.939636,187.502625 696.743958,189.682220 693.799194,191.172562 
	C682.930115,196.673294 673.044861,203.822281 662.562134,209.947128 
	C650.919250,216.749847 641.469788,226.370621 630.404114,233.723953 
	C625.046875,237.283920 623.153687,242.907806 618.857605,246.932739 
	C617.119263,248.561356 616.387268,253.373108 617.589355,256.738892 
	C618.668335,259.759644 621.818237,259.756409 624.420349,259.709045 
	C634.882019,259.518616 645.437683,261.038666 655.788025,258.651764 
	C689.105042,250.968521 720.682251,239.119156 748.686646,219.001572 
	C752.320801,216.390900 755.593750,213.242264 758.842896,210.142532 
	C761.192566,207.900848 763.081604,205.953842 766.264587,209.185654 
	C770.231262,213.213120 771.078003,216.175812 768.190186,219.522339 
	C763.909668,224.482666 758.579895,228.304550 753.235107,231.943787 
	C747.913330,235.567337 742.185608,238.652130 736.433716,241.575470 
	C720.955505,249.442093 705.184814,256.496368 688.533630,261.772278 
	C668.586792,268.092438 648.446533,270.355835 627.710938,268.471588 
	C619.399597,267.716370 608.166260,256.567749 606.069824,250.167404 
	C604.834412,246.395401 607.232056,243.129929 609.111023,238.713516 
	C593.882507,244.708206 579.591553,250.333832 564.928833,256.100220 
M580.300354,182.136749 
	C600.823303,177.288666 619.995605,169.071365 639.894104,159.057800 
	C633.397583,158.208725 583.085205,177.691849 577.501953,182.532730 
	C578.379150,182.429962 579.019653,182.354935 580.300354,182.136749 
z"/>
<path fill="#000000" opacity="1.000000" stroke="none" 
	d="
M765.964966,287.028381 
	C781.222168,252.283493 796.101868,217.779633 816.102295,184.694183 
	C807.542603,185.386200 800.618652,187.788544 793.474854,188.971100 
	C786.271912,190.163452 779.124512,191.570404 771.742859,191.336014 
	C766.776489,191.178314 764.643860,188.054581 762.146057,183.750870 
	C767.659485,182.153732 772.812012,182.273315 777.721191,181.101288 
	C792.084290,177.672150 806.764404,175.575333 820.759338,170.601059 
	C823.198608,169.734070 825.208252,168.559189 826.552612,166.207352 
	C838.723938,144.915604 853.323181,125.266228 867.682800,105.450752 
	C878.730774,90.205132 890.049133,75.186623 903.068359,61.537437 
	C905.234619,59.266422 907.237061,56.470856 910.823975,60.035091 
	C914.711304,63.897820 915.769409,67.644043 912.672363,70.909851 
	C895.764282,88.739624 882.002197,109.021385 867.198792,128.505081 
	C860.053711,137.909241 854.675354,148.377258 847.639465,157.973145 
	C853.955566,157.496979 858.825562,153.962051 864.128784,151.603317 
	C888.401184,140.807495 909.957153,125.908913 929.381958,107.869736 
	C932.458313,105.012802 935.131836,102.788765 938.802551,107.276733 
	C942.170105,111.394135 942.224060,113.899536 937.949036,117.901360 
	C926.484619,128.633209 914.182068,138.383163 900.745850,146.439270 
	C884.223328,156.345871 866.595764,164.207428 849.178284,172.421448 
	C846.665161,173.606628 843.898438,174.216705 841.350830,175.109146 
	C835.083679,177.304535 832.683960,182.309265 829.539246,187.195023 
	C821.596863,199.534500 816.346802,213.398697 808.199097,225.521820 
	C802.041138,234.684418 799.617920,245.265884 794.745667,254.869949 
	C789.778992,264.660004 785.937866,275.018585 781.033081,284.843231 
	C774.900269,297.127869 770.826416,310.246704 765.028503,322.635132 
	C763.083008,326.792023 760.655090,330.530701 760.483582,335.405792 
	C760.424866,337.074219 759.718994,340.497864 756.249329,339.670837 
	C752.975159,338.890472 750.096558,333.527374 750.507935,330.414673 
	C752.550171,314.962738 760.203003,301.539734 765.964966,287.028381 
z"/>
<path fill="#000000" opacity="1.000000" stroke="none" 
	d="
M256.030823,294.329346 
	C254.803391,280.615662 261.212799,269.879089 267.746704,259.190277 
	C277.181702,243.755569 290.722809,232.068466 303.846527,220.059021 
	C312.423065,212.210678 320.482727,203.761368 330.273010,197.247513 
	C334.184601,194.645020 337.029083,194.883804 339.532349,198.497849 
	C342.464294,202.730850 345.701935,202.288605 349.849060,200.332550 
	C359.188904,195.927277 368.981903,192.580856 378.867767,189.669083 
	C385.648743,187.671829 392.643494,189.116302 399.609406,189.582825 
	C406.443634,190.040527 411.097961,193.301834 415.345276,197.951935 
	C417.093597,199.866058 417.739075,202.118134 418.093384,204.718765 
	C420.442535,221.961487 410.280792,232.954376 398.884766,243.216949 
	C396.802795,245.091858 396.256714,247.631805 394.427094,249.598358 
	C388.226837,256.262604 381.488281,262.245209 374.327667,267.848907 
	C366.203247,274.206909 358.622803,281.277313 350.350098,287.424683 
	C334.210144,299.418121 317.217163,309.812805 297.620453,315.602509 
	C288.974579,318.156830 280.125458,320.446045 272.616821,315.353119 
	C265.382324,310.446106 258.323975,304.239227 256.030823,294.329346 
M283.994019,259.247772 
	C277.693207,266.539062 274.829407,276.168549 267.849213,283.016693 
	C267.359192,283.497375 267.318512,284.572784 267.301453,285.376556 
	C267.195679,290.368591 266.982788,295.367401 267.139008,300.353546 
	C267.334534,306.594727 269.980713,309.221008 276.261505,308.823334 
	C280.856598,308.532410 285.535309,308.005188 289.916962,306.304474 
	C310.028351,298.498352 328.965027,288.752167 345.506104,274.558380 
	C363.030670,259.520660 381.997040,246.095703 396.102875,227.374359 
	C401.587524,220.095093 408.299469,213.604614 409.204010,203.786331 
	C409.426605,201.370132 409.306091,199.786179 406.368347,199.037354 
	C393.652252,195.796051 381.562744,199.731857 370.547882,204.399963 
	C357.808990,209.798691 344.607208,214.898682 333.325928,223.501907 
	C331.541321,224.862885 330.134033,225.822723 329.375885,228.056381 
	C328.138458,231.702255 325.500000,232.227921 322.376282,229.915451 
	C320.686798,228.664749 319.728424,226.447266 317.136749,225.995697 
	C316.093872,226.918777 314.951538,227.864105 313.882843,228.886414 
	C306.185760,236.249359 298.468811,243.592148 290.837250,251.022583 
	C288.458008,253.339127 284.575256,254.420990 283.994019,259.247772 
z"/>
<path fill="#000000" opacity="1.000000" stroke="none" 
	d="
M956.962646,197.119400 
	C950.135681,198.459396 944.500366,202.036469 938.237427,203.656006 
	C929.236450,205.983536 921.460632,211.139877 912.780701,214.306152 
	C907.286377,216.310364 901.090149,218.877213 896.027222,223.935364 
	C903.986023,226.629349 911.513916,229.586884 919.268066,231.723541 
	C940.449280,237.559982 960.477356,246.500671 980.969238,254.187683 
	C985.709229,255.965805 988.466858,261.554565 987.164673,266.429535 
	C985.896912,271.175629 981.035278,271.237946 977.606934,272.648193 
	C967.223633,276.919312 956.564148,280.514679 946.046936,284.465485 
	C907.506897,298.943115 870.073364,316.024963 832.503967,332.785095 
	C814.181641,340.958893 797.054077,351.451263 779.103943,360.348206 
	C776.867676,361.456604 774.703369,362.764740 772.372559,363.615753 
	C768.307800,365.099884 762.659058,362.219116 761.329895,358.178772 
	C760.401062,355.355316 762.819275,354.781128 764.451721,353.915192 
	C777.836182,346.815399 791.176758,339.625458 804.689941,332.777161 
	C838.705261,315.538513 873.970642,301.103424 909.029480,286.176331 
	C929.388672,277.507935 950.617371,271.225159 970.883484,262.393951 
	C972.238892,261.803345 973.555359,261.123291 974.863953,260.497284 
	C974.654114,258.533783 973.085388,258.523804 971.960938,257.995178 
	C953.079590,249.118896 932.841431,244.088455 913.242981,237.242432 
	C903.887939,233.974564 893.894592,232.038498 886.387512,224.682922 
	C880.832153,219.239578 880.798401,217.344742 887.569458,213.492935 
	C902.936340,204.751266 919.372559,198.305222 935.770203,191.854309 
	C952.980042,185.083847 971.034363,181.077438 989.031494,177.160828 
	C996.072205,175.628601 1003.802551,175.497391 1009.270020,182.255173 
	C1010.097961,183.278458 1011.385071,184.171234 1010.695740,185.669342 
	C1010.016418,187.145920 1008.535522,186.961044 1007.190125,186.841995 
	C995.712463,185.826385 984.956360,189.134872 974.168945,192.310196 
	C968.585327,193.953751 962.964355,195.470093 956.962646,197.119400 
z"/>
<path fill="#000000" opacity="1.000000" stroke="none" 
	d="
M422.107086,355.086578 
	C410.052521,370.273956 395.315216,381.272583 378.047028,389.334137 
	C363.999573,395.892120 349.558655,398.373413 334.254913,396.894531 
	C326.868530,396.180695 315.227692,387.609497 313.951294,381.721680 
	C314.773224,381.070374 315.600647,381.483917 316.238525,381.922638 
	C331.062164,392.117737 346.096680,388.384064 361.417480,383.076752 
	C390.014557,373.170410 408.969513,352.145538 425.805328,328.453064 
	C437.070679,312.599731 444.865875,294.871399 453.376465,277.563721 
	C463.954590,256.051270 471.336639,233.180527 480.376526,211.008408 
	C481.421783,208.444702 481.467377,205.486435 482.113220,202.743301 
	C482.783203,199.897644 484.290955,199.234909 486.789185,201.079620 
	C490.679657,203.952301 491.862213,209.265717 490.771698,215.103561 
	C488.434937,227.612930 483.702423,239.376770 478.557281,250.777695 
	C474.372925,260.049622 471.867920,269.912567 467.212830,278.966461 
	C459.684753,293.608032 453.208405,308.798126 444.925659,323.041290 
	C438.380859,334.295807 430.761536,344.860718 422.107086,355.086578 
z"/>
<path fill="#000000" opacity="1.000000" stroke="none" 
	d="
M260.042847,195.095596 
	C253.461502,199.670639 247.291306,204.215164 240.897079,208.418915 
	C230.985672,214.934952 222.786331,223.581116 213.145554,230.395782 
	C209.868210,232.712418 209.808929,236.846893 207.180984,239.334976 
	C203.677460,242.652039 199.938705,245.719040 196.366776,248.965836 
	C188.973328,255.686356 181.471756,262.365631 175.458313,270.369232 
	C166.927307,281.723572 156.243164,291.118378 147.326080,302.123108 
	C142.426392,308.169952 136.712540,307.076111 133.143707,300.205811 
	C132.146561,298.286194 133.100449,297.138733 134.218384,295.799927 
	C155.577545,270.220428 177.537628,245.083664 202.190247,222.698441 
	C224.505295,202.435806 249.124619,184.966934 275.971497,170.862274 
	C290.443817,163.258911 305.784912,159.024139 321.963898,157.457596 
	C323.660095,157.293365 325.424042,157.185532 326.827362,158.102509 
	C329.157501,159.625153 332.414001,161.246628 332.048004,164.215775 
	C331.651123,167.435303 327.919586,167.164322 325.487061,167.155075 
	C315.934753,167.118805 307.591064,171.536011 298.778809,174.118301 
	C284.540344,178.290634 272.804199,187.310257 260.042847,195.095596 
z"/>
<path fill="#000000" opacity="1.000000" stroke="none" 
	d="
M514.914978,94.191238 
	C514.612610,92.725311 514.200989,91.307350 515.977356,91.222244 
	C518.751343,91.089348 523.344360,97.934570 522.611328,101.352272 
	C519.193970,99.955399 517.254944,97.068169 514.914978,94.191238 
z"/>
</svg>